<svg width="26" height="25" viewBox="0 0 26 25" fill="none" xmlns="http://www.w3.org/2000/svg">
<path d="M13.3064 21C8.6064 21 4.8064 17.2 4.8064 12.5C4.8064 7.8 8.6064 4 13.3064 4C18.0064 4 21.8064 7.8 21.8064 12.5C21.8064 17.2 18.0064 21 13.3064 21ZM13.3064 5C9.1564 5 5.8064 8.35 5.8064 12.5C5.8064 16.65 9.1564 20 13.3064 20C17.4564 20 20.8064 16.65 20.8064 12.5C20.8064 8.35 17.4564 5 13.3064 5Z" fill="#01B8FF"/>
<path d="M17.4564 13.3498L13.3064 9.1998L9.1564 13.3498L8.4564 12.6498L13.3064 7.7998L18.1564 12.6498L17.4564 13.3498Z" fill="#01B8FF"/>
<path d="M12.8064 8.5H13.8064V17H12.8064V8.5Z" fill="#01B8FF"/>
</svg>
