<svg width="26" height="26" viewBox="0 0 26 26" fill="none" xmlns="http://www.w3.org/2000/svg">
<path d="M13.3064 21.8477C8.6064 21.8477 4.8064 18.0477 4.8064 13.3477C4.8064 8.64766 8.6064 4.84766 13.3064 4.84766C18.0064 4.84766 21.8064 8.64766 21.8064 13.3477C21.8064 18.0477 18.0064 21.8477 13.3064 21.8477ZM13.3064 5.84766C9.1564 5.84766 5.8064 9.19766 5.8064 13.3477C5.8064 17.4977 9.1564 20.8477 13.3064 20.8477C17.4564 20.8477 20.8064 17.4977 20.8064 13.3477C20.8064 9.19766 17.4564 5.84766 13.3064 5.84766Z" fill="#003862"/>
<path d="M17.4564 14.1975L13.3064 10.0475L9.1564 14.1975L8.4564 13.4975L13.3064 8.64746L18.1564 13.4975L17.4564 14.1975Z" fill="#003862"/>
<path d="M12.8064 9.34766H13.8064V17.8477H12.8064V9.34766Z" fill="#003862"/>
</svg>
