<svg width="51" height="51" viewBox="0 0 51 51" fill="none" xmlns="http://www.w3.org/2000/svg">
<path d="M20.635 25.1214L21.6843 24.6554C22.2049 24.9405 22.7528 25.1678 23.3215 25.3341L23.7336 26.4048C23.8496 26.7064 24.1394 26.9054 24.4627 26.9054H26.8191C27.1424 26.9054 27.4321 26.7064 27.5482 26.4048L27.9602 25.3345C28.5292 25.1681 29.0774 24.9407 29.598 24.6555L30.6468 25.1214C30.9422 25.2524 31.2879 25.1884 31.5164 24.9598L33.1826 23.2935C33.4111 23.0649 33.4754 22.7193 33.3441 22.4239L32.8781 21.3746C33.1632 20.8541 33.3905 20.3061 33.5568 19.7375L34.6275 19.3254C34.9292 19.2094 35.1281 18.9195 35.1281 18.5963V16.2399C35.1281 15.9167 34.9291 15.627 34.6275 15.5108L33.5572 15.0988C33.3908 14.5299 33.1634 13.9816 32.8782 13.461L33.3441 12.4122C33.4753 12.1169 33.4111 11.7712 33.1825 11.5427L31.5162 9.87647C31.2877 9.64795 30.9421 9.58379 30.6467 9.71495L29.5973 10.181C29.0768 9.8958 28.5289 9.66856 27.9602 9.50215L27.5481 8.43145C27.4321 8.12979 27.1423 7.93086 26.819 7.93086H24.4627C24.1394 7.93086 23.8497 8.12989 23.7336 8.43145L23.3215 9.50215C22.7528 9.66856 22.2048 9.8958 21.6843 10.181L20.635 9.71495C20.3397 9.58379 19.9941 9.64805 19.7655 9.87657L18.0991 11.543C17.8706 11.7715 17.8063 12.1171 17.9376 12.4125L18.4035 13.4616C18.1183 13.9821 17.891 14.5302 17.7247 15.0989L16.6541 15.511C16.3525 15.6271 16.1535 15.9169 16.1535 16.2401V18.5965C16.1535 18.9197 16.3525 19.2095 16.6541 19.3256L17.7244 19.7376C17.8909 20.3065 18.1181 20.8548 18.4033 21.3753L17.9375 22.4241C17.8062 22.7195 17.8705 23.0651 18.099 23.2937L19.7653 24.9599C19.9941 25.1885 20.3397 25.2527 20.635 25.1214ZM19.9445 20.9182C19.5725 20.3144 19.3009 19.6591 19.1372 18.9708C19.0775 18.7202 18.8982 18.515 18.6578 18.4226L17.716 18.0601V16.7765L18.658 16.4139C18.8983 16.3214 19.0777 16.1163 19.1374 15.8656C19.3011 15.1775 19.5727 14.5225 19.9446 13.9186C20.0797 13.6991 20.0979 13.4272 19.9933 13.1918L19.5833 12.2685L20.4909 11.3608L21.4144 11.771C21.65 11.8755 21.9217 11.8573 22.1411 11.7222C22.7451 11.3503 23.4002 11.0787 24.0881 10.9149C24.3386 10.8553 24.5437 10.676 24.6362 10.4356L24.9988 9.49346H26.2824L26.645 10.4356C26.7375 10.676 26.9425 10.8553 27.1931 10.9149C27.881 11.0786 28.5361 11.3503 29.1401 11.7222C29.3594 11.8572 29.6314 11.8755 29.8668 11.7709L30.7903 11.3607L31.6979 12.2684L31.288 13.1915C31.1834 13.427 31.2016 13.6989 31.3368 13.9183C31.7088 14.5222 31.9803 15.1773 32.1441 15.8656C32.2038 16.1162 32.3831 16.3214 32.6235 16.4139L33.5653 16.7764V18.06L32.6232 18.4226C32.3828 18.515 32.2035 18.7202 32.1438 18.9708C31.9801 19.6586 31.7086 20.3137 31.3367 20.9178C31.2016 21.1372 31.1834 21.409 31.288 21.6444L31.6981 22.568L30.7905 23.4756L29.8674 23.0656C29.6318 22.961 29.3599 22.9793 29.1406 23.1145C28.5367 23.4864 27.8815 23.758 27.1932 23.9218C26.9426 23.9814 26.7375 24.1607 26.645 24.4012L26.2825 25.343H24.9988L24.6362 24.4009C24.5437 24.1605 24.3386 23.9812 24.088 23.9215C23.4002 23.7578 22.7452 23.4862 22.1411 23.1144C21.9216 22.9792 21.6497 22.961 21.4144 23.0656L20.4909 23.4758L19.5832 22.5682L19.9931 21.6451C20.0979 21.4095 20.0797 21.1376 19.9445 20.9182ZM25.6408 23.1886C28.8226 23.1886 31.4111 20.6 31.4111 17.4183C31.4111 14.2365 28.8225 11.648 25.6408 11.648C22.4591 11.648 19.8705 14.2365 19.8705 17.4183C19.8705 20.6 22.459 23.1886 25.6408 23.1886ZM25.6408 13.2104C27.961 13.2104 29.8486 15.098 29.8486 17.4182C29.8486 19.7384 27.961 21.626 25.6408 21.626C23.3206 21.626 21.433 19.7384 21.433 17.4182C21.433 15.0981 23.3206 13.2104 25.6408 13.2104ZM26.4193 18.8419C26.4458 18.8113 26.4686 18.7759 26.457 18.6803C26.4438 18.572 26.4131 18.3181 25.5187 18.1712C23.7638 17.8831 23.4546 16.8643 23.4263 16.2826C23.3823 15.3765 23.9501 14.6094 24.8595 14.3117V14.2611C24.8595 13.8297 25.2093 13.4799 25.6408 13.4799C26.0722 13.4799 26.422 13.8297 26.422 14.2611V14.3014C27.0455 14.5048 27.5614 14.9607 27.8299 15.6002C27.9969 15.9981 27.8099 16.456 27.4121 16.623C27.014 16.79 26.5563 16.6028 26.3893 16.2051C26.1927 15.7369 25.6971 15.7126 25.4354 15.772C25.3264 15.7967 24.9721 15.9011 24.9871 16.2068C24.9966 16.4033 25.2606 16.5454 25.7719 16.6294C27.1329 16.8528 27.8852 17.4795 28.0082 18.492C28.071 19.0092 27.9302 19.4836 27.6011 19.8641C27.3203 20.1889 26.9028 20.4291 26.4221 20.5542V20.5754C26.4221 21.0068 26.0723 21.3566 25.6409 21.3566C25.2094 21.3566 24.8596 21.0068 24.8596 20.5754V20.5401C24.0719 20.3082 23.4768 19.7296 23.2824 18.9493C23.178 18.5307 23.4328 18.1067 23.8514 18.0023C24.2701 17.898 24.6941 18.1527 24.7984 18.5714C24.8969 18.9665 25.3393 19.0963 25.6875 19.0887C26.0349 19.0804 26.3186 18.9582 26.4193 18.8419ZM39.5855 44.0977C39.8307 44.4526 39.7418 44.9393 39.3868 45.1845C35.4535 47.9016 30.8188 49.3741 25.9838 49.4428C25.8657 49.4444 25.7477 49.4453 25.6299 49.4453C21.699 49.4453 17.883 48.5135 14.4543 46.7276L14.9559 47.6256C15.1664 48.0023 15.0316 48.4782 14.655 48.6887C14.2783 48.8992 13.8023 48.7644 13.5919 48.3877L11.656 44.9228C11.5199 44.6791 11.5241 44.3814 11.6671 44.1416C11.81 43.9019 12.0743 43.7544 12.3491 43.7606L16.3178 43.8165C16.7493 43.8226 17.0941 44.1772 17.088 44.6087C17.0818 45.0401 16.725 45.3828 16.2958 45.3788L15.2237 45.3637C22.5519 49.1392 31.6473 48.6317 38.4986 43.8988C38.8538 43.6537 39.3403 43.7427 39.5855 44.0977ZM49.0422 36.1552C49.2594 36.5279 49.1333 37.0063 48.7604 37.2234L45.331 39.2216C45.2095 39.2924 45.0736 39.3278 44.9378 39.3278C44.8039 39.3278 44.6701 39.2935 44.5498 39.2247C44.3076 39.0861 44.1576 38.8288 44.1565 38.5497L44.1407 34.5806C44.1389 34.1491 44.4874 33.798 44.9188 33.7962C45.3474 33.7929 45.7014 34.1429 45.7032 34.5743L45.7079 35.7685C49.606 28.3596 49.1063 19.3523 44.2949 12.3858C44.0497 12.0308 44.1387 11.5442 44.4937 11.299C44.8488 11.0537 45.3353 11.1428 45.5805 11.4979C48.2521 15.3661 49.7234 19.9232 49.8352 24.6768C49.9316 28.7698 49.0141 32.7648 47.1698 36.3417L47.9738 35.8733C48.3465 35.6562 48.8249 35.7824 49.0422 36.1552ZM11.6953 6.39102C11.4501 6.03594 11.5391 5.54942 11.8941 5.3042C15.7959 2.60938 20.3928 1.13741 25.1882 1.04737C29.2317 0.971293 33.1728 1.88311 36.7065 3.69854L36.2508 2.92745C36.0313 2.55596 36.1546 2.07696 36.5259 1.85743C36.8973 1.63789 37.3764 1.76114 37.596 2.13252L39.6154 5.54961C39.7574 5.78985 39.7604 6.0877 39.6233 6.33086C39.4862 6.57393 39.2299 6.72549 38.9508 6.72832L34.9818 6.76856C34.9792 6.76856 34.9764 6.76856 34.9737 6.76856C34.546 6.76856 34.197 6.42403 34.1926 5.99522C34.1883 5.56377 34.5344 5.21045 34.9659 5.20606L36.1902 5.19366C28.8463 1.34825 19.6602 1.83946 12.7821 6.58985C12.4271 6.83506 11.9406 6.7461 11.6953 6.39102ZM6.98591 38.1026C7.23112 38.4576 7.14216 38.9442 6.78718 39.1895C6.65163 39.283 6.49694 39.3279 6.34382 39.3279C6.09577 39.3279 5.85192 39.2102 5.70036 38.9906C2.98034 35.0532 1.50778 30.4135 1.44177 25.5731C1.3863 21.5018 2.32936 17.5454 4.18444 14.0053L3.22956 14.5246C2.85065 14.7308 2.37624 14.5906 2.16999 14.2115C1.96384 13.8325 2.10397 13.3581 2.48307 13.152L5.96989 11.2557C6.21511 11.1223 6.51286 11.13 6.75095 11.2756C6.98903 11.4213 7.13132 11.6829 7.12419 11.9619L7.02311 15.9298C7.01208 16.3611 6.65114 16.6989 6.22223 16.6909C5.79089 16.6799 5.45016 16.3213 5.4611 15.89L5.48649 14.8947C1.74772 22.2112 2.26559 31.2695 6.98591 38.1026ZM41.2677 32.7276L40.3605 32.3784C40.2167 31.8976 40.0243 31.4332 39.7853 30.991L40.1801 30.1021C40.3114 29.8067 40.2471 29.461 40.0186 29.2325L38.5424 27.7564C38.3139 27.5278 37.9683 27.4637 37.6729 27.5947L36.7835 27.9897C36.3414 27.751 35.8772 27.5585 35.3966 27.4147L35.0473 26.5072C35.0184 26.4322 34.9788 26.3637 34.9306 26.3028C35.2887 25.537 35.6733 24.8794 36.0484 24.2384C37.0819 22.4722 38.0581 20.8039 38.0581 17.5885C38.0581 10.7416 32.4877 5.17129 25.6409 5.17129C18.794 5.17129 13.2236 10.7417 13.2236 17.5885C13.2236 20.8039 14.1998 22.4722 15.2333 24.2385C16.3526 26.1514 17.621 28.3195 17.9118 33.2167V35.0814C17.9118 36.283 18.7092 37.3017 19.8026 37.6366V38.8631C19.8026 40.0822 20.6237 41.1126 21.7418 41.4321V42.645C21.7418 44.1184 22.9404 45.3171 24.4138 45.3171H26.8677C28.3411 45.3171 29.5398 44.1184 29.5398 42.645V41.4319C29.7411 41.3742 29.9349 41.2926 30.1178 41.1892C30.4522 41.3473 30.7976 41.4802 31.1522 41.5862L31.5015 42.4938C31.6175 42.7953 31.9074 42.9943 32.2306 42.9943H34.3181C34.6413 42.9943 34.9311 42.7953 35.0472 42.4938L35.3965 41.5865C35.8774 41.4427 36.3417 41.2503 36.7839 41.0113L37.6729 41.4062C37.9683 41.5373 38.3139 41.4731 38.5424 41.2445L40.0186 39.7684C40.2471 39.5398 40.3114 39.1942 40.1801 38.8988L39.7851 38.0095C40.024 37.5673 40.2164 37.1032 40.3601 36.6226L41.2676 36.2732C41.5693 36.1572 41.7682 35.8674 41.7682 35.5441V33.4566C41.7683 33.1335 41.5693 32.8437 41.2677 32.7276ZM14.786 17.5885C14.786 11.6031 19.6554 6.73379 25.6408 6.73379C31.6261 6.73379 36.4955 11.6032 36.4955 17.5885C36.4955 20.3804 35.703 21.7347 34.6998 23.4493C34.2684 24.1864 33.7877 25.0087 33.3499 26.0066H32.2306C31.9075 26.0066 31.6176 26.2057 31.5015 26.5072L31.1521 27.4147C30.6716 27.5585 30.2074 27.751 29.7652 27.9897L28.8758 27.5947C28.5804 27.4636 28.2347 27.5277 28.0062 27.7564L26.53 29.2325C26.3015 29.461 26.2373 29.8066 26.3685 30.1021L26.7634 30.9913C26.5246 31.4335 26.3321 31.8976 26.1883 32.3784L26.1085 32.4092H19.4212C19.0318 27.6366 17.7336 25.4181 16.5816 23.4494C15.5785 21.7347 14.786 20.3804 14.786 17.5885ZM19.4742 35.0814V33.9716H24.7804V35.5442C24.7804 35.8081 24.9144 36.048 25.1272 36.1909H20.5837C19.9719 36.1909 19.4742 35.6933 19.4742 35.0814ZM21.3651 38.8631V37.7534H26.6334C26.6757 37.8395 26.7179 37.9255 26.7636 38.01L26.3688 38.8989C26.2376 39.1943 26.3018 39.5399 26.5303 39.7685L26.7345 39.9727H22.4748C21.8629 39.9727 21.3651 39.475 21.3651 38.8631ZM26.8677 43.7546H24.4138C23.802 43.7546 23.3043 43.2568 23.3043 42.645V41.5352H27.9774V42.6449C27.9773 43.2568 27.4796 43.7546 26.8677 43.7546ZM40.2058 35.0078L39.4284 35.307C39.188 35.3995 39.0087 35.6047 38.949 35.8553C38.8062 36.4553 38.5693 37.0269 38.2448 37.5539C38.1097 37.7733 38.0915 38.0452 38.1961 38.2807L38.5345 39.0429L37.817 39.7604L37.0551 39.422C36.8195 39.3174 36.5477 39.3356 36.3284 39.4708C35.8015 39.7953 35.2299 40.0323 34.6294 40.1752C34.3788 40.2349 34.1737 40.4142 34.0811 40.6546L33.782 41.4317H32.7673L32.468 40.6543C32.3756 40.414 32.1704 40.2346 31.9198 40.1749C31.3197 40.0321 30.7482 39.7952 30.2212 39.4707C30.0018 39.3357 29.7299 39.3175 29.4944 39.4219L28.7321 39.7605L28.0145 39.0429L28.3529 38.2811C28.4575 38.0455 28.4392 37.7736 28.3041 37.5542C27.9797 37.0273 27.7426 36.4558 27.5998 35.8552C27.5401 35.6046 27.3608 35.3994 27.1204 35.3069L26.3432 35.0078V33.9931L27.1206 33.6939C27.361 33.6014 27.5403 33.3963 27.6 33.1456C27.7428 32.5453 27.9799 31.9737 28.3043 31.4468C28.4393 31.2273 28.4576 30.9555 28.353 30.72L28.0145 29.9579L28.7321 29.2403L29.4943 29.5789C29.7299 29.6834 30.0016 29.6652 30.221 29.5302C30.748 29.2057 31.3196 28.9687 31.9197 28.8259C32.1703 28.7662 32.3754 28.5869 32.4678 28.3465L32.7672 27.5689H33.7819L34.0811 28.3464C34.1737 28.5868 34.3788 28.7661 34.6294 28.8258C35.2296 28.9686 35.801 29.2056 36.3281 29.5301C36.5475 29.6651 36.8194 29.6833 37.0548 29.5788L37.817 29.2402L38.5345 29.9578L38.1962 30.7196C38.0916 30.9552 38.1098 31.2271 38.2449 31.4464C38.5694 31.9733 38.8064 32.545 38.9493 33.1455C39.009 33.3961 39.1882 33.6013 39.4287 33.6938L40.2058 33.9929V35.0078ZM33.2744 29.5218C30.5292 29.5218 28.2957 31.7553 28.2957 34.5005C28.2957 37.2457 30.5292 39.4791 33.2744 39.4791C36.0196 39.4791 38.2531 37.2457 38.2531 34.5005C38.2531 31.7552 36.0197 29.5218 33.2744 29.5218ZM33.2744 37.9167C31.3907 37.9167 29.8582 36.3843 29.8582 34.5006C29.8582 32.6168 31.3907 31.0844 33.2744 31.0844C35.1581 31.0844 36.6906 32.6169 36.6906 34.5006C36.6906 36.3842 35.1582 37.9167 33.2744 37.9167Z" fill="url(#paint0_linear_18_277912)"/>
<defs>
<linearGradient id="paint0_linear_18_277912" x1="25.6408" y1="1.04297" x2="25.6408" y2="49.4453" gradientUnits="userSpaceOnUse">
<stop stop-color="#0CBBFF"/>
<stop offset="1" stop-color="#A9E4FC"/>
</linearGradient>
</defs>
</svg>
