<svg width="71" height="71" viewBox="0 0 71 71" fill="none" xmlns="http://www.w3.org/2000/svg">
<g clip-path="url(#clip0_18_351110)">
<path d="M22.416 4.99121H66.166V7.17871H22.416V4.99121Z" fill="white"/>
<path d="M4.91595 4.99121H7.10345V7.17871H4.91595V4.99121Z" fill="white"/>
<path d="M9.29095 4.99121H11.4785V7.17871H9.29095V4.99121Z" fill="white"/>
<path d="M13.666 4.99121H15.8535V7.17871H13.666V4.99121Z" fill="white"/>
<path d="M46.4785 15.9287H53.041V18.1162H46.4785V15.9287Z" fill="white"/>
<path d="M55.2285 15.9287H66.166V18.1162H55.2285V15.9287Z" fill="white"/>
<path d="M46.4785 20.3037H59.6035V22.4912H46.4785V20.3037Z" fill="white"/>
<path d="M61.791 20.3037H66.166V22.4912H61.791V20.3037Z" fill="white"/>
<path d="M46.4785 24.6787H53.041V26.8662H46.4785V24.6787Z" fill="white"/>
<path d="M55.2285 24.6787H66.166V26.8662H55.2285V24.6787Z" fill="white"/>
<path d="M46.4785 29.0537H66.166V31.2412H46.4785V29.0537Z" fill="white"/>
<path d="M46.4785 33.4287H53.041V35.6162H46.4785V33.4287Z" fill="white"/>
<path d="M55.2285 33.4287H66.166V35.6162H55.2285V33.4287Z" fill="white"/>
<path d="M0.540955 0.616211V57.4912H22.9858C23.4996 58.233 24.0779 58.9289 24.714 59.5692L35.541 70.3972L46.369 59.5692C47.005 58.9289 47.5834 58.233 48.0972 57.4912H70.541V0.616211H0.540955ZM44.8213 58.0215L35.541 67.3035L26.2606 58.0215C21.1412 52.8972 21.1433 44.5932 26.2665 39.4721C31.3892 34.351 39.6927 34.351 44.8154 39.4721C49.9386 44.5932 49.9408 52.8972 44.8213 58.0215ZM20.3257 50.3818C19.5475 50.1821 18.7844 49.9295 18.041 49.6251V43.2725H15.8535V48.5826C15.0871 48.142 14.356 47.6432 13.666 47.091V40.6059C13.6654 40.1034 14.0078 39.6654 14.4948 39.5437L22.416 37.5639V34.248L22.7759 34.5225H26.431L26.791 34.248V36.1914C22.6654 39.0336 20.2114 43.7312 20.2349 48.7412C20.2365 49.2892 20.2669 49.8371 20.3257 50.3818ZM26.791 19.21H23.6443C20.4912 19.2068 17.7419 21.3531 16.9798 24.4128L16.6401 25.7725H19.1347V31.7475L20.2285 32.5812V35.856L13.9634 37.4219C12.5028 37.7872 11.4779 39.0999 11.4785 40.6059V45.0135C6.33014 39.1757 5.65616 30.6393 9.82501 24.0661C13.9939 17.493 22.0031 14.4627 29.4783 16.6315C36.9541 18.7998 42.0992 25.6448 42.1035 33.4287C42.1035 33.9035 42.0794 34.3889 42.0324 34.892C37.8924 32.9625 33.1083 32.9742 28.9785 34.9251V32.5812L30.0722 31.7475V22.4912C30.0722 20.6792 28.603 19.21 26.791 19.21ZM19.6816 23.585C20.5382 22.222 22.0357 21.3959 23.6454 21.3975H26.791C27.395 21.3975 27.8847 21.8872 27.8847 22.4912V30.665L25.6972 32.335H23.5204L21.3329 30.665V25.7725H25.7079V23.585H19.6816ZM68.3535 55.3037H49.3618C52.6292 48.4624 50.3819 40.2604 44.0843 36.0397C44.2124 35.1751 44.2819 34.3024 44.291 33.4287C44.3112 23.0504 36.2715 14.4382 25.9162 13.746C15.5608 13.0544 6.44656 20.5195 5.08578 30.8086C3.72501 41.0972 10.585 50.6756 20.7646 52.6996C21.0028 53.5953 21.3227 54.4668 21.7201 55.3037H2.72845V11.5537H68.3535V55.3037ZM68.3535 9.36621H2.72845V2.80371H68.3535V9.36621Z" fill="white"/>
<path d="M35.541 39.9912C30.7083 39.9912 26.791 43.9085 26.791 48.7412C26.791 53.5739 30.7083 57.4912 35.541 57.4912C40.3736 57.4912 44.291 53.5739 44.291 48.7412C44.2856 43.9112 40.371 39.9966 35.541 39.9912ZM35.541 55.3037C31.9168 55.3037 28.9785 52.3653 28.9785 48.7412C28.9785 45.1171 31.9168 42.1787 35.541 42.1787C39.1651 42.1787 42.1035 45.1171 42.1035 48.7412C42.0997 52.3643 39.164 55.3 35.541 55.3037Z" fill="white"/>
<path d="M42.1035 68.4287H59.6035V70.6162H42.1035V68.4287Z" fill="white"/>
<path d="M46.4785 64.0537H55.2285V66.2412H46.4785V64.0537Z" fill="white"/>
<path d="M11.4785 68.4287H28.9785V70.6162H11.4785V68.4287Z" fill="white"/>
<path d="M15.8535 64.0537H24.6035V66.2412H15.8535V64.0537Z" fill="white"/>
</g>
<defs>
<clipPath id="clip0_18_351110">
<rect width="70" height="70" fill="white" transform="translate(0.540955 0.616211)"/>
</clipPath>
</defs>
</svg>
