<svg width="51" height="51" viewBox="0 0 51 51" fill="none" xmlns="http://www.w3.org/2000/svg">
<g clip-path="url(#clip0_18_277970)">
<path d="M27.708 30.1893C34.17 30.1893 39.4272 24.9309 39.4272 18.4673C39.4272 12.0053 34.17 6.74805 27.708 6.74805C21.246 6.74805 15.9888 12.0053 15.9888 18.4673C15.9888 24.9309 21.246 30.1893 27.708 30.1893ZM27.708 8.31221C33.3076 8.31221 37.8632 12.8678 37.8632 18.4674C37.8632 24.0685 33.3076 28.6253 27.708 28.6253C22.1084 28.6253 17.5528 24.0685 17.5528 18.4674C17.5528 12.8678 22.1084 8.31221 27.708 8.31221ZM22.2076 26.826H33.2057C33.6376 26.826 33.9877 26.4759 33.9877 26.0439V23.7325C33.9877 23.3006 33.6376 22.9505 33.2057 22.9505H27.5793V19.875H29.5987C30.0307 19.875 30.3808 19.5249 30.3808 19.093V16.7815C30.3808 16.3496 30.0307 15.9995 29.5987 15.9995H27.5793V14.614C27.5793 13.938 28.0313 13.3669 28.5661 13.3669C29.101 13.3669 29.5529 13.938 29.5529 14.614C29.5529 15.0433 29.899 15.3924 30.3283 15.396L32.6398 15.4154C32.8479 15.4146 33.0489 15.3355 33.1971 15.1887C33.3452 15.0418 33.4284 14.8419 33.4284 14.6334V13.8776C33.4284 11.7994 31.2472 10.1087 28.566 10.1087C25.885 10.1087 23.7037 11.7994 23.7037 13.8776V15.9995H22.2131C21.7812 15.9995 21.4311 16.3496 21.4311 16.7815V19.093C21.4311 19.5249 21.7812 19.875 22.2131 19.875H23.7038V22.9505H22.2076C21.7757 22.9505 21.4256 23.3006 21.4256 23.7325V26.0439C21.4256 26.4759 21.7757 26.826 22.2076 26.826ZM22.9896 24.5146H24.4858C24.9178 24.5146 25.2679 24.1645 25.2679 23.7325V19.093C25.2679 18.661 24.9178 18.3109 24.4858 18.3109H22.9951V17.5635H24.4858C24.9178 17.5635 25.2679 17.2134 25.2679 16.7814V13.8776C25.2679 12.6824 26.7783 11.6728 28.5661 11.6728C30.3377 11.6728 31.8368 12.664 31.8641 13.8448L31.0181 13.8377C30.7116 12.664 29.7284 11.8029 28.5661 11.8029C27.1596 11.8029 26.0152 13.064 26.0152 14.6141V16.7815C26.0152 17.2135 26.3653 17.5636 26.7973 17.5636H28.8167V18.311H26.7973C26.3653 18.311 26.0152 18.6611 26.0152 19.0931V23.7326C26.0152 24.1646 26.3653 24.5146 26.7973 24.5146H32.4236V25.262H22.9896V24.5146ZM35.8201 32.3377C34.8535 32.0022 33.8174 32.0628 32.9033 32.5071L25.6749 36.0098C25.6734 34.859 25.1512 33.7343 24.1857 32.9905C22.6799 31.828 21.1733 30.6655 19.6669 29.503C18.246 28.4066 16.8252 27.3103 15.405 26.214C15.2681 26.1083 15.1 26.051 14.9271 26.051H8.43438V24.7457C8.43438 24.3138 8.08428 23.9637 7.65234 23.9637H1.26885C0.836914 23.9637 0.486816 24.3138 0.486816 24.7457V40.4109C0.486816 40.8429 0.836914 41.193 1.26885 41.193H7.65234C8.08428 41.193 8.43438 40.8429 8.43438 40.4109V39.6187C9.19775 40.0196 9.91563 40.399 10.5734 40.7466C16.0433 43.6374 18.7888 45.0884 21.5687 45.1786C21.6611 45.1816 21.7534 45.1831 21.8455 45.1831C24.5386 45.1831 27.1142 43.9018 32.0824 41.4303C33.2988 40.8251 34.6775 40.1393 36.235 39.3843C37.1512 38.9397 37.8403 38.1626 38.1757 37.1962C38.5111 36.2294 38.4508 35.193 38.0067 34.2794C37.5635 33.3627 36.787 32.6731 35.8201 32.3377ZM2.05088 39.6289V25.5276H6.87031V38.3373V38.3398V39.629H2.05088V39.6289ZM36.6981 36.6836C36.4997 37.2555 36.0928 37.7149 35.5525 37.9771C33.9882 38.7354 32.6057 39.4232 31.3858 40.03C26.4827 42.4691 24.0195 43.6925 21.6194 43.6154C19.2004 43.5369 16.5616 42.1423 11.3043 39.3638C10.4404 38.9072 9.47461 38.3968 8.43438 37.8527V27.6149H14.6604C16.0104 28.657 17.3609 29.6991 18.7114 30.7412C20.2179 31.9036 21.7243 33.0661 23.2306 34.229C24.0813 34.8845 24.3491 36.0937 23.8583 37.0486C23.7958 37.1699 23.7234 37.2862 23.6398 37.3946C22.8794 38.3797 21.4592 38.5623 20.4734 37.8016L14.7405 33.3779C14.3986 33.1141 13.9075 33.1773 13.6437 33.5193C13.3799 33.8612 13.4432 34.3523 13.7852 34.6162L19.5179 39.0397C20.212 39.5756 21.0334 39.8349 21.849 39.8349C22.9935 39.8349 24.1264 39.324 24.8782 38.3501C24.9581 38.2464 25.0307 38.1378 25.0993 38.0269L33.5863 33.9143C34.1252 33.6522 34.7363 33.6172 35.3075 33.8154C35.8791 34.0137 36.3376 34.4203 36.5994 34.9619C36.8613 35.5006 36.8964 36.1121 36.6981 36.6836ZM50.3911 27.9872L45.2588 18.5532C45.122 18.3016 44.8583 18.1449 44.5719 18.1449C44.2854 18.1449 44.0218 18.3016 43.885 18.5532L38.7526 27.9872C38.6208 28.2295 38.6264 28.5233 38.7673 28.7604C38.9082 28.9976 39.1637 29.143 39.4396 29.143H41.2984V41.2912C41.2984 41.7231 41.6485 42.0732 42.0805 42.0732H47.0632C47.4951 42.0732 47.8452 41.7231 47.8452 41.2912V29.143H49.7041C49.98 29.143 50.2354 28.9977 50.3764 28.7604C50.5174 28.5233 50.523 28.2295 50.3911 27.9872ZM47.0633 27.5789C46.6314 27.5789 46.2812 27.929 46.2812 28.3609V40.5092H42.8625V28.3609C42.8625 27.929 42.5124 27.5789 42.0805 27.5789H40.7553L44.5719 20.5633L48.3885 27.5789H47.0633Z" fill="url(#paint0_linear_18_277970)"/>
</g>
<defs>
<linearGradient id="paint0_linear_18_277970" x1="25.4865" y1="6.74805" x2="25.4865" y2="45.1831" gradientUnits="userSpaceOnUse">
<stop stop-color="#0CBBFF"/>
<stop offset="1" stop-color="#A9E4FC"/>
</linearGradient>
<clipPath id="clip0_18_277970">
<rect width="50" height="50" fill="white" transform="translate(0.486572 0.964844)"/>
</clipPath>
</defs>
</svg>
