<svg width="40" height="40" viewBox="0 0 40 40" fill="none" xmlns="http://www.w3.org/2000/svg">
<g clip-path="url(#clip0_18_351213)">
<path d="M38.7488 14.5929H35.8078C35.4442 13.5304 34.9732 12.5052 34.4028 11.5362L35.6226 8.78969C35.7275 8.55344 35.6762 8.27695 35.4934 8.09406L31.9047 4.50547C31.7218 4.32266 31.4455 4.27141 31.2091 4.37625L28.4615 5.59648C27.1262 4.81023 25.6952 4.21688 24.1987 3.82914L23.1196 1.02547C23.0266 0.784219 22.7948 0.625 22.5362 0.625H17.4613C17.2027 0.625 16.9709 0.784219 16.878 1.02547L15.7988 3.82914C14.3024 4.21688 12.8712 4.81023 11.536 5.59648L8.78847 4.37625C8.55206 4.27125 8.27573 4.32266 8.09284 4.50547L4.50425 8.09414C4.32144 8.27703 4.27011 8.55352 4.37503 8.78977L5.59511 11.537C5.0248 12.5059 4.55378 13.5309 4.19042 14.5929H1.24878C0.903623 14.5929 0.623779 14.8727 0.623779 15.2179V24.782C0.623779 25.1271 0.903623 25.407 1.24878 25.407H4.1898C4.55331 26.4695 5.02425 27.4947 5.59479 28.4638L4.37495 31.2103C4.27003 31.4466 4.32136 31.723 4.50417 31.9059L8.09284 35.4945C8.27573 35.6773 8.55214 35.7286 8.78847 35.6237L11.536 34.4035C12.8713 35.1898 14.3025 35.7831 15.7988 36.1708L16.8779 38.9745C16.9707 39.2158 17.2026 39.375 17.4612 39.375H22.5362C22.7948 39.375 23.0266 39.2158 23.1195 38.9745L24.1984 36.1716C25.6957 35.7838 27.1272 35.1902 28.4625 34.4039L31.209 35.6237C31.4452 35.7288 31.7217 35.6773 31.9046 35.4945L35.4933 31.9059C35.6761 31.723 35.7275 31.4465 35.6225 31.2102L34.4022 28.4627C34.9726 27.4937 35.4435 26.4689 35.8069 25.407H38.7488C39.0939 25.407 39.3738 25.1271 39.3738 24.782V15.2179C39.3738 14.8727 39.0939 14.5929 38.7488 14.5929ZM5.55979 15.5335C5.73339 15.4077 5.91151 15.282 6.09659 15.1516C7.65706 14.0515 9.42573 12.8046 9.42573 10.4361V8.22648C10.7017 8.51227 11.6582 9.65391 11.6582 11.0146V13.2194C11.6002 13.559 11.3648 14.108 10.8753 14.5979C10.6627 14.8106 10.6318 15.1446 10.8017 15.3928C11.2112 15.9906 11.3502 16.5443 11.2266 17.0855C10.9867 18.1365 9.80081 18.9162 9.30206 19.2026C9.00276 19.3745 8.89948 19.7566 9.07136 20.0559C9.24323 20.3551 9.62526 20.4584 9.92464 20.2866C10.1903 20.134 10.5215 19.9221 10.8576 19.6531C11.0122 20.0277 11.2766 20.3459 11.6109 20.5666C11.4073 20.8806 11.2889 21.2549 11.2889 21.6562C11.2889 22.192 11.4997 22.6795 11.8428 23.0399C11.4997 23.4004 11.2889 23.8879 11.2889 24.4236C11.2889 24.748 11.3664 25.0609 11.5118 25.342C8.7419 25.8099 7.17581 25.9364 5.55979 24.5081V15.5335ZM13.2975 25.1821C13.0964 25.1821 12.9064 25.1028 12.7623 24.9588C12.6182 24.8148 12.5389 24.6247 12.5389 24.4235C12.5389 24.0052 12.8792 23.6648 13.2976 23.6648H13.2996H15.5307H15.5312C15.9495 23.6648 16.2898 24.0052 16.2898 24.4235C16.2898 24.6246 16.2104 24.8148 16.0664 24.9588C15.9225 25.1028 15.7325 25.1821 15.5313 25.1821H13.2975ZM13.2975 22.4148C12.8792 22.4148 12.539 22.0745 12.539 21.6562C12.539 21.2379 12.8793 20.8976 13.2977 20.8976H16.3565C16.7748 20.8976 17.1151 21.2378 17.1151 21.6562C17.1151 22.0745 16.7748 22.4148 16.3565 22.4148H13.2975ZM12.7147 19.6476C12.2964 19.6476 11.956 19.3073 11.956 18.889C11.956 18.4706 12.2964 18.1302 12.7147 18.1302H17.3274C17.7457 18.1302 18.086 18.4706 18.0861 18.8889C18.086 19.3072 17.7457 19.6476 17.3274 19.6476H12.7147ZM16.7445 16.8802H13.2976C12.8793 16.8802 12.5389 16.54 12.5389 16.1216C12.5389 15.9205 12.6183 15.7304 12.7623 15.5863C12.9063 15.4423 13.0963 15.363 13.2975 15.363H16.7446C17.1628 15.363 17.5032 15.7033 17.5032 16.1216C17.5032 16.54 17.1628 16.8802 16.7445 16.8802ZM15.5311 26.4321H15.5314C16.0663 26.4321 16.5703 26.2227 16.9503 25.8426C17.3304 25.4625 17.5398 24.9585 17.5398 24.4235C17.5398 24.066 17.4459 23.73 17.2814 23.4388C17.9247 23.1036 18.365 22.4303 18.365 21.6562C18.365 21.3213 18.2825 21.0051 18.137 20.7271C18.8425 20.4152 19.336 19.7086 19.3361 18.8889C19.336 18.1887 18.976 17.5711 18.4311 17.2114C18.6348 16.8973 18.7532 16.523 18.7532 16.1216C18.7532 15.0141 17.8521 14.113 16.7446 14.113H14.2564C15.781 12.6299 17.843 11.7741 19.9987 11.7741C22.1544 11.7741 24.2166 12.6298 25.7411 14.113H23.2529C22.1453 14.113 21.2443 15.0141 21.2443 16.1216C21.2443 16.523 21.3627 16.8973 21.5663 17.2113C21.0215 17.571 20.6614 18.1888 20.6614 18.889C20.6614 19.7086 21.1549 20.4152 21.8604 20.7271C21.7149 21.0051 21.6324 21.3212 21.6324 21.6562C21.6324 22.4303 22.0726 23.1036 22.716 23.4388C22.5516 23.73 22.4576 24.0659 22.4576 24.4235C22.4576 24.9585 22.667 25.4625 23.0471 25.8427C23.4272 26.2227 23.9311 26.4321 24.466 26.4321H24.4663H25.1251C23.6792 27.5844 21.8759 28.2257 19.9986 28.2257C18.1215 28.2257 16.3182 27.5844 14.8722 26.4321H15.5311ZM26.7 25.1821H24.4663C24.2652 25.1821 24.0751 25.1028 23.931 24.9588C23.787 24.8147 23.7077 24.6247 23.7077 24.4235C23.7077 24.0052 24.0479 23.6648 24.4663 23.6648H24.4668H26.698H26.7C26.901 23.6648 27.0912 23.7442 27.2353 23.8882C27.3793 24.0322 27.4585 24.2223 27.4585 24.4235C27.4585 24.6246 27.3792 24.8148 27.2352 24.9588C27.0912 25.1028 26.9011 25.1821 26.7 25.1821ZM23.641 20.8976H26.7C27.1182 20.8976 27.4586 21.2379 27.4586 21.6561C27.4586 22.0745 27.1184 22.4148 26.7001 22.4148H23.6411C23.2228 22.4148 22.8825 22.0745 22.8825 21.6562C22.8825 21.2378 23.2227 20.8976 23.641 20.8976ZM27.2828 19.6476H22.6701C22.2518 19.6476 21.9114 19.3073 21.9114 18.889C21.9114 18.4706 22.2517 18.1302 22.6701 18.1302H27.2828C27.7011 18.1302 28.0415 18.4705 28.0415 18.889C28.0415 19.3073 27.7011 19.6476 27.2828 19.6476ZM26.7 15.363C26.9011 15.363 27.0912 15.4423 27.2353 15.5863C27.3792 15.7304 27.4585 15.9204 27.4585 16.1216C27.4585 16.5399 27.1183 16.8802 26.7 16.8802H23.253C22.8347 16.8802 22.4944 16.54 22.4944 16.1216C22.4944 15.7033 22.8346 15.363 23.253 15.363H26.7ZM28.1542 23.0403C28.4975 22.6798 28.7085 22.1921 28.7086 21.6561C28.7085 21.2547 28.5902 20.8805 28.3866 20.5665C28.721 20.3458 28.9853 20.0276 29.1399 19.653C29.476 19.922 29.8073 20.1339 30.0728 20.2865C30.3722 20.4583 30.7542 20.3549 30.9261 20.0558C31.098 19.7565 30.9947 19.3744 30.6954 19.2025C30.1967 18.9161 29.0109 18.1364 28.7709 17.0855C28.6473 16.5442 28.7862 15.9905 29.1957 15.3927C29.3657 15.1445 29.3347 14.8105 29.1222 14.5978C28.6328 14.108 28.3975 13.5589 28.3394 13.2193V11.0145C28.3394 9.65383 29.2958 8.51219 30.5717 8.22641V10.436C30.5717 12.8045 32.3405 14.0514 33.901 15.1515C34.086 15.282 34.2642 15.4075 34.4378 15.5334V24.5072C32.6739 26.0541 30.8408 25.7369 28.541 25.3389C28.5246 25.3361 28.5078 25.3332 28.4914 25.3304C28.633 25.0524 28.7085 24.7437 28.7085 24.4236C28.7086 23.9052 28.5121 23.4161 28.1542 23.0403ZM8.67323 5.69281L11.3259 6.87094C11.5141 6.95461 11.7317 6.94008 11.9072 6.83195C13.304 5.97187 14.8189 5.34375 16.41 4.96508C16.6103 4.91742 16.7745 4.77398 16.8485 4.58164L17.8904 1.875H22.1071L23.1489 4.58172C23.2229 4.77406 23.3871 4.9175 23.5875 4.96516C25.1785 5.34383 26.6935 5.97195 28.0902 6.83203C28.2657 6.94016 28.4833 6.95469 28.6715 6.87102L31.3242 5.69289L34.306 8.67453L33.1282 11.3262C33.0446 11.5145 33.0592 11.732 33.1673 11.9076C33.5414 12.5149 33.8709 13.1482 34.1569 13.8003C32.9025 12.8979 31.8217 11.9697 31.8217 10.4361V7.53266C31.8217 7.1875 31.5418 6.90766 31.1967 6.90766C28.9319 6.90766 27.0893 8.75008 27.0893 11.0146V13.2668C27.0893 13.2953 27.0913 13.3238 27.0952 13.3522C27.1162 13.5045 27.1578 13.6798 27.2214 13.8684C25.4296 11.7624 22.7821 10.5242 19.9988 10.5242C17.2154 10.5242 14.568 11.7623 12.7761 13.8684C12.8398 13.6797 12.8814 13.5045 12.9024 13.3522C12.9063 13.3239 12.9082 13.2953 12.9082 13.2668V11.0146C12.9082 8.75008 11.0657 6.90766 8.80081 6.90766C8.45565 6.90766 8.17581 7.1875 8.17581 7.53266V10.4361C8.17581 11.9693 7.09558 12.8975 5.84151 13.7997C6.12737 13.1481 6.45675 12.5153 6.8305 11.9083C6.93862 11.7327 6.95315 11.5152 6.86956 11.3269L5.69159 8.67453L8.67323 5.69281ZM1.87378 15.8429H4.30979V24.157H1.87378V15.8429ZM31.3242 34.3072L28.6726 33.1295C28.4844 33.0458 28.2668 33.0604 28.0912 33.1685C26.6946 34.0287 25.1793 34.6568 23.5874 35.0355C23.3869 35.0832 23.2228 35.2266 23.1488 35.419L22.1071 38.125H17.8904L16.8485 35.4183C16.7746 35.2259 16.6104 35.0825 16.41 35.0348C14.8191 34.6562 13.3042 34.0282 11.9073 33.168C11.7318 33.0599 11.5142 33.0455 11.326 33.1291L8.67331 34.3072L5.69159 31.3255L6.86933 28.6739C6.95292 28.4855 6.93839 28.268 6.83026 28.0925C6.46487 27.4992 6.14183 26.8812 5.86042 26.2451C6.74948 26.7292 7.67042 26.9054 8.68901 26.9054C9.81925 26.9054 11.0697 26.6886 12.5292 26.4354L12.846 26.3806C12.9043 26.3941 12.9633 26.405 13.023 26.4132C14.8164 28.3629 17.3437 29.4759 19.9988 29.4759C22.6539 29.4759 25.1812 28.3629 26.9746 26.4132C27.037 26.4047 27.0986 26.3931 27.1596 26.3789C27.5534 26.4373 27.9466 26.5049 28.328 26.5709C29.297 26.7385 30.2793 26.9085 31.256 26.9085C32.23 26.9085 33.1985 26.739 34.1428 26.2302C33.86 26.8712 33.535 27.4938 33.1669 28.0916C33.0589 28.267 33.0443 28.4845 33.1279 28.6729L34.306 31.3255L31.3242 34.3072ZM38.1238 24.157H35.6878V15.8429H38.1238V24.157Z" fill="url(#paint0_linear_18_351213)"/>
</g>
<defs>
<linearGradient id="paint0_linear_18_351213" x1="19.9988" y1="0.625" x2="19.9988" y2="39.375" gradientUnits="userSpaceOnUse">
<stop stop-color="#0CBBFF"/>
<stop offset="1" stop-color="#A9E4FC"/>
</linearGradient>
<clipPath id="clip0_18_351213">
<rect width="40" height="40" fill="white" transform="translate(-0.0012207)"/>
</clipPath>
</defs>
</svg>
