<svg width="41" height="41" viewBox="0 0 41 41" fill="none" xmlns="http://www.w3.org/2000/svg">
<path d="M15.7683 37.2581V39.0809C15.7683 39.3335 15.973 39.5383 16.2257 39.5383C16.4783 39.5383 16.683 39.3336 16.683 39.0809V37.2581C16.683 37.0055 16.4783 36.8008 16.2257 36.8008C15.973 36.8008 15.7683 37.0055 15.7683 37.2581Z" fill="url(#paint0_linear_18_277845)"/>
<path d="M12.9184 35.6984L11.6294 36.9875C11.4507 37.1662 11.4507 37.4555 11.6294 37.6341C11.808 37.8128 12.0974 37.8128 12.276 37.6341L13.5651 36.3451C13.7437 36.1664 13.7437 35.877 13.5651 35.6984C13.3864 35.5198 13.0971 35.5198 12.9184 35.6984Z" fill="url(#paint1_linear_18_277845)"/>
<path d="M18.8862 35.6985C18.7075 35.8771 18.7075 36.1665 18.8862 36.3451L20.1753 37.6342C20.3539 37.8128 20.6433 37.8128 20.8219 37.6342C21.0006 37.4555 21.0006 37.1661 20.8219 36.9875L19.5328 35.6985C19.3542 35.5198 19.0649 35.5198 18.8862 35.6985Z" fill="url(#paint2_linear_18_277845)"/>
<path d="M36.9283 9.90266H36.4418C36.3137 9.46734 36.1381 9.04656 35.9222 8.64781L36.2625 8.30391C36.6466 7.91977 36.6466 7.29781 36.2661 6.91734L34.9893 5.6368C34.6198 5.26727 33.9722 5.26727 33.6028 5.6368L33.2552 5.98438C32.86 5.76852 32.4393 5.59289 32.0004 5.46117V4.97828C32.0004 4.4368 31.5613 3.99414 31.0199 3.99414H29.2162C28.6747 3.99414 28.2321 4.4368 28.2321 4.97828V5.46484C27.7967 5.59289 27.3797 5.76852 26.9772 5.98438L26.6333 5.6368C26.2638 5.26727 25.6163 5.26727 25.2468 5.64047L23.9698 6.91734C23.5857 7.29781 23.5857 7.91977 23.9698 8.30391L24.3137 8.64781C24.0979 9.04664 23.9259 9.46734 23.7942 9.90266H23.3076C22.7661 9.90266 22.3235 10.3417 22.3235 10.8831V12.6905C22.3235 13.2283 22.7661 13.6709 23.3076 13.6709H23.7942C23.9222 14.1063 24.0979 14.527 24.3137 14.9258L23.9698 15.2697C23.5893 15.6538 23.5893 16.2758 23.9698 16.6599L25.2466 17.933C25.6271 18.3172 26.249 18.3172 26.6332 17.933L26.9771 17.5891C27.3758 17.805 27.7966 17.9806 28.2319 18.1087V18.5989C28.2319 19.1367 28.6746 19.5757 29.2161 19.5757H31.0197C31.5612 19.5757 32.0002 19.1367 32.0002 18.5989V18.1123C32.4356 17.9806 32.8563 17.8087 33.2587 17.5891L33.6026 17.933C33.9831 18.3172 34.605 18.3172 34.9892 17.933L36.266 16.6599C36.6465 16.2758 36.6465 15.6538 36.2623 15.2697L35.9221 14.9258C36.1379 14.527 36.3136 14.1062 36.4416 13.6709H36.9282C37.4697 13.6709 37.9086 13.2283 37.9086 12.6905V10.8831C37.9089 10.3417 37.4698 9.90266 36.9283 9.90266ZM36.9942 12.6905C36.9942 12.727 36.9649 12.7563 36.9283 12.7563H36.0905C35.8783 12.7563 35.6917 12.899 35.6442 13.1075C35.5051 13.6929 35.2747 14.249 34.96 14.7612C34.8503 14.9405 34.8759 15.1746 35.0259 15.3246L35.6186 15.9173C35.6442 15.9429 35.6442 15.9868 35.6186 16.0124L34.3418 17.2892C34.3161 17.3148 34.2759 17.3148 34.2503 17.2892L33.6576 16.6966C33.5076 16.5466 33.2772 16.5209 33.0942 16.6307C32.7649 16.832 32.4173 16.9929 32.0588 17.1246V15.9173C33.4929 15.1892 34.4075 13.7185 34.4075 12.0868C34.4075 10.3234 33.3027 8.71359 31.6564 8.08437C31.5173 8.02945 31.36 8.04781 31.2357 8.13195C31.1113 8.21977 31.0381 8.35875 31.0381 8.50875V11.827C31.0381 11.8527 31.0088 11.8783 30.9832 11.8783H29.249C29.2197 11.8783 29.1978 11.8563 29.1978 11.827V8.50875C29.1978 8.35875 29.1246 8.21977 29.0002 8.13195C28.8758 8.04781 28.7185 8.02953 28.5758 8.08437C26.9332 8.71359 25.8283 10.3234 25.8283 12.0868C25.8283 13.7185 26.7392 15.1892 28.177 15.9173V17.1246C27.8148 16.9929 27.4672 16.8283 27.1453 16.627C26.9587 16.5136 26.7282 16.5466 26.5783 16.6929L25.9856 17.2892C25.96 17.3148 25.9197 17.3148 25.8941 17.2892L24.6172 16.0124C24.5916 15.9868 24.5916 15.9429 24.6172 15.9173L25.21 15.3246C25.36 15.1746 25.3856 14.9405 25.2758 14.7612C24.9575 14.249 24.7271 13.6929 24.5917 13.1075C24.5404 12.899 24.3575 12.7563 24.1454 12.7563H23.3075C23.271 12.7563 23.238 12.727 23.238 12.6905V10.8831C23.238 10.8466 23.2709 10.8173 23.3075 10.8173H24.1454C24.3575 10.8173 24.5405 10.6746 24.588 10.4661C24.7307 9.8807 24.9611 9.32461 25.2758 8.80875C25.3856 8.62945 25.3563 8.39898 25.21 8.24898L24.6172 7.65633C24.5953 7.63438 24.5953 7.5868 24.6172 7.56117L25.8941 6.28437C25.9161 6.26242 25.9636 6.26242 25.9856 6.28437L26.5783 6.8807C26.7283 7.02703 26.9624 7.05633 27.1417 6.94656C27.6539 6.62828 28.21 6.39781 28.7954 6.26242C29.0002 6.21117 29.1465 6.02828 29.1465 5.81609V4.97828C29.1465 4.94172 29.1758 4.90875 29.2161 4.90875H31.0197C31.0563 4.90875 31.0856 4.94164 31.0856 4.97828V5.81242C31.0856 6.02461 31.2319 6.20758 31.4368 6.25875C32.0258 6.39781 32.5819 6.63195 33.0904 6.94289C33.2697 7.05633 33.5039 7.0307 33.6539 6.8807L34.2502 6.28437C34.2722 6.26242 34.3197 6.26242 34.3417 6.28437L35.6185 7.56484C35.6404 7.5868 35.6404 7.63438 35.6185 7.65633L35.0258 8.24898C34.8758 8.39898 34.8502 8.62945 34.96 8.81242C35.2746 9.32461 35.5051 9.8807 35.6441 10.4661C35.6917 10.6709 35.8783 10.8173 36.0904 10.8173H36.9283C36.9648 10.8173 36.9941 10.8466 36.9941 10.8831V12.6905H36.9942Z" fill="url(#paint3_linear_18_277845)"/>
<path d="M19.9235 17.0994V15.5116C19.9235 14.6152 19.1918 13.8835 18.2955 13.8835H16.8028V2.49445C16.8028 2.24203 16.5979 2.03711 16.3454 2.03711C16.0929 2.03711 15.8881 2.24203 15.8881 2.49445V13.8835H14.1576C13.2576 13.8835 12.5259 14.6152 12.5259 15.5116V17.1103C7.28693 18.7055 3.56982 23.553 3.56982 29.2091V29.253C3.56982 29.5091 3.77467 29.7103 4.02717 29.7103H11.2601C11.4943 32.2494 13.6272 34.2469 16.2247 34.2469C18.8223 34.2469 20.9589 32.2493 21.1894 29.7103H28.4223C28.6747 29.7103 28.8797 29.5091 28.8797 29.253V29.2091C28.8796 23.5055 25.104 18.6762 19.9235 17.0994ZM16.2247 17.4688C19.9308 17.4688 23.304 19.1737 25.5065 22.0237H6.94303C9.16373 19.1591 12.5735 17.4688 16.2247 17.4688ZM6.30647 22.9384H26.1467C26.6882 23.7981 26.9954 24.4566 27.2954 25.3018H5.15764C5.45037 24.4677 5.77232 23.7798 6.30647 22.9384ZM4.49178 28.7957C4.521 27.9213 4.65639 27.0579 4.87592 26.2164H27.5772C27.7967 27.0579 27.9284 27.9213 27.9576 28.7957H4.49178Z" fill="url(#paint4_linear_18_277845)"/>
<defs>
<linearGradient id="paint0_linear_18_277845" x1="16.2257" y1="36.8008" x2="16.2257" y2="39.5383" gradientUnits="userSpaceOnUse">
<stop stop-color="#0CBBFF"/>
<stop offset="1" stop-color="#A9E4FC"/>
</linearGradient>
<linearGradient id="paint1_linear_18_277845" x1="12.5972" y1="35.5645" x2="12.5972" y2="37.7681" gradientUnits="userSpaceOnUse">
<stop stop-color="#0CBBFF"/>
<stop offset="1" stop-color="#A9E4FC"/>
</linearGradient>
<linearGradient id="paint2_linear_18_277845" x1="19.8541" y1="35.5645" x2="19.8541" y2="37.7682" gradientUnits="userSpaceOnUse">
<stop stop-color="#0CBBFF"/>
<stop offset="1" stop-color="#A9E4FC"/>
</linearGradient>
<linearGradient id="paint3_linear_18_277845" x1="30.1161" y1="3.99414" x2="30.1161" y2="19.5757" gradientUnits="userSpaceOnUse">
<stop stop-color="#0CBBFF"/>
<stop offset="1" stop-color="#A9E4FC"/>
</linearGradient>
<linearGradient id="paint4_linear_18_277845" x1="16.2247" y1="2.03711" x2="16.2247" y2="34.2469" gradientUnits="userSpaceOnUse">
<stop stop-color="#0CBBFF"/>
<stop offset="1" stop-color="#A9E4FC"/>
</linearGradient>
</defs>
</svg>
