<svg width="60" height="61" viewBox="0 0 60 61" fill="none" xmlns="http://www.w3.org/2000/svg">
<path d="M37.0528 58.2416H46.2397C46.7574 58.2416 47.1772 57.8218 47.1772 57.3041V54.3071L56.077 42.8081C56.5362 42.2148 56.7893 41.4751 56.7893 40.7243V23.0235C56.7893 21.1462 55.2622 19.6191 53.3849 19.6191C51.5081 19.6191 49.981 21.1462 49.981 23.0235V34.9007C49.1341 34.9048 48.2996 35.2042 47.661 35.8432L42.6852 40.8191C42.6513 40.853 42.6156 40.885 42.5794 40.9143L38.4041 44.2889C36.9494 45.464 36.1153 47.2108 36.1153 49.0808V57.3041C36.1153 57.8218 36.5351 58.2416 37.0528 58.2416ZM37.9903 49.0808C37.9903 47.7798 38.5708 46.5649 39.5824 45.7474L43.7586 42.3718C43.847 42.3004 43.9312 42.2244 44.0108 42.1448L48.9867 37.1689C49.5118 36.6434 50.3673 36.6434 50.8933 37.1689C51.1478 37.4234 51.2884 37.7621 51.2884 38.1224C51.2884 38.4822 51.1478 38.821 50.8933 39.0755L46.3427 43.6266C45.9765 43.9928 45.9765 44.586 46.3427 44.9522C46.7089 45.3185 47.3022 45.3185 47.6684 44.9522L52.219 40.4016C52.8278 39.7928 53.1634 38.9835 53.1634 38.1224C53.1634 37.2614 52.8278 36.452 52.219 35.8432C52.1041 35.7283 51.9828 35.6239 51.856 35.5301V23.0235C51.856 22.1803 52.5417 21.4941 53.3849 21.4941C54.2281 21.4941 54.9143 22.1803 54.9143 23.0235V40.7243C54.9143 41.0617 54.8008 41.394 54.5943 41.66L45.4981 53.4126C45.3713 53.577 45.3022 53.7788 45.3022 53.9867V56.3666H37.9903V49.0808Z" fill="url(#paint0_linear_18_351307)"/>
<path d="M12.8229 54.3071V57.3041C12.8229 57.8218 13.2427 58.2416 13.7604 58.2416H22.9473C23.465 58.2416 23.8848 57.8218 23.8848 57.3041V49.0808C23.8848 47.2108 23.0508 45.464 21.596 44.2889L17.4216 40.9152C17.3846 40.885 17.3488 40.853 17.315 40.8191L12.3391 35.8432C11.7005 35.2042 10.8404 34.9007 10.0191 34.9007V23.0235C10.0191 21.1462 8.49203 19.6191 6.6152 19.6191C4.73792 19.6191 3.21082 21.1462 3.21082 23.0235V40.7243C3.21082 41.4751 3.46396 42.2148 3.92264 42.8081L12.8229 54.3071ZM5.08582 23.0235C5.08582 22.1803 5.772 21.4941 6.6152 21.4941C7.4584 21.4941 8.14413 22.1803 8.14413 23.0235V35.5301C8.01733 35.6239 7.89603 35.7283 7.78113 35.8432C7.1723 36.452 6.83676 37.2614 6.83676 38.1224C6.83676 38.9835 7.1723 39.7928 7.78113 40.4012L12.3318 44.9522C12.698 45.3185 13.2912 45.3185 13.6574 44.9522C14.0237 44.586 14.0237 43.9928 13.6574 43.6266L9.10681 39.075C8.85229 38.821 8.71176 38.4822 8.71176 38.1224C8.71176 37.7621 8.85229 37.4234 9.10681 37.1689C9.63232 36.6434 10.4879 36.6434 11.0134 37.1689L15.9893 42.1448C16.0689 42.2244 16.1532 42.3004 16.2424 42.3727L20.4177 45.7474C21.4294 46.5649 22.0098 47.7798 22.0098 49.0808V56.3666H14.6979V53.9867C14.6979 53.7788 14.6288 53.577 14.502 53.4126L5.40533 41.66C5.19934 41.394 5.08582 41.0617 5.08582 40.7243V23.0235Z" fill="url(#paint1_linear_18_351307)"/>
<path d="M19.4303 35.5101C22.2661 37.8827 25.7218 39.6661 29.7016 40.8106C29.7863 40.8348 29.8733 40.8472 29.9607 40.8472C30.0481 40.8472 30.1356 40.8348 30.2202 40.8106C34.1941 39.6652 37.6465 37.8818 40.4838 35.5087C45.2111 31.534 47.9224 25.5524 47.9224 19.097V5.98664C47.9224 5.71839 47.8075 5.46296 47.607 5.28535C47.4065 5.10774 47.1419 5.02396 46.8728 5.05601C35.956 6.37528 30.5988 2.2403 30.5489 2.20048C30.2083 1.92582 29.719 1.92582 29.3757 2.19773C29.323 2.23985 23.9603 6.37391 13.039 5.05601C12.7703 5.02305 12.5052 5.10774 12.3047 5.28535C12.1042 5.46296 11.9893 5.71839 11.9893 5.98664V19.097C11.9893 25.5524 14.7007 31.5344 19.4303 35.5101ZM13.8643 7.02988C23.0077 7.89185 28.2775 5.15214 29.9602 4.07319C31.6421 5.15305 36.9063 7.88819 46.0474 7.02988V19.097C46.0474 24.9976 43.5796 30.4559 39.2789 34.0718C36.7063 36.2238 33.5724 37.8584 29.9602 38.9328C26.343 37.8593 23.2064 36.2247 20.6351 34.0732C16.3322 30.4564 13.8643 24.9976 13.8643 19.097V7.02988Z" fill="url(#paint2_linear_18_351307)"/>
<path d="M28.175 24.0121C28.3581 24.1952 28.5979 24.2868 28.8378 24.2868C29.0777 24.2868 29.3175 24.1952 29.5006 24.0121L34.9769 18.5359C35.3431 18.1697 35.3431 17.5764 34.9769 17.2102C34.6107 16.844 34.0174 16.844 33.6512 17.2102L28.8378 22.0236L26.2633 19.4491C25.8971 19.0829 25.3039 19.0829 24.9377 19.4491C24.5714 19.8153 24.5714 20.4086 24.9377 20.7748L28.175 24.0121Z" fill="url(#paint3_linear_18_351307)"/>
<path d="M30.0014 30.7661C35.6013 30.7661 40.1574 26.2104 40.1574 20.6106C40.1574 15.0107 35.6013 10.4551 30.0014 10.4551C24.4016 10.4551 19.8459 15.0107 19.8459 20.6106C19.8459 26.2104 24.4016 30.7661 30.0014 30.7661ZM30.0014 12.3301C34.5676 12.3301 38.2824 16.0448 38.2824 20.6106C38.2824 25.1763 34.5676 28.8911 30.0014 28.8911C25.4357 28.8911 21.7209 25.1763 21.7209 20.6106C21.7209 16.0448 25.4357 12.3301 30.0014 12.3301Z" fill="url(#paint4_linear_18_351307)"/>
<defs>
<linearGradient id="paint0_linear_18_351307" x1="46.4523" y1="19.6191" x2="46.4523" y2="58.2416" gradientUnits="userSpaceOnUse">
<stop stop-color="#0CBBFF"/>
<stop offset="1" stop-color="#A9E4FC"/>
</linearGradient>
<linearGradient id="paint1_linear_18_351307" x1="13.5478" y1="19.6191" x2="13.5478" y2="58.2416" gradientUnits="userSpaceOnUse">
<stop stop-color="#0CBBFF"/>
<stop offset="1" stop-color="#A9E4FC"/>
</linearGradient>
<linearGradient id="paint2_linear_18_351307" x1="29.9559" y1="1.99414" x2="29.9559" y2="40.8472" gradientUnits="userSpaceOnUse">
<stop stop-color="#0CBBFF"/>
<stop offset="1" stop-color="#A9E4FC"/>
</linearGradient>
<linearGradient id="paint3_linear_18_351307" x1="29.9573" y1="16.9355" x2="29.9573" y2="24.2868" gradientUnits="userSpaceOnUse">
<stop stop-color="#0CBBFF"/>
<stop offset="1" stop-color="#A9E4FC"/>
</linearGradient>
<linearGradient id="paint4_linear_18_351307" x1="30.0017" y1="10.4551" x2="30.0017" y2="30.7661" gradientUnits="userSpaceOnUse">
<stop stop-color="#0CBBFF"/>
<stop offset="1" stop-color="#A9E4FC"/>
</linearGradient>
</defs>
</svg>
