<svg width="51" height="51" viewBox="0 0 51 51" fill="none" xmlns="http://www.w3.org/2000/svg">
<g clip-path="url(#clip0_18_277923)">
<path d="M27.9135 11.3596H31.2104L29.5578 13.7513L24.661 20.8294V13.6737H21.5745L25.8734 5.74023H30.8782L27.9135 11.3596Z" stroke="url(#paint0_linear_18_277923)" stroke-width="2" stroke-miterlimit="10" stroke-linecap="round" stroke-linejoin="round"/>
<path d="M38.3191 24.4297H22.5905M17.7546 24.4297H14.4688" stroke="url(#paint1_linear_18_277923)" stroke-width="2" stroke-miterlimit="10" stroke-linecap="round" stroke-linejoin="round"/>
<path d="M27.0141 33.4727H14.4661V37.9931H27.0141V33.4727Z" stroke="url(#paint2_linear_18_277923)" stroke-width="2" stroke-miterlimit="10" stroke-linecap="round" stroke-linejoin="round"/>
<path d="M32.0381 36.357L38.474 33.4727L44.91 36.357V41.6138C44.91 45.492 41.0317 48.0221 38.474 49.2677C35.9162 48.022 32.0381 45.4919 32.0381 41.6138V36.357Z" stroke="url(#paint3_linear_18_277923)" stroke-width="2" stroke-miterlimit="10" stroke-linecap="round" stroke-linejoin="round"/>
<path d="M32.1267 42.5133H10.405V1.2207H42.38V35.2247" stroke="url(#paint4_linear_18_277923)" stroke-width="2" stroke-miterlimit="10" stroke-linecap="round" stroke-linejoin="round"/>
<path d="M36.2429 41.7963L37.7903 43.1084L40.7051 39.6289" stroke="url(#paint5_linear_18_277923)" stroke-width="2" stroke-miterlimit="10" stroke-linecap="round" stroke-linejoin="round"/>
<path d="M34.4188 46.5492H6.37183V5.25391H10.405" stroke="url(#paint6_linear_18_277923)" stroke-width="2" stroke-miterlimit="10" stroke-linecap="round" stroke-linejoin="round"/>
<path d="M14.4688 28.9512H30.1946M35.0306 28.9512H38.3191" stroke="url(#paint7_linear_18_277923)" stroke-width="2" stroke-miterlimit="10" stroke-linecap="round" stroke-linejoin="round"/>
</g>
<defs>
<linearGradient id="paint0_linear_18_277923" x1="26.3924" y1="5.74023" x2="26.3924" y2="20.8294" gradientUnits="userSpaceOnUse">
<stop stop-color="#0CBBFF"/>
<stop offset="1" stop-color="#A9E4FC"/>
</linearGradient>
<linearGradient id="paint1_linear_18_277923" x1="26.3939" y1="24.4297" x2="26.3939" y2="25.4297" gradientUnits="userSpaceOnUse">
<stop stop-color="#0CBBFF"/>
<stop offset="1" stop-color="#A9E4FC"/>
</linearGradient>
<linearGradient id="paint2_linear_18_277923" x1="20.7401" y1="33.4727" x2="20.7401" y2="37.9931" gradientUnits="userSpaceOnUse">
<stop stop-color="#0CBBFF"/>
<stop offset="1" stop-color="#A9E4FC"/>
</linearGradient>
<linearGradient id="paint3_linear_18_277923" x1="38.474" y1="33.4727" x2="38.474" y2="49.2677" gradientUnits="userSpaceOnUse">
<stop stop-color="#0CBBFF"/>
<stop offset="1" stop-color="#A9E4FC"/>
</linearGradient>
<linearGradient id="paint4_linear_18_277923" x1="26.3925" y1="1.2207" x2="26.3925" y2="42.5133" gradientUnits="userSpaceOnUse">
<stop stop-color="#0CBBFF"/>
<stop offset="1" stop-color="#A9E4FC"/>
</linearGradient>
<linearGradient id="paint5_linear_18_277923" x1="38.474" y1="39.6289" x2="38.474" y2="43.1084" gradientUnits="userSpaceOnUse">
<stop stop-color="#0CBBFF"/>
<stop offset="1" stop-color="#A9E4FC"/>
</linearGradient>
<linearGradient id="paint6_linear_18_277923" x1="20.3953" y1="5.25391" x2="20.3953" y2="46.5492" gradientUnits="userSpaceOnUse">
<stop stop-color="#0CBBFF"/>
<stop offset="1" stop-color="#A9E4FC"/>
</linearGradient>
<linearGradient id="paint7_linear_18_277923" x1="26.3939" y1="28.9512" x2="26.3939" y2="29.9512" gradientUnits="userSpaceOnUse">
<stop stop-color="#0CBBFF"/>
<stop offset="1" stop-color="#A9E4FC"/>
</linearGradient>
<clipPath id="clip0_18_277923">
<rect width="50" height="50" fill="white" transform="translate(0.640869 0.244141)"/>
</clipPath>
</defs>
</svg>
