<svg width="75" height="76" viewBox="0 0 75 76" fill="none" xmlns="http://www.w3.org/2000/svg">
<path d="M72.6562 66.9375H69.1406V16.5469C69.1406 16.2361 69.0172 15.938 68.7974 15.7183C68.5776 15.4985 68.2795 15.375 67.9688 15.375H66.7969V2.4844C66.7969 2.29727 66.7521 2.11286 66.6662 1.9466C66.5803 1.78034 66.4559 1.63706 66.3033 1.52875C66.1507 1.42044 65.9744 1.35024 65.7891 1.32404C65.6038 1.29784 65.4149 1.31639 65.2383 1.37815L41.8008 9.58127C41.5713 9.66148 41.3725 9.81104 41.2319 10.0092C41.0912 10.2074 41.0156 10.4445 41.0156 10.6875V15.375H39.8438C39.5329 15.375 39.2349 15.4985 39.0151 15.7183C38.7953 15.938 38.6719 16.2361 38.6719 16.5469V22.4063H36.3281V14.2031C36.3281 13.8923 36.2047 13.5943 35.9849 13.3745C35.7651 13.1547 35.4671 13.0313 35.1562 13.0313H33.9844V8.34377C33.9844 8.03297 33.8609 7.7349 33.6411 7.51513C33.4214 7.29536 33.1233 7.1719 32.8125 7.1719H9.375C9.0642 7.1719 8.76613 7.29536 8.54636 7.51513C8.32659 7.7349 8.20312 8.03297 8.20312 8.34377V13.0313H7.03125C6.72045 13.0313 6.42238 13.1547 6.20261 13.3745C5.98284 13.5943 5.85938 13.8923 5.85938 14.2031V66.9375H2.34375C2.03295 66.9375 1.73488 67.061 1.51511 67.2808C1.29534 67.5005 1.17188 67.7986 1.17188 68.1094V72.7969C1.17188 73.1077 1.29534 73.4058 1.51511 73.6255C1.73488 73.8453 2.03295 73.9688 2.34375 73.9688H72.6562C72.967 73.9688 73.2651 73.8453 73.4849 73.6255C73.7047 73.4058 73.8281 73.1077 73.8281 72.7969V68.1094C73.8281 67.7986 73.7047 67.5005 73.4849 67.2808C73.2651 67.061 72.967 66.9375 72.6562 66.9375ZM43.3594 11.5196L64.4531 4.13674V15.375H43.3594V11.5196ZM41.0156 17.7188H66.7969V66.9375H64.4531V58.7344C64.4531 58.4236 64.3297 58.1255 64.1099 57.9058C63.8901 57.686 63.5921 57.5625 63.2812 57.5625H51.5625V23.5781C51.5625 23.2673 51.439 22.9693 51.2193 22.7495C50.9995 22.5297 50.7014 22.4063 50.3906 22.4063H41.0156V17.7188ZM42.1875 66.9375H32.8125V57.5625H42.1875V66.9375ZM43.3594 55.2188H31.6406C31.3298 55.2188 31.0318 55.3422 30.812 55.562C30.5922 55.7818 30.4688 56.0798 30.4688 56.3906V66.9375H25.7812V24.75H49.2188V66.9375H44.5312V56.3906C44.5312 56.0798 44.4078 55.7818 44.188 55.562C43.9682 55.3422 43.6702 55.2188 43.3594 55.2188ZM23.4375 66.9375H12.8906V57.5625H23.4375V66.9375ZM51.5625 59.9063H62.1094V66.9375H51.5625V59.9063ZM10.5469 9.51565H31.6406V13.0313H10.5469V9.51565ZM8.20312 15.375H33.9844V22.4063H24.6094C24.2986 22.4063 24.0005 22.5297 23.7807 22.7495C23.561 22.9693 23.4375 23.2673 23.4375 23.5781V55.2188H11.7188C11.4079 55.2188 11.1099 55.3422 10.8901 55.562C10.6703 55.7818 10.5469 56.0798 10.5469 56.3906V66.9375H8.20312V15.375ZM71.4844 71.625H3.51562V69.2813H71.4844V71.625Z" fill="#01B8FF"/>
<path d="M35.1562 27.0938H30.4688C30.1579 27.0938 29.8599 27.2172 29.6401 27.437C29.4203 27.6568 29.2969 27.9548 29.2969 28.2656V32.9531C29.2969 33.2639 29.4203 33.562 29.6401 33.7818C29.8599 34.0015 30.1579 34.125 30.4688 34.125H35.1562C35.4671 34.125 35.7651 34.0015 35.9849 33.7818C36.2047 33.562 36.3281 33.2639 36.3281 32.9531V28.2656C36.3281 27.9548 36.2047 27.6568 35.9849 27.437C35.7651 27.2172 35.4671 27.0938 35.1562 27.0938ZM33.9844 31.7812H31.6406V29.4375H33.9844V31.7812Z" fill="#01B8FF"/>
<path d="M39.8438 34.125H44.5312C44.8421 34.125 45.1401 34.0015 45.3599 33.7818C45.5797 33.562 45.7031 33.2639 45.7031 32.9531V28.2656C45.7031 27.9548 45.5797 27.6568 45.3599 27.437C45.1401 27.2172 44.8421 27.0938 44.5312 27.0938H39.8438C39.5329 27.0938 39.2349 27.2172 39.0151 27.437C38.7953 27.6568 38.6719 27.9548 38.6719 28.2656V32.9531C38.6719 33.2639 38.7953 33.562 39.0151 33.7818C39.2349 34.0015 39.5329 34.125 39.8438 34.125ZM41.0156 29.4375H43.3594V31.7812H41.0156V29.4375Z" fill="#01B8FF"/>
<path d="M35.1562 36.4688H30.4688C30.1579 36.4688 29.8599 36.5922 29.6401 36.812C29.4203 37.0318 29.2969 37.3298 29.2969 37.6406V42.3281C29.2969 42.6389 29.4203 42.937 29.6401 43.1568C29.8599 43.3765 30.1579 43.5 30.4688 43.5H35.1562C35.4671 43.5 35.7651 43.3765 35.9849 43.1568C36.2047 42.937 36.3281 42.6389 36.3281 42.3281V37.6406C36.3281 37.3298 36.2047 37.0318 35.9849 36.812C35.7651 36.5922 35.4671 36.4688 35.1562 36.4688ZM33.9844 41.1562H31.6406V38.8125H33.9844V41.1562Z" fill="#01B8FF"/>
<path d="M14.0625 24.75H18.75C19.0608 24.75 19.3589 24.6265 19.5786 24.4068C19.7984 24.187 19.9219 23.8889 19.9219 23.5781V18.8906C19.9219 18.5798 19.7984 18.2818 19.5786 18.062C19.3589 17.8422 19.0608 17.7188 18.75 17.7188H14.0625C13.7517 17.7188 13.4536 17.8422 13.2339 18.062C13.0141 18.2818 12.8906 18.5798 12.8906 18.8906V23.5781C12.8906 23.8889 13.0141 24.187 13.2339 24.4068C13.4536 24.6265 13.7517 24.75 14.0625 24.75ZM15.2344 20.0625H17.5781V22.4062H15.2344V20.0625Z" fill="#01B8FF"/>
<path d="M14.0625 34.125H18.75C19.0608 34.125 19.3589 34.0015 19.5786 33.7818C19.7984 33.562 19.9219 33.2639 19.9219 32.9531V28.2656C19.9219 27.9548 19.7984 27.6568 19.5786 27.437C19.3589 27.2172 19.0608 27.0938 18.75 27.0938H14.0625C13.7517 27.0938 13.4536 27.2172 13.2339 27.437C13.0141 27.6568 12.8906 27.9548 12.8906 28.2656V32.9531C12.8906 33.2639 13.0141 33.562 13.2339 33.7818C13.4536 34.0015 13.7517 34.125 14.0625 34.125ZM15.2344 29.4375H17.5781V31.7812H15.2344V29.4375Z" fill="#01B8FF"/>
<path d="M14.0625 43.5H18.75C19.0608 43.5 19.3589 43.3765 19.5786 43.1568C19.7984 42.937 19.9219 42.6389 19.9219 42.3281V37.6406C19.9219 37.3298 19.7984 37.0318 19.5786 36.812C19.3589 36.5922 19.0608 36.4688 18.75 36.4688H14.0625C13.7517 36.4688 13.4536 36.5922 13.2339 36.812C13.0141 37.0318 12.8906 37.3298 12.8906 37.6406V42.3281C12.8906 42.6389 13.0141 42.937 13.2339 43.1568C13.4536 43.3765 13.7517 43.5 14.0625 43.5ZM15.2344 38.8125H17.5781V41.1562H15.2344V38.8125Z" fill="#01B8FF"/>
<path d="M14.0625 52.875H18.75C19.0608 52.875 19.3589 52.7515 19.5786 52.5318C19.7984 52.312 19.9219 52.0139 19.9219 51.7031V47.0156C19.9219 46.7048 19.7984 46.4068 19.5786 46.187C19.3589 45.9672 19.0608 45.8438 18.75 45.8438H14.0625C13.7517 45.8438 13.4536 45.9672 13.2339 46.187C13.0141 46.4068 12.8906 46.7048 12.8906 47.0156V51.7031C12.8906 52.0139 13.0141 52.312 13.2339 52.5318C13.4536 52.7515 13.7517 52.875 14.0625 52.875ZM15.2344 48.1875H17.5781V50.5312H15.2344V48.1875Z" fill="#01B8FF"/>
<path d="M39.8438 43.5H44.5312C44.8421 43.5 45.1401 43.3765 45.3599 43.1568C45.5797 42.937 45.7031 42.6389 45.7031 42.3281V37.6406C45.7031 37.3298 45.5797 37.0318 45.3599 36.812C45.1401 36.5922 44.8421 36.4688 44.5312 36.4688H39.8438C39.5329 36.4688 39.2349 36.5922 39.0151 36.812C38.7953 37.0318 38.6719 37.3298 38.6719 37.6406V42.3281C38.6719 42.6389 38.7953 42.937 39.0151 43.1568C39.2349 43.3765 39.5329 43.5 39.8438 43.5ZM41.0156 38.8125H43.3594V41.1562H41.0156V38.8125Z" fill="#01B8FF"/>
<path d="M35.1562 45.8438H30.4688C30.1579 45.8438 29.8599 45.9672 29.6401 46.187C29.4203 46.4068 29.2969 46.7048 29.2969 47.0156V51.7031C29.2969 52.0139 29.4203 52.312 29.6401 52.5318C29.8599 52.7515 30.1579 52.875 30.4688 52.875H35.1562C35.4671 52.875 35.7651 52.7515 35.9849 52.5318C36.2047 52.312 36.3281 52.0139 36.3281 51.7031V47.0156C36.3281 46.7048 36.2047 46.4068 35.9849 46.187C35.7651 45.9672 35.4671 45.8438 35.1562 45.8438ZM33.9844 50.5312H31.6406V48.1875H33.9844V50.5312Z" fill="#01B8FF"/>
<path d="M45.7031 51.7031V47.0156C45.7031 46.7048 45.5797 46.4068 45.3599 46.187C45.1401 45.9672 44.8421 45.8438 44.5312 45.8438H39.8438C39.5329 45.8438 39.2349 45.9672 39.0151 46.187C38.7953 46.4068 38.6719 46.7048 38.6719 47.0156V51.7031C38.6719 52.0139 38.7953 52.312 39.0151 52.5318C39.2349 52.7515 39.5329 52.875 39.8438 52.875H44.5312C44.8421 52.875 45.1401 52.7515 45.3599 52.5318C45.5797 52.312 45.7031 52.0139 45.7031 51.7031ZM43.3594 50.5312H41.0156V48.1875H43.3594V50.5312Z" fill="#01B8FF"/>
<path d="M56.25 27.0938H60.9375C61.2483 27.0938 61.5464 26.9703 61.7661 26.7505C61.9859 26.5307 62.1094 26.2327 62.1094 25.9219V21.2344C62.1094 20.9236 61.9859 20.6255 61.7661 20.4057C61.5464 20.186 61.2483 20.0625 60.9375 20.0625H56.25C55.9392 20.0625 55.6411 20.186 55.4214 20.4057C55.2016 20.6255 55.0781 20.9236 55.0781 21.2344V25.9219C55.0781 26.2327 55.2016 26.5307 55.4214 26.7505C55.6411 26.9703 55.9392 27.0938 56.25 27.0938ZM57.4219 22.4062H59.7656V24.75H57.4219V22.4062Z" fill="#01B8FF"/>
<path d="M56.25 36.4688H60.9375C61.2483 36.4688 61.5464 36.3453 61.7661 36.1255C61.9859 35.9057 62.1094 35.6077 62.1094 35.2969V30.6094C62.1094 30.2986 61.9859 30.0005 61.7661 29.7807C61.5464 29.561 61.2483 29.4375 60.9375 29.4375H56.25C55.9392 29.4375 55.6411 29.561 55.4214 29.7807C55.2016 30.0005 55.0781 30.2986 55.0781 30.6094V35.2969C55.0781 35.6077 55.2016 35.9057 55.4214 36.1255C55.6411 36.3453 55.9392 36.4688 56.25 36.4688ZM57.4219 31.7812H59.7656V34.125H57.4219V31.7812Z" fill="#01B8FF"/>
<path d="M56.25 45.8438H60.9375C61.2483 45.8438 61.5464 45.7203 61.7661 45.5005C61.9859 45.2807 62.1094 44.9827 62.1094 44.6719V39.9844C62.1094 39.6736 61.9859 39.3755 61.7661 39.1557C61.5464 38.936 61.2483 38.8125 60.9375 38.8125H56.25C55.9392 38.8125 55.6411 38.936 55.4214 39.1557C55.2016 39.3755 55.0781 39.6736 55.0781 39.9844V44.6719C55.0781 44.9827 55.2016 45.2807 55.4214 45.5005C55.6411 45.7203 55.9392 45.8438 56.25 45.8438ZM57.4219 41.1562H59.7656V43.5H57.4219V41.1562Z" fill="#01B8FF"/>
<path d="M56.25 55.2188H60.9375C61.2483 55.2188 61.5464 55.0953 61.7661 54.8755C61.9859 54.6557 62.1094 54.3577 62.1094 54.0469V49.3594C62.1094 49.0486 61.9859 48.7505 61.7661 48.5307C61.5464 48.311 61.2483 48.1875 60.9375 48.1875H56.25C55.9392 48.1875 55.6411 48.311 55.4214 48.5307C55.2016 48.7505 55.0781 49.0486 55.0781 49.3594V54.0469C55.0781 54.3577 55.2016 54.6557 55.4214 54.8755C55.6411 55.0953 55.9392 55.2188 56.25 55.2188ZM57.4219 50.5312H59.7656V52.875H57.4219V50.5312Z" fill="#01B8FF"/>
</svg>
