<svg width="51" height="51" viewBox="0 0 51 51" fill="none" xmlns="http://www.w3.org/2000/svg">
<path d="M17.9915 8.08279C17.6316 8.02598 17.2636 7.99429 16.8883 7.99429C13.0128 7.99429 9.8525 11.1497 9.8525 15.0237C9.8525 17.5368 11.1834 19.7493 13.1759 20.9941C12.1043 21.4333 11.1524 22.1502 10.4293 23.0921C9.17228 24.7294 8.75346 26.86 9.29824 28.8512C8.58178 29.6204 8.02977 30.5747 7.73691 31.667C6.81063 35.1221 8.81378 38.6816 12.2077 39.7232C12.2314 39.9829 12.2715 40.2422 12.3329 40.5014C12.8521 42.6987 14.6722 44.3355 16.8785 44.6531C16.8697 45.2073 16.9621 45.7694 17.1608 46.3147C17.9374 48.4473 20.1435 49.7252 22.3793 49.3312C23.6853 49.101 24.7887 48.3383 25.4799 47.2912C26.1711 48.3382 27.2731 49.101 28.579 49.3312C30.8148 49.7252 33.0269 48.4473 33.8036 46.3147C34.0023 45.7694 34.0938 45.2073 34.0859 44.6531C36.2915 44.3355 38.1062 42.6987 38.6253 40.5014C38.6865 40.2432 38.7275 39.9849 38.7505 39.7263C42.1482 38.6872 44.1483 35.1243 43.2214 31.667C42.9284 30.574 42.3765 29.6192 41.6497 28.8473L41.6763 28.8535C42.2107 26.86 41.7858 24.7293 40.5288 23.0921C40.1203 22.56 39.6386 22.1009 39.1037 21.7219C41.1906 20.9486 42.6864 18.9354 42.6864 16.5876C42.6457 13.4111 40.0425 11.063 37.094 11.1222C36.3409 6.25731 32.1233 2.52735 27.0514 2.52734C23.2117 2.52734 19.715 4.69336 17.9915 8.08279ZM35.62 11.9675C35.6289 12.075 35.6584 12.1766 35.7054 12.2665C35.8421 12.5932 36.1905 12.7958 36.5552 12.735C36.7619 12.7012 36.994 12.6831 37.2114 12.6831C39.3795 12.6831 41.1222 14.4213 41.1222 16.5876C41.1222 18.7539 39.3795 20.4967 37.2114 20.4967H30.6745L30.885 20.042C31.0386 19.7074 30.9373 19.3104 30.6423 19.0899L27.8683 17.0087L28.6068 9.63758C28.6585 9.14553 28.2463 8.73012 27.7538 8.77855C27.5215 8.80276 27.3106 8.92997 27.1816 9.12491L20.9301 18.5025C20.722 18.8112 20.7615 19.2234 21.0231 19.4882L22.0333 20.4967H16.888C13.8565 20.4967 11.4147 18.0529 11.4147 15.0237C11.4147 11.9945 13.8565 9.55671 16.888 9.55671C17.3997 9.54874 17.8107 9.6388 18.2964 9.74138C19.0735 9.94798 19.7808 10.3204 20.3822 10.8201C20.7149 11.0962 21.2087 11.0498 21.4839 10.7164C21.76 10.3837 21.7136 9.88993 21.3803 9.61474C20.8301 9.15762 20.2078 8.78516 19.534 8.51159C20.5641 6.54916 23.3411 4.11306 27.0491 4.09131C31.6471 4.06444 35.2566 7.55334 35.62 11.9675ZM28.047 7.18104C29.9178 7.74475 31.3475 9.03756 32.1196 10.6355C32.3074 11.0241 32.7747 11.1867 33.1633 10.9986C33.552 10.8108 33.7145 10.3435 33.5265 9.95495C32.5684 7.97228 30.7906 6.37836 28.4971 5.68728C28.0287 5.55074 27.629 5.84634 27.5221 6.20757C27.3969 6.62171 27.6322 7.05752 28.047 7.18104ZM4.38521 6.44401V8.00643H2.82728C2.39567 8.00792 2.0474 8.35909 2.04908 8.7907C2.05055 9.22005 2.39792 9.56738 2.82728 9.56886H4.38521V11.1313C4.38669 11.5606 4.73405 11.9095 5.16341 11.911C5.59504 11.9127 5.94621 11.5629 5.94772 11.1313V9.56886H7.52242C7.95178 9.56737 8.29915 9.22005 8.30062 8.7907C8.30234 8.35909 7.95403 8.00792 7.52242 8.00643H5.94772V6.44401C5.94621 6.01241 5.59504 5.66263 5.16341 5.66433C4.73405 5.6658 4.38669 6.01466 4.38521 6.44401ZM45.0255 6.44401V8.00643H43.4508C43.0191 8.00792 42.6708 8.35909 42.6726 8.7907C42.674 9.22005 43.0214 9.56738 43.4508 9.56886H45.0255V11.1313C45.0269 11.5629 45.3781 11.9127 45.8098 11.911C46.2391 11.9095 46.588 11.5606 46.5895 11.1313V9.56886H48.1398C48.5714 9.57056 48.9226 9.2223 48.9241 8.7907C48.9258 8.35684 48.5737 8.00472 48.1398 8.00643H46.5895V6.44401C46.588 6.01466 46.2391 5.6658 45.8098 5.66433C45.3781 5.66262 45.0269 6.01241 45.0255 6.44401ZM23.6021 22.0606L23.9531 22.4115L24.7084 29.949C24.7872 30.7424 25.8642 30.9212 26.1961 30.1962L29.9528 22.0606H35.2568C36.8372 22.0606 38.3262 22.7911 39.2882 24.0441C40.1033 25.1059 40.4602 26.4362 40.3014 27.7457C38.7972 26.815 36.9273 26.4813 35.0889 26.9737C34.6714 27.0847 34.423 27.5131 34.5351 27.9303C34.6487 28.3456 35.0777 28.5905 35.4933 28.4781C38.213 27.7498 40.9872 29.3536 41.7158 32.0714C42.3956 34.6071 41.0446 37.186 38.6519 38.112C38.3378 36.6294 37.4147 35.3038 36.0411 34.5111C35.6684 34.2949 35.1913 34.4211 34.9745 34.7934C34.7584 35.1661 34.8844 35.6432 35.2568 35.86C36.7543 36.7241 37.505 38.4627 37.1077 40.1444C36.7309 41.7392 35.4103 42.913 33.8026 43.1182C33.4361 42.1071 32.7242 41.2215 31.7381 40.6525C31.3639 40.4372 30.8863 40.5664 30.6715 40.9409C30.4563 41.3151 30.5853 41.7926 30.96 42.0074C32.2788 42.7684 32.854 44.3494 32.3333 45.7792C31.8126 47.2091 30.3495 48.0561 28.8497 47.7918C27.3499 47.5274 26.2649 46.2342 26.2649 44.7127C26.259 44.2106 25.8369 43.9212 25.476 43.933C25.0285 43.9274 24.6931 44.281 24.6917 44.7127C24.6917 46.2342 23.6066 47.5274 22.1069 47.7917C20.6071 48.056 19.1455 47.2091 18.6248 45.7792C18.1041 44.3493 18.6839 42.7684 20.0027 42.0074C20.375 41.7906 20.5012 41.3135 20.2849 40.9409C20.07 40.5664 19.5926 40.4372 19.2183 40.6525C18.2323 41.2215 17.5219 42.1071 17.1569 43.1182C15.5506 42.9119 14.2314 41.7382 13.8549 40.1444C13.4575 38.4627 14.2021 36.7241 15.6997 35.86C16.0741 35.6451 16.2033 35.1676 15.9882 34.7934C15.8848 34.6145 15.7147 34.4841 15.5151 34.4303C15.3143 34.3771 15.1009 34.4064 14.9216 34.5112C13.5484 35.3035 12.6223 36.6284 12.3062 38.1105C9.91628 37.1829 8.56743 34.6054 9.2468 32.0713C9.97543 29.3536 12.7496 27.7497 15.4694 28.4781C15.8849 28.5905 16.314 28.3456 16.4276 27.9303C16.5395 27.513 16.2912 27.0847 15.8737 26.9736C14.0346 26.4811 12.1627 26.8156 10.6567 27.7472C10.4973 26.4371 10.8545 25.1062 11.6699 24.0441C12.6318 22.7911 14.1194 22.0606 15.6997 22.0606L23.6021 22.0606ZM17.2804 32.3765C16.9832 34.6326 18.3601 36.7719 20.5092 37.4575C20.5874 37.7384 20.7017 38.0121 20.851 38.2707C21.4787 39.3573 22.6461 40.0239 23.9012 40.0239C24.3306 40.0225 24.678 39.6751 24.6794 39.2457C24.6812 38.8141 24.3329 38.4613 23.9012 38.4599C23.2015 38.4599 22.5557 38.0919 22.2059 37.4865C21.8562 36.8811 21.8562 36.1358 22.2059 35.5304C22.4212 35.1562 22.2919 34.6787 21.9175 34.4638C21.7388 34.3626 21.5268 34.3357 21.3285 34.3891C21.1268 34.4415 20.9556 34.5721 20.8509 34.7522C20.669 35.0671 20.5398 35.4044 20.4633 35.7501C19.3273 35.1499 18.6517 33.9015 18.826 32.578C19.0321 31.0135 20.3549 29.8559 21.9343 29.8559C22.3682 29.8577 22.7204 29.5056 22.7185 29.0717C22.7172 28.64 22.3659 28.2917 21.9343 28.2935C19.5835 28.2935 17.5873 30.0466 17.2804 32.3765ZM28.2439 29.0717C28.2421 29.5033 28.5904 29.8545 29.0221 29.8559C30.6014 29.8559 31.9242 31.0135 32.1303 32.5779C32.3048 33.9033 31.6321 35.1539 30.4945 35.7531C30.418 35.4064 30.2893 35.0681 30.107 34.7522C30.0036 34.5733 29.8335 34.4429 29.6339 34.3891C29.4337 34.3342 29.219 34.3607 29.0388 34.4638C28.6644 34.6787 28.5352 35.1562 28.7503 35.5304C29.1001 36.1358 29.1001 36.8811 28.7503 37.4865C28.4006 38.0919 27.7609 38.4599 27.0612 38.4599C26.6273 38.4581 26.2751 38.8118 26.2769 39.2457C26.2783 39.6774 26.6295 40.0257 27.0612 40.0239C28.3163 40.0239 29.4792 39.3573 30.1069 38.2707C30.2557 38.013 30.3688 37.7404 30.4471 37.4605C32.5999 36.7772 33.9795 34.6348 33.682 32.3765C33.3751 30.0466 31.3728 28.2935 29.022 28.2935C28.5926 28.2949 28.2452 28.6423 28.2439 29.0717ZM9.06202 42.3705C8.63042 42.3688 8.27922 42.7171 8.27774 43.1487V43.933H7.49954C7.06791 43.9313 6.71671 44.2795 6.71523 44.7111C6.71352 45.145 7.06566 45.4986 7.49954 45.4969H8.27774V46.2751C8.27603 46.7089 8.62814 47.0611 9.06202 47.0593C9.49365 47.0579 9.84193 46.7067 9.84022 46.2751V45.4969H10.6245C11.0562 45.4954 11.4059 45.1427 11.4043 44.7111C11.4028 44.2818 11.0539 43.9344 10.6245 43.933H9.84022V43.1487C9.83874 42.7194 9.49141 42.372 9.06202 42.3705ZM41.9111 42.3705C41.4818 42.372 41.1132 42.723 41.1117 43.1523V43.9366L40.3274 43.9367C39.898 43.9382 39.5507 44.2855 39.5492 44.7148C39.5475 45.1464 39.8958 45.4991 40.3274 45.5006L41.1117 45.4992V46.2773C41.11 46.7089 41.4583 47.0601 41.8899 47.0616C42.3238 47.0633 42.6759 46.7112 42.6742 46.2773V45.4991L43.4752 45.4969C43.9091 45.4986 44.2612 45.145 44.2595 44.7111C44.258 44.2795 43.9068 43.9313 43.4752 43.933L42.6742 43.9336V43.1493C42.6727 42.7177 42.3428 42.3688 41.9111 42.3705Z" fill="url(#paint0_linear_18_277947)"/>
<defs>
<linearGradient id="paint0_linear_18_277947" x1="25.4866" y1="2.52734" x2="25.4866" y2="49.4022" gradientUnits="userSpaceOnUse">
<stop stop-color="#0CBBFF"/>
<stop offset="1" stop-color="#A9E4FC"/>
</linearGradient>
</defs>
</svg>
