<svg width="51" height="51" viewBox="0 0 51 51" fill="none" xmlns="http://www.w3.org/2000/svg">
<g clip-path="url(#clip0_18_277959)">
<path d="M30.6213 38.1683H25.6179C25.2409 38.1683 24.9354 38.4738 24.9354 38.8507V50.2335C24.9354 50.6104 25.2409 50.9159 25.6179 50.9159H30.6213C30.9981 50.9159 31.3037 50.6104 31.3037 50.2335V38.8507C31.3037 38.4738 30.9981 38.1683 30.6213 38.1683ZM29.9388 49.5511H26.3003V39.5332H29.9388V49.5511ZM22.8521 43.879H17.8486C17.4717 43.879 17.1661 44.1846 17.1661 44.5614V50.2335C17.1661 50.6104 17.4717 50.9159 17.8486 50.9159H22.8521C23.2291 50.9159 23.5347 50.6104 23.5347 50.2335V44.5614C23.5347 44.1846 23.2291 43.879 22.8521 43.879ZM22.1697 49.5511H18.5312V45.2438H22.1697V49.5511ZM27.2119 23.8264C27.2119 28.2535 23.609 31.8552 19.1803 31.8552C14.7517 31.8552 11.1487 28.2535 11.1487 23.8264C11.1487 19.3978 14.7517 15.7948 19.1803 15.7948C22.7623 15.7948 25.942 18.2013 26.9127 21.6466C27.0149 22.0093 26.8037 22.3862 26.4408 22.4885C26.0786 22.5905 25.7013 22.3796 25.5989 22.0167C24.7933 19.1569 22.1538 17.1598 19.1802 17.1598C15.5041 17.1598 12.5135 20.1504 12.5135 23.8265C12.5135 27.501 15.5041 30.4903 19.1802 30.4903C22.8562 30.4903 25.8469 27.501 25.8469 23.8265C25.8469 23.4495 26.1524 23.144 26.5293 23.144C26.9064 23.1439 27.2119 23.4494 27.2119 23.8264ZM38.3903 33.4079H33.3868C33.0099 33.4079 32.7043 33.7135 32.7043 34.0903V50.2335C32.7043 50.6104 33.0099 50.9159 33.3868 50.9159H38.3903C38.7673 50.9159 39.0728 50.6104 39.0728 50.2335V34.0903C39.0728 33.7135 38.7673 33.4079 38.3903 33.4079ZM37.7078 49.5511H34.0692V34.7728H37.7078V49.5511ZM46.1622 27.6971H41.156C40.779 27.6971 40.4735 28.0026 40.4735 28.3795V50.2335C40.4735 50.6104 40.779 50.9159 41.156 50.9159H46.1622C46.5391 50.9159 46.8446 50.6104 46.8446 50.2335V28.3795C46.8446 28.0026 46.5391 27.6971 46.1622 27.6971ZM45.4797 49.5511H41.8384V29.062H45.4797V49.5511ZM29.6585 28.7714C29.8198 28.4286 29.9632 28.0826 30.087 27.7367L33.6976 26.9205C34.0086 26.8502 34.2295 26.5738 34.2295 26.2549V21.3978C34.2295 21.0788 34.0086 20.8024 33.6976 20.7321L30.0875 19.916C29.9638 19.5693 29.8203 19.2225 29.6585 18.8785L31.6349 15.7473C31.8051 15.4776 31.7658 15.1259 31.5403 14.9004L28.1062 11.4662C27.8807 11.2407 27.5292 11.2015 27.2596 11.3716L24.127 13.3472C23.7925 13.1889 23.446 13.0453 23.091 12.9179L22.2745 9.30615C22.2042 8.99512 21.9278 8.77422 21.6089 8.77422H16.7518C16.4328 8.77422 16.1565 8.99512 16.0861 9.30615L15.2697 12.9179C14.9146 13.0453 14.5682 13.1889 14.2338 13.3472L11.1013 11.3716C10.8316 11.2015 10.4801 11.2407 10.2546 11.4662L6.82041 14.9004C6.59492 15.1259 6.55566 15.4775 6.72588 15.7473L8.70166 18.8775C8.54199 19.2154 8.39824 19.5626 8.27168 19.9157L4.66045 20.7321C4.34932 20.8024 4.12842 21.0788 4.12842 21.3978V26.2549C4.12842 26.5738 4.34932 26.8502 4.66045 26.9205L8.27217 27.737C8.39883 28.0894 8.54248 28.4355 8.70166 28.7723L6.72588 31.9025C6.55566 32.1722 6.59492 32.5236 6.82021 32.7492L10.2544 36.1861C10.48 36.4119 10.8318 36.4509 11.1016 36.2808L14.234 34.3026C14.5682 34.4608 14.9146 34.6044 15.2697 34.7319L16.0861 38.3436C16.1565 38.6546 16.4328 38.8755 16.7518 38.8755H21.6089C21.9278 38.8755 22.2042 38.6546 22.2745 38.3436L23.091 34.7319C23.4462 34.6044 23.7926 34.4608 24.1268 34.3026L27.2593 36.2808C27.529 36.451 27.8808 36.4119 28.1063 36.1861L31.5405 32.7492C31.7658 32.5236 31.805 32.1723 31.6349 31.9025L29.6585 28.7714ZM27.5267 34.8354L24.5316 32.9441C24.3265 32.8146 24.0682 32.8036 23.8532 32.9153C23.3662 33.1678 22.8437 33.3846 22.3004 33.5597C22.0707 33.6336 21.8973 33.8234 21.844 34.0587L21.0637 37.5106H17.2973L16.5169 34.0587C16.4637 33.8234 16.2901 33.6336 16.0605 33.5597C15.5173 33.3847 14.9947 33.1678 14.5077 32.9153C14.2924 32.8038 14.0342 32.8148 13.8293 32.9441L10.8343 34.8354L8.17119 32.1701L10.0601 29.1775C10.1892 28.9729 10.2004 28.7155 10.0896 28.5006C9.83418 28.0053 9.61719 27.4823 9.44473 26.9465C9.3707 26.7167 9.18096 26.5432 8.94561 26.49L5.49355 25.7097V21.9433L8.94561 21.1629C9.18125 21.1096 9.37119 20.9356 9.44502 20.7056C9.6167 20.1696 9.83359 19.6461 10.0896 19.1495C10.2004 18.9346 10.1892 18.6771 10.0601 18.4726L8.17109 15.4801L10.8342 12.8171L13.8294 14.7061C14.0343 14.8355 14.2924 14.8461 14.5074 14.7348C14.995 14.482 15.5175 14.2652 16.0603 14.0905C16.29 14.0166 16.4635 13.8268 16.5167 13.5914L17.2971 10.1394H21.0635L21.8438 13.5914C21.8971 13.8268 22.0705 14.0166 22.3003 14.0905C22.8431 14.2652 23.3655 14.482 23.8531 14.7348C24.0682 14.8461 24.3262 14.8354 24.5312 14.7061L27.5264 12.8171L30.1894 15.4801L28.3007 18.4726C28.1722 18.6763 28.1604 18.9326 28.2699 19.1471C28.5326 19.6616 28.7488 20.1851 28.9122 20.7027C28.9854 20.9341 29.1758 21.1094 29.4125 21.1629L32.8645 21.9433V25.7097L29.4125 26.49C29.1762 26.5435 28.9857 26.7183 28.9125 26.9492C28.7483 27.4668 28.5321 27.9895 28.2699 28.503C28.1604 28.7176 28.1722 28.9739 28.3007 29.1775L30.1895 32.1701L27.5267 34.8354ZM19.8628 19.707V23.4848L23.2556 26.0236C23.5573 26.2494 23.6188 26.6771 23.393 26.9789C23.259 27.1579 23.0538 27.2524 22.8461 27.2524C22.7038 27.2524 22.5604 27.2082 22.4377 27.1163L18.7714 24.3728C18.5992 24.2439 18.4979 24.0414 18.4979 23.8264V19.707C18.4979 19.3301 18.8034 19.0246 19.1803 19.0246C19.5573 19.0245 19.8628 19.3301 19.8628 19.707ZM32.3232 10.7831H35.6054V18.8616C35.6054 19.2386 35.9109 19.544 36.2878 19.544H41.156C41.5328 19.544 41.8384 19.2385 41.8384 18.8616V10.7831H45.1206C45.38 10.7831 45.6169 10.636 45.732 10.4036C45.8472 10.1713 45.8206 9.89365 45.6635 9.6873L39.2648 1.28271C39.1357 1.11318 38.935 1.01367 38.7219 1.01367C38.5088 1.01367 38.308 1.11318 38.1789 1.28271L31.7802 9.68721C31.623 9.89355 31.5965 10.1712 31.7116 10.4035C31.827 10.636 32.0639 10.7831 32.3232 10.7831ZM38.722 2.82266L43.7434 9.41816H41.156C40.779 9.41816 40.4735 9.72373 40.4735 10.1006V18.1791H36.9703V10.1006C36.9703 9.72363 36.6648 9.41816 36.2879 9.41816H33.7006L38.722 2.82266ZM39.3767 21.0249V27.2744C39.3767 27.6514 39.0712 27.9568 38.6942 27.9568C38.3174 27.9568 38.0118 27.6513 38.0118 27.2744V21.0249C38.0118 20.6479 38.3174 20.3425 38.6942 20.3425C39.0712 20.3424 39.3767 20.6479 39.3767 21.0249ZM36.2298 20.3424C36.6066 20.3424 36.9122 20.6479 36.9122 21.0248V24.2795C36.9122 24.6564 36.6066 24.9619 36.2298 24.9619C35.8528 24.9619 35.5473 24.6563 35.5473 24.2795V21.0248C35.5473 20.6479 35.8528 20.3424 36.2298 20.3424ZM41.8384 21.0249V24.2796C41.8384 24.6565 41.5328 24.962 41.156 24.962C40.779 24.962 40.4735 24.6564 40.4735 24.2796V21.0249C40.4735 20.6479 40.779 20.3425 41.156 20.3425C41.5328 20.3424 41.8384 20.6479 41.8384 21.0249Z" fill="url(#paint0_linear_18_277959)"/>
</g>
<defs>
<linearGradient id="paint0_linear_18_277959" x1="25.4865" y1="1.01367" x2="25.4865" y2="50.9159" gradientUnits="userSpaceOnUse">
<stop stop-color="#0CBBFF"/>
<stop offset="1" stop-color="#A9E4FC"/>
</linearGradient>
<clipPath id="clip0_18_277959">
<rect width="50" height="50" fill="white" transform="translate(0.486572 0.964844)"/>
</clipPath>
</defs>
</svg>
