<svg width="40" height="40" viewBox="0 0 40 40" fill="none" xmlns="http://www.w3.org/2000/svg">
<g clip-path="url(#clip0_18_351204)">
<path d="M19.9988 0C8.95347 0 -0.0012207 8.95469 -0.0012207 20C-0.0012207 31.0453 8.95347 40 19.9988 40C31.0441 40 39.9988 31.0453 39.9988 20C39.9988 8.95469 31.0441 0 19.9988 0ZM33.5886 33.5898C29.9589 37.2195 25.1324 39.2188 19.9988 39.2188C14.8652 39.2188 10.0386 37.2195 6.40894 33.5898C2.77925 29.9602 0.780029 25.1336 0.780029 20C0.780029 14.8664 2.77925 10.0398 6.40894 6.41016C10.0386 2.78047 14.8652 0.78125 19.9988 0.78125C25.1324 0.78125 29.9589 2.78047 33.5886 6.41016C37.2183 10.0398 39.2175 14.8664 39.2175 20C39.2175 25.1336 37.2183 29.9602 33.5886 33.5898ZM19.9988 10.6742C16.4597 10.6742 13.5808 13.5539 13.5808 17.0922C13.5808 20.6305 16.4597 23.5109 19.9988 23.5109C23.5378 23.5109 26.4167 20.6313 26.4167 17.0922C26.4167 13.5531 23.5378 10.6742 19.9988 10.6742ZM19.9988 22.7297C16.8855 22.7297 14.3621 20.2055 14.3621 17.0922C14.3621 13.9789 16.8855 11.4555 19.9988 11.4555C23.1121 11.4555 25.6355 13.9797 25.6355 17.0922C25.6355 20.2047 23.1121 22.7297 19.9988 22.7297ZM19.9988 10.6742C16.4597 10.6742 13.5808 13.5539 13.5808 17.0922C13.5808 20.6305 16.4597 23.5109 19.9988 23.5109C23.5378 23.5109 26.4167 20.6313 26.4167 17.0922C26.4167 13.5531 23.5378 10.6742 19.9988 10.6742ZM19.9988 22.7297C16.8855 22.7297 14.3621 20.2055 14.3621 17.0922C14.3621 13.9789 16.8855 11.4555 19.9988 11.4555C23.1121 11.4555 25.6355 13.9797 25.6355 17.0922C25.6355 20.2047 23.1121 22.7297 19.9988 22.7297ZM26.3308 9.44297L20.8574 7.19922C20.5832 7.0875 20.2949 7.03047 19.9988 7.03047C19.7027 7.03047 19.4144 7.0875 19.1402 7.19922L13.6667 9.44297C12.8128 9.79297 12.2605 10.6148 12.2605 11.5383V18.7281C12.2605 21.2891 13.2113 23.3766 15.0871 24.9328C16.6566 26.2352 18.4855 26.8391 19.4347 27.0836C19.6191 27.1305 19.8089 27.1547 19.9988 27.1547C20.1886 27.1547 20.3785 27.1305 20.5621 27.0836C21.5121 26.8391 23.341 26.2352 24.9105 24.9328C26.7863 23.3766 27.7371 21.2891 27.7371 18.7281V11.5383C27.7371 10.6156 27.1847 9.79297 26.3308 9.44297ZM26.9558 18.7281C26.9558 21.0461 26.0996 22.9312 24.4121 24.3312C22.9597 25.5367 21.255 26.0992 20.3675 26.3266C20.2472 26.3578 20.123 26.3734 19.9988 26.3734C19.8746 26.3734 19.7503 26.3578 19.63 26.3266C18.7433 26.0992 17.0386 25.5367 15.5855 24.3312C13.898 22.9312 13.0417 21.0461 13.0417 18.7281V11.5383C13.0417 10.9336 13.4035 10.3945 13.9628 10.1656L19.4363 7.92266C19.616 7.84844 19.805 7.81172 19.9988 7.81172C20.1925 7.81172 20.3816 7.84844 20.5613 7.92266L26.0347 10.1656C26.5941 10.3945 26.9558 10.9336 26.9558 11.5383V18.7281ZM19.9988 10.6742C16.4597 10.6742 13.5808 13.5539 13.5808 17.0922C13.5808 20.6305 16.4597 23.5109 19.9988 23.5109C23.5378 23.5109 26.4167 20.6313 26.4167 17.0922C26.4167 13.5531 23.5378 10.6742 19.9988 10.6742ZM19.9988 22.7297C16.8855 22.7297 14.3621 20.2055 14.3621 17.0922C14.3621 13.9789 16.8855 11.4555 19.9988 11.4555C23.1121 11.4555 25.6355 13.9797 25.6355 17.0922C25.6355 20.2047 23.1121 22.7297 19.9988 22.7297ZM26.3308 9.44297L20.8574 7.19922C20.5832 7.0875 20.2949 7.03047 19.9988 7.03047C19.7027 7.03047 19.4144 7.0875 19.1402 7.19922L13.6667 9.44297C12.8128 9.79297 12.2605 10.6148 12.2605 11.5383V18.7281C12.2605 21.2891 13.2113 23.3766 15.0871 24.9328C16.6566 26.2352 18.4855 26.8391 19.4347 27.0836C19.6191 27.1305 19.8089 27.1547 19.9988 27.1547C20.1886 27.1547 20.3785 27.1305 20.5621 27.0836C21.5121 26.8391 23.341 26.2352 24.9105 24.9328C26.7863 23.3766 27.7371 21.2891 27.7371 18.7281V11.5383C27.7371 10.6156 27.1847 9.79297 26.3308 9.44297ZM26.9558 18.7281C26.9558 21.0461 26.0996 22.9312 24.4121 24.3312C22.9597 25.5367 21.255 26.0992 20.3675 26.3266C20.2472 26.3578 20.123 26.3734 19.9988 26.3734C19.8746 26.3734 19.7503 26.3578 19.63 26.3266C18.7433 26.0992 17.0386 25.5367 15.5855 24.3312C13.898 22.9312 13.0417 21.0461 13.0417 18.7281V11.5383C13.0417 10.9336 13.4035 10.3945 13.9628 10.1656L19.4363 7.92266C19.616 7.84844 19.805 7.81172 19.9988 7.81172C20.1925 7.81172 20.3816 7.84844 20.5613 7.92266L26.0347 10.1656C26.5941 10.3945 26.9558 10.9336 26.9558 11.5383V18.7281ZM19.9988 10.6742C16.4597 10.6742 13.5808 13.5539 13.5808 17.0922C13.5808 20.6305 16.4597 23.5109 19.9988 23.5109C23.5378 23.5109 26.4167 20.6313 26.4167 17.0922C26.4167 13.5531 23.5378 10.6742 19.9988 10.6742ZM19.9988 22.7297C16.8855 22.7297 14.3621 20.2055 14.3621 17.0922C14.3621 13.9789 16.8855 11.4555 19.9988 11.4555C23.1121 11.4555 25.6355 13.9797 25.6355 17.0922C25.6355 20.2047 23.1121 22.7297 19.9988 22.7297ZM34.7644 18.5805C34.698 18.1586 34.4597 17.7844 34.0941 17.5273C33.9285 17.4109 33.7324 17.2805 33.5105 17.1445C33.9496 16.3469 34.2292 15.5586 34.3957 14.9812C34.5191 14.5516 34.4707 14.1109 34.2574 13.7406C34.0449 13.3695 33.6886 13.1055 33.255 12.9961C33.0886 12.9547 32.8964 12.9102 32.6839 12.8687C32.9332 11.9234 33.0042 11.0242 33.0152 10.3867C33.023 9.94453 32.8636 9.53516 32.5675 9.23438C32.2722 8.93359 31.8667 8.76797 31.4261 8.76797H31.3964C30.6519 8.78047 29.5503 8.87578 28.4363 9.24063C28.0433 8.73359 27.5167 8.32578 26.8933 8.07031L21.4199 5.82656C20.9667 5.64141 20.4886 5.54688 19.9988 5.54688C19.5089 5.54688 19.0308 5.64141 18.5777 5.82656L13.1042 8.07031C12.4808 8.32578 11.955 8.73281 11.5613 9.23984C10.4472 8.875 9.34565 8.78047 8.60112 8.76797H8.57144C8.13081 8.76797 7.72534 8.93359 7.43003 9.23438C7.13394 9.53516 6.97456 9.94453 6.98237 10.3867C6.99331 11.0242 7.0644 11.9234 7.31362 12.8687C7.1019 12.9102 6.90894 12.9547 6.74253 12.9961C6.30894 13.1055 5.95269 13.3695 5.74019 13.7406C5.5269 14.1109 5.47847 14.5516 5.6019 14.982C5.76909 15.5586 6.048 16.3469 6.48706 17.1445C6.26519 17.2805 6.06909 17.4109 5.90347 17.5273C5.53784 17.7844 5.29956 18.1586 5.23315 18.5805C5.16675 19.0031 5.27847 19.432 5.548 19.7891C6.07769 20.4914 6.99487 21.5289 8.21441 22.2594C8.20034 22.2875 8.18472 22.3172 8.17065 22.3453C7.97144 22.7453 7.94019 23.1875 8.08237 23.5906C8.22534 23.9937 8.52769 24.318 8.93472 24.5039C9.84722 24.9203 11.2519 25.4172 12.7597 25.4172C12.973 25.4172 13.1824 25.4062 13.3878 25.3852C13.623 25.6234 13.873 25.8539 14.1386 26.0742C14.4753 26.3539 14.8214 26.6047 15.1691 26.8297C14.7425 27.1914 14.4699 27.7297 14.4699 28.332V29.6281C13.1574 29.6492 12.0964 30.7227 12.0964 32.0398C12.0964 33.357 13.1792 34.4531 14.5097 34.4531H25.4863C26.8167 34.4531 27.8996 33.3703 27.8996 32.0398C27.8996 30.7094 26.8386 29.6492 25.5261 29.6281V28.332C25.5261 27.7297 25.2535 27.1914 24.8261 26.8305C25.1738 26.6047 25.5207 26.3539 25.8574 26.0742C26.123 25.8539 26.373 25.6242 26.6074 25.3859C26.8128 25.4062 27.023 25.4172 27.2371 25.4172C28.7449 25.4172 30.1496 24.9203 31.0621 24.5039C31.4691 24.318 31.7714 23.9937 31.9144 23.5906C32.0566 23.1875 32.0253 22.7453 31.8261 22.3453C31.8121 22.3172 31.7964 22.2883 31.7824 22.2594C33.0019 21.5289 33.9191 20.4914 34.4488 19.7891C34.7183 19.432 34.83 19.0031 34.7636 18.5805H34.7644ZM33.0636 13.7539C33.5324 13.8719 33.7785 14.3016 33.6449 14.7648C33.4925 15.2922 33.2355 16.0234 32.8308 16.7602C31.8847 16.2711 30.6644 15.8211 29.3683 15.8211C29.3191 15.8211 29.2691 15.8227 29.2199 15.8242V13.6094C30.6753 13.2766 32.1832 13.532 33.0636 13.7539ZM31.4097 9.54922C31.8925 9.54063 32.2425 9.89062 32.2339 10.3734C32.2238 10.9734 32.1558 11.843 31.9089 12.7437C31.5386 12.6977 31.1363 12.6672 30.7183 12.6672C30.1902 12.6672 29.691 12.7156 29.2199 12.8102V11.5383C29.2199 10.9664 29.0925 10.4187 28.8582 9.92578C29.823 9.63672 30.7691 9.56016 31.4097 9.54922ZM8.58784 9.54922C9.22847 9.56016 10.1746 9.63594 11.1394 9.92578C10.905 10.4187 10.7777 10.9664 10.7777 11.5383V12.8102C10.3066 12.7156 9.80737 12.6672 9.27925 12.6672C8.86128 12.6672 8.45894 12.6977 8.08862 12.7437C7.84175 11.843 7.77378 10.9734 7.76362 10.3734C7.75503 9.89062 8.10503 9.54063 8.58784 9.54922ZM6.35269 14.7648C6.21909 14.3016 6.46519 13.8719 6.93394 13.7539C7.8144 13.532 9.32222 13.2773 10.7777 13.6102V15.825C10.7277 15.8234 10.6792 15.8211 10.6292 15.8211C9.33315 15.8211 8.11206 16.2711 7.16675 16.7602C6.76206 16.0234 6.50503 15.2922 6.35269 14.7648ZM6.17144 19.3188C5.88081 18.9328 5.95737 18.4438 6.35269 18.1664C7.24175 17.5422 8.9519 16.55 10.7777 16.6063V18.7281C10.7777 18.8422 10.7792 18.9555 10.7832 19.0688C9.80347 19.7977 9.08159 20.7625 8.59331 21.5773C7.4894 20.9109 6.65112 19.9531 6.17144 19.3188ZM9.25894 23.793C8.81987 23.5922 8.65503 23.1258 8.86987 22.6938C9.2269 21.9781 9.88081 20.8773 10.8503 20.018C11.0535 21.7742 11.68 23.3187 12.7246 24.6352C11.3386 24.6273 10.0316 24.1461 9.25894 23.793ZM25.4871 30.4086C26.3886 30.4086 27.1191 31.1391 27.1191 32.0398C27.1191 32.9406 26.3886 33.6719 25.4871 33.6719H14.5105C13.6089 33.6719 12.8785 32.9414 12.8785 32.0398C12.8785 31.1383 13.6089 30.4086 14.5105 30.4086H25.4871ZM15.2519 29.6273V28.332C15.2519 27.8672 15.5199 27.4664 15.9082 27.2711C17.155 27.9578 18.3394 28.3336 19.066 28.5203C19.3707 28.5984 19.6847 28.6383 19.9988 28.6383C20.3128 28.6383 20.6269 28.5984 20.9316 28.5203C21.6582 28.3336 22.8425 27.9578 24.0894 27.2711C24.4777 27.4664 24.7457 27.8672 24.7457 28.332V29.6273H15.2519ZM20.7371 27.7633C20.2527 27.8883 19.7449 27.8883 19.2605 27.7633C17.2042 27.2352 11.5589 25.1961 11.5589 18.7281V11.5383C11.5589 10.3344 12.2863 9.24922 13.4003 8.79297L18.8738 6.55C19.5949 6.25391 20.4027 6.25391 21.1238 6.55L26.5972 8.79297C27.7113 9.24922 28.4386 10.3344 28.4386 11.5383V18.7281C28.4386 25.1961 22.7933 27.2352 20.7371 27.7633ZM30.7386 23.793C29.966 24.1453 28.6589 24.6273 27.273 24.6352C28.3167 23.3187 28.9441 21.775 29.1472 20.0187C30.1167 20.8781 30.7707 21.9789 31.1277 22.6938C31.3425 23.1258 31.1777 23.5922 30.7386 23.793ZM33.8261 19.3188C33.3464 19.9531 32.5082 20.9102 31.405 21.5773C30.916 20.7633 30.1933 19.7992 29.2144 19.0695C29.2183 18.9562 29.2199 18.843 29.2199 18.7281V16.6063C31.0457 16.5508 32.7558 17.5422 33.6449 18.1664C34.0402 18.4438 34.1167 18.9328 33.8261 19.3188ZM26.3308 9.44297L20.8574 7.19922C20.5832 7.0875 20.2949 7.03047 19.9988 7.03047C19.7027 7.03047 19.4144 7.0875 19.1402 7.19922L13.6667 9.44297C12.8128 9.79297 12.2605 10.6148 12.2605 11.5383V18.7281C12.2605 21.2891 13.2113 23.3766 15.0871 24.9328C16.6566 26.2352 18.4855 26.8391 19.4347 27.0836C19.6191 27.1305 19.8089 27.1547 19.9988 27.1547C20.1886 27.1547 20.3785 27.1305 20.5621 27.0836C21.5121 26.8391 23.341 26.2352 24.9105 24.9328C26.7863 23.3766 27.7371 21.2891 27.7371 18.7281V11.5383C27.7371 10.6156 27.1847 9.79297 26.3308 9.44297ZM26.9558 18.7281C26.9558 21.0461 26.0996 22.9312 24.4121 24.3312C22.9597 25.5367 21.255 26.0992 20.3675 26.3266C20.2472 26.3578 20.123 26.3734 19.9988 26.3734C19.8746 26.3734 19.7503 26.3578 19.63 26.3266C18.7433 26.0992 17.0386 25.5367 15.5855 24.3312C13.898 22.9312 13.0417 21.0461 13.0417 18.7281V11.5383C13.0417 10.9336 13.4035 10.3945 13.9628 10.1656L19.4363 7.92266C19.616 7.84844 19.805 7.81172 19.9988 7.81172C20.1925 7.81172 20.3816 7.84844 20.5613 7.92266L26.0347 10.1656C26.5941 10.3945 26.9558 10.9336 26.9558 11.5383V18.7281ZM19.9988 10.6742C16.4597 10.6742 13.5808 13.5539 13.5808 17.0922C13.5808 20.6305 16.4597 23.5109 19.9988 23.5109C23.5378 23.5109 26.4167 20.6313 26.4167 17.0922C26.4167 13.5531 23.5378 10.6742 19.9988 10.6742ZM19.9988 22.7297C16.8855 22.7297 14.3621 20.2055 14.3621 17.0922C14.3621 13.9789 16.8855 11.4555 19.9988 11.4555C23.1121 11.4555 25.6355 13.9797 25.6355 17.0922C25.6355 20.2047 23.1121 22.7297 19.9988 22.7297ZM22.3183 18.8344L21.68 18.7555V13.2148C21.68 12.9852 21.5785 12.7672 21.4035 12.6188C21.2613 12.4984 21.0824 12.4336 20.8988 12.4336C20.8558 12.4336 20.8128 12.4375 20.7699 12.4445L17.6464 12.9656C17.2699 13.0289 16.9941 13.3547 16.9941 13.7367V14.7281C16.9941 15.1562 17.3386 15.5047 17.766 15.5094L18.3285 15.5156V18.7555L17.6894 18.8344C17.298 18.8828 17.0042 19.2148 17.0042 19.6094V20.6578C17.0042 21.0891 17.3542 21.4391 17.7855 21.4391H22.2222C22.6535 21.4391 23.0035 21.0891 23.0035 20.6578V19.6094C23.0035 19.2148 22.7097 18.8828 22.3183 18.8344ZM22.2222 20.6578H17.7855V19.6094L19.1097 19.4461V14.7437L17.7753 14.7281V13.7367L20.8988 13.2148V19.4461L22.2222 19.6094V20.6578Z" fill="url(#paint0_linear_18_351204)"/>
</g>
<defs>
<linearGradient id="paint0_linear_18_351204" x1="19.9988" y1="0" x2="19.9988" y2="40" gradientUnits="userSpaceOnUse">
<stop stop-color="#0CBBFF"/>
<stop offset="1" stop-color="#A9E4FC"/>
</linearGradient>
<clipPath id="clip0_18_351204">
<rect width="40" height="40" fill="white" transform="translate(-0.0012207)"/>
</clipPath>
</defs>
</svg>
