<svg width="41" height="41" viewBox="0 0 41 41" fill="none" xmlns="http://www.w3.org/2000/svg">
<g clip-path="url(#clip0_18_277859)">
<path fill-rule="evenodd" clip-rule="evenodd" d="M5.17065 30.1237V10.0945C5.17065 8.91668 6.12548 7.96186 7.30328 7.96186H9.46203V7.09613C9.46203 5.56884 10.7001 4.33072 12.2274 4.33072H24.2506V3.45974C24.2506 2.92037 24.4649 2.40296 24.8463 2.02155C25.2278 1.64013 25.7451 1.42578 26.2845 1.42578H28.3322C28.8717 1.42578 29.389 1.64013 29.7705 2.02155C30.1519 2.40296 30.3662 2.92037 30.3662 3.45974V4.33072H31.1376C31.6231 4.33072 32.0167 4.72429 32.0167 5.20986V7.96186H34.1754C35.3532 7.96186 36.3081 8.91668 36.3081 10.0945V30.1237C36.3081 30.9983 35.9606 31.8371 35.3421 32.4555C34.7237 33.074 33.8849 33.4215 33.0102 33.4215H32.0159C32.0165 33.4568 32.0167 33.4922 32.0167 33.5277C32.0167 37.1826 29.0494 40.15 25.3945 40.15C21.7396 40.15 18.7722 37.1826 18.7722 33.5277C18.7722 33.4922 18.7725 33.4568 18.7731 33.4215H11.6035L10.1159 38.5521C9.98132 39.0163 9.66791 39.4079 9.24454 39.6409C8.82124 39.8739 8.32265 39.9292 7.85858 39.7946H7.85842C7.26195 39.6217 6.91865 38.998 7.0916 38.4015L8.5356 33.4215H8.46854C7.59387 33.4215 6.75505 33.074 6.13662 32.4555C5.51811 31.8371 5.17065 30.9983 5.17065 30.1237ZM9.67881 33.4215L8.14618 38.7074C8.14211 38.7213 8.15018 38.736 8.16422 38.7401C8.16493 38.7403 8.16563 38.7405 8.16626 38.7407C8.35018 38.7934 8.54744 38.7713 8.71505 38.679C8.88328 38.5864 9.00783 38.4308 9.06132 38.2463L10.4603 33.4215H9.67881ZM25.3945 28.0035C22.3456 28.0035 19.8703 30.4789 19.8703 33.5277C19.8703 36.5766 22.3456 39.052 25.3945 39.052C28.4434 39.052 30.9187 36.5766 30.9187 33.5277C30.9187 30.4789 28.4434 28.0035 25.3945 28.0035ZM25.3945 30.4706C27.0817 30.4706 28.4516 31.8405 28.4516 33.5277C28.4516 35.215 27.0817 36.5848 25.3945 36.5848C23.7072 36.5848 22.3373 35.215 22.3373 33.5277C22.3373 31.8405 23.7072 30.4706 25.3945 30.4706ZM25.3945 31.5687C24.3132 31.5687 23.4354 32.4465 23.4354 33.5277C23.4354 34.609 24.3132 35.4868 25.3945 35.4868C26.4758 35.4868 27.3536 34.609 27.3536 33.5277C27.3536 32.4465 26.4758 31.5687 25.3945 31.5687ZM31.9073 32.3234H33.0102C33.5936 32.3234 34.1532 32.0917 34.5657 31.6791C34.9783 31.2666 35.21 30.707 35.21 30.1237V15.4639H6.26869V30.1237C6.26869 30.707 6.50046 31.2666 6.91301 31.6791C7.32556 32.0917 7.88509 32.3234 8.46854 32.3234H18.8817C19.4487 29.2426 22.1508 26.9055 25.3945 26.9055C28.6382 26.9055 31.3403 29.2426 31.9073 32.3234ZM32.0828 16.7908L31.7191 19.5421L33.1274 20.2321C33.277 20.3054 33.3852 20.4426 33.4216 20.6052C33.458 20.7678 33.4185 20.9381 33.3144 21.0682L30.1616 25.0075C29.9961 25.2143 29.7065 25.2734 29.4732 25.1481C29.2398 25.0227 29.1292 24.7486 29.2103 24.4964L30.0894 21.7616L28.6676 21.2259C28.5107 21.1668 28.3895 21.0393 28.3383 20.8796C28.2872 20.7199 28.3118 20.5456 28.4052 20.4064L31.0825 16.4132C31.2245 16.2013 31.4938 16.1151 31.7325 16.2052C31.9711 16.2954 32.1162 16.5379 32.0828 16.7908ZM30.6864 18.9757L29.703 20.4426L30.9656 20.9184C31.2395 21.0216 31.3842 21.3215 31.2947 21.6001L31.1688 21.9918L32.0292 20.9168L30.8816 20.3544C30.6698 20.2506 30.548 20.0233 30.5789 19.7895L30.6864 18.9757ZM17.558 23.7074C17.271 23.2612 16.7699 22.9655 16.2005 22.9655C15.3101 22.9655 14.5873 23.6883 14.5873 24.5786C14.5873 24.8819 14.3415 25.1277 14.0383 25.1277H8.4265C8.12328 25.1277 7.87748 24.8819 7.87748 24.5786C7.87748 19.9851 11.6069 16.2557 16.2005 16.2557C20.794 16.2557 24.5234 19.9851 24.5234 24.5786C24.5234 24.8819 24.2776 25.1277 23.9743 25.1277H18.3627C18.1681 25.1277 17.9971 25.0264 17.8996 24.8737L17.2696 25.435C17.2775 25.4856 17.2816 25.5375 17.2816 25.5904C17.2816 26.1488 16.8281 26.6022 16.2698 26.6022C15.7114 26.6022 15.2579 26.1488 15.2579 25.5904C15.2579 25.032 15.7114 24.5786 16.2698 24.5786C16.363 24.5786 16.4535 24.5913 16.5393 24.615L17.558 23.7074ZM19.3274 18.0646C18.3809 17.609 17.3203 17.3537 16.2005 17.3537C15.0806 17.3537 14.02 17.609 13.0736 18.0646L15.3481 22.0043C15.6162 21.9155 15.9027 21.8674 16.2005 21.8674C16.4982 21.8674 16.7847 21.9155 17.0528 22.0043L19.3274 18.0646ZM12.1233 18.6147C10.3649 19.8198 9.1654 21.7819 8.99614 24.0296H13.545C13.6647 23.4484 13.9707 22.9348 14.3977 22.5543L12.1233 18.6147ZM18.8546 24.023C18.855 24.0252 18.8554 24.0274 18.8559 24.0296H23.4048C23.2355 21.7819 22.036 19.8198 20.2776 18.6147L18.0032 22.5543C18.144 22.6797 18.2717 22.8197 18.3838 22.9718L20.0947 21.4477C20.321 21.2461 20.6683 21.2661 20.8699 21.4924C21.0714 21.7186 21.0514 22.0659 20.8252 22.2675L18.8546 24.023ZM34.1754 9.0599H7.30328C6.73191 9.0599 6.26869 9.52311 6.26869 10.0945V14.3659H35.21V10.0945C35.21 9.52311 34.7468 9.0599 34.1754 9.0599ZM28.4968 10.6994C29.0379 10.6994 29.4772 11.1387 29.4772 11.6798C29.4772 12.2209 29.0379 12.6602 28.4968 12.6602C27.9557 12.6602 27.5164 12.2209 27.5164 11.6798C27.5164 11.1387 27.9557 10.6994 28.4968 10.6994ZM25.8108 10.3594V13.0003C25.8108 13.3035 25.565 13.5493 25.2618 13.5493H8.49254C8.18932 13.5493 7.94352 13.3035 7.94352 13.0003V10.3594C7.94352 10.0562 8.18932 9.81041 8.49254 9.81041H25.2618C25.565 9.81041 25.8108 10.0562 25.8108 10.3594ZM24.7128 10.9084H9.04156V12.4513H24.7128V10.9084ZM32.1939 10.6994C32.735 10.6994 33.1743 11.1387 33.1743 11.6798C33.1743 12.2209 32.735 12.6602 32.1939 12.6602C31.6529 12.6602 31.2136 12.2209 31.2136 11.6798C31.2136 11.1387 31.6529 10.6994 32.1939 10.6994ZM29.2681 4.33072V3.45974C29.2681 3.21159 29.1696 2.97347 28.994 2.79802C28.8185 2.62249 28.5805 2.52382 28.3322 2.52382H26.2845C26.0363 2.52382 25.7983 2.62249 25.6227 2.79802C25.4473 2.97347 25.3486 3.21159 25.3486 3.45974V4.33072H29.2681ZM30.9187 5.42876H12.2274C11.3066 5.42876 10.5601 6.17527 10.5601 7.09613V7.96186H30.9187V5.42876Z" fill="url(#paint0_linear_18_277859)"/>
</g>
<defs>
<linearGradient id="paint0_linear_18_277859" x1="20.7394" y1="1.42578" x2="20.7394" y2="40.15" gradientUnits="userSpaceOnUse">
<stop stop-color="#0CBBFF"/>
<stop offset="1" stop-color="#A9E4FC"/>
</linearGradient>
<clipPath id="clip0_18_277859">
<rect width="40" height="40" fill="white" transform="translate(0.739258 0.787109)"/>
</clipPath>
</defs>
</svg>
