<svg width="50" height="51" viewBox="0 0 50 51" fill="none" xmlns="http://www.w3.org/2000/svg">
<path d="M23.3088 31.7418C21.0294 28.8006 16.6176 28.8741 14.3382 31.8153C11.9117 30.7859 9.04406 31.5947 7.49994 33.8006L7.35288 32.9182C7.35288 32.4771 6.98524 32.2565 6.61759 32.33C6.17641 32.4035 5.8823 32.7712 5.95582 33.1388L8.23524 47.4035C8.52935 48.58 9.55877 49.3888 10.7352 49.3888H26.4705C27.647 49.3888 28.6764 48.58 28.9705 47.4035L29.0441 47.1829H39.1911C40.8088 47.1829 42.1323 45.8594 42.1323 44.2418V22.6976C42.1323 22.2565 41.8382 21.9623 41.397 21.9623C40.9558 21.9623 40.6617 22.2565 40.6617 22.6976V44.1682C40.6617 44.9771 39.9999 45.6388 39.1911 45.6388H29.3382L32.4999 27.6976H34.9264C35.3676 27.6976 35.6617 27.4035 35.6617 26.9623V25.6388C35.6617 24.0212 34.3382 22.6976 32.7205 22.6976H26.1764C25.7352 22.6976 25.4411 22.9918 25.4411 23.4329C25.4411 23.8741 25.7352 24.1682 26.1764 24.1682H32.7205C33.5294 24.1682 34.1911 24.83 34.1911 25.6388V26.227C32.2794 26.227 23.7499 26.227 22.8676 26.227C22.9411 23.6535 23.8235 21.08 25.4411 18.58C26.397 17.1094 26.8382 15.4182 26.6911 13.6535C26.397 9.97705 23.3823 6.81528 19.7058 6.44764C14.8529 5.8594 10.7352 9.6094 10.7352 14.3153C10.7352 16.0065 11.2499 17.5506 12.2058 18.9476C13.6764 21.0065 14.4852 23.5065 14.5588 26.3006H3.23524V25.7123C3.23524 24.9035 3.897 24.2418 4.70582 24.2418H12.0588C12.4999 24.2418 12.7941 23.9476 12.7941 23.5065C12.7941 23.0653 12.4999 22.7712 12.0588 22.7712H4.70582C3.08818 22.7712 1.76465 24.0947 1.76465 25.7123V27.0359C1.76465 27.477 2.05877 27.7712 2.49994 27.7712H4.92641L5.29406 29.83C5.36759 30.1976 5.66171 30.4182 6.02935 30.4182H6.17641C6.54406 30.3447 6.83818 29.977 6.76465 29.5359L6.47053 27.7712H31.0294L29.9264 33.8006C28.4558 31.6682 25.7352 30.7859 23.3088 31.7418ZM13.4558 18.0653C12.647 16.9623 12.2794 15.6388 12.2794 14.3153C12.2794 10.5653 15.5146 7.40352 19.5588 7.8447C22.5735 8.21234 24.9999 10.7123 25.2205 13.727C25.3676 15.1976 24.9999 16.5947 24.1911 17.7712C22.4264 20.5653 21.4705 23.3594 21.397 26.227H19.4852V17.0359C19.4852 16.5947 19.1911 16.3006 18.7499 16.3006C18.3088 16.3006 18.0146 16.5947 18.0146 17.0359V26.227H16.1029C15.9558 23.2123 15.0735 20.4182 13.4558 18.0653ZM26.4705 47.9182H10.8088C10.2941 47.9182 9.85288 47.5506 9.77935 47.1094L8.08818 36.6682C8.08818 36.5947 8.16171 36.5947 8.16171 36.5212C8.45583 33.5065 11.7646 31.8888 14.3382 33.3594C14.4852 33.4329 14.7058 33.5065 14.9264 33.4329C15.147 33.3594 15.2941 33.2859 15.3676 33.0653C16.9117 30.3447 20.8823 30.1976 22.4999 32.9918C22.7205 33.2859 23.0882 33.4329 23.4558 33.2859C26.0294 31.9623 29.1911 33.58 29.4852 36.5212C29.2646 37.6241 30.2205 32.6241 27.5735 47.0359C27.4264 47.5506 26.9852 47.9182 26.4705 47.9182Z" fill="url(#paint0_linear_18_250547)"/>
<path d="M18.7499 2.18359C18.3088 2.18359 18.0146 2.47771 18.0146 2.91889V4.90418C18.0146 5.34536 18.3088 5.63948 18.7499 5.63948C19.1911 5.63948 19.4852 5.34536 19.4852 4.90418V2.91889C19.4852 2.55124 19.1176 2.18359 18.7499 2.18359Z" fill="url(#paint1_linear_18_250547)"/>
<path d="M11.544 8.13925C11.8382 8.43336 12.2793 8.43336 12.5735 8.13925C12.8676 7.84513 12.8676 7.40395 12.5735 7.10983L11.1764 5.71278C10.8823 5.41866 10.4411 5.41866 10.147 5.71278C9.85286 6.00689 9.85286 6.44807 10.147 6.74219L11.544 8.13925Z" fill="url(#paint2_linear_18_250547)"/>
<path d="M9.33826 13.582H7.35297C6.91179 13.582 6.61768 13.8761 6.61768 14.3173C6.61768 14.7585 6.91179 15.0526 7.35297 15.0526H9.33826C9.77944 15.0526 10.0736 14.7585 10.0736 14.3173C10.0736 13.8761 9.70591 13.582 9.33826 13.582Z" fill="url(#paint3_linear_18_250547)"/>
<path d="M28.1618 15.0526H30.1471C30.5883 15.0526 30.8824 14.7585 30.8824 14.3173C30.8824 13.8761 30.5883 13.582 30.1471 13.582H28.1618C27.7206 13.582 27.4265 13.8761 27.4265 14.3173C27.4265 14.7585 27.7206 15.0526 28.1618 15.0526Z" fill="url(#paint4_linear_18_250547)"/>
<path d="M26.25 5.71278L24.8529 7.10983C24.5588 7.40395 24.5588 7.84513 24.8529 8.13925C25.147 8.43336 25.5882 8.43336 25.8823 8.13925L27.2794 6.74219C27.5735 6.44807 27.5735 6.00689 27.2794 5.71278C26.9853 5.41866 26.5441 5.41866 26.25 5.71278Z" fill="url(#paint5_linear_18_250547)"/>
<path d="M16.3234 14.537H21.1028L20.5881 17.5517C20.5145 17.9193 20.8086 18.3605 21.1763 18.4341C21.5439 18.5076 21.9851 18.2135 22.0586 17.8458L22.7204 13.9488C22.7939 13.5076 22.4263 13.0664 21.9851 13.0664H15.441C14.9998 13.0664 14.6322 13.5076 14.7057 13.9488L15.3675 17.8458C15.441 18.2135 15.8086 18.5076 16.2498 18.4341C16.6175 18.3605 16.9116 17.9929 16.8381 17.5517L16.3234 14.537Z" fill="url(#paint6_linear_18_250547)"/>
<path d="M21.2499 39.315L17.2058 39.6827L18.2352 36.668C18.3823 36.3003 18.1617 35.8591 17.7941 35.7121C17.4264 35.565 16.9852 35.7856 16.8382 36.1533L15.4411 40.2709C15.2941 40.7856 15.6617 41.3003 16.1764 41.2268L20.2205 40.8591L19.1911 44.0209C19.0441 44.3885 19.2647 44.8297 19.6323 44.9768C19.9999 45.1238 20.4411 44.9033 20.5882 44.5356L21.9852 40.3444C22.1323 39.8297 21.7647 39.315 21.2499 39.315Z" fill="url(#paint7_linear_18_250547)"/>
<path d="M48.2353 6.88948C48.2353 6.4483 47.8676 6.15418 47.5 6.15418C47.4264 6.15418 44.1912 6.15418 44.4117 6.15418V2.91889C44.4117 2.47771 44.0441 2.18359 43.6765 2.18359C43.2353 2.18359 42.9412 2.55124 42.9412 2.91889V6.15418H39.7059V2.91889C39.7059 2.47771 39.3382 2.18359 38.9706 2.18359C38.5294 2.18359 38.2353 2.55124 38.2353 2.91889V6.15418C38.1617 6.15418 34.9264 6.15418 35.147 6.15418C34.7059 6.15418 34.4117 6.52183 34.4117 6.88948C34.4117 7.33065 34.7794 7.62477 35.147 7.62477H35.9559V13.2865C35.9559 15.1983 37.5 16.7424 39.4117 16.7424H43.0882C45 16.7424 46.5441 15.1248 46.5441 13.213V7.55124H47.3529C47.9412 7.62477 48.2353 7.25712 48.2353 6.88948ZM45.2206 13.2865C45.2206 14.3895 44.3382 15.2718 43.2353 15.3454H39.5588C38.4559 15.3454 37.5735 14.463 37.5735 13.3601V7.6983H45.2206V13.2865Z" fill="url(#paint8_linear_18_250547)"/>
<path d="M44.3382 19.0205C44.3382 18.5793 44.0441 18.2852 43.6029 18.2852H39.1176C38.6764 18.2852 38.3823 18.5793 38.3823 19.0205C38.3823 19.4616 38.6764 19.7557 39.1176 19.7557H43.6029C44.0441 19.7557 44.3382 19.4616 44.3382 19.0205Z" fill="url(#paint9_linear_18_250547)"/>
<path d="M41.397 13.1403C42.647 13.1403 43.6029 12.1844 43.6029 10.9344C43.6029 9.6844 42.647 8.72852 41.397 8.72852C40.147 8.72852 39.1912 9.6844 39.1912 10.9344C39.1912 12.1844 40.147 13.1403 41.397 13.1403ZM41.397 10.1991C41.8382 10.1991 42.1323 10.4932 42.1323 10.9344C42.1323 11.3756 41.8382 11.6697 41.397 11.6697C40.9559 11.6697 40.6618 11.3756 40.6618 10.9344C40.6618 10.4932 40.9559 10.1991 41.397 10.1991Z" fill="url(#paint10_linear_18_250547)"/>
<defs>
<linearGradient id="paint0_linear_18_250547" x1="21.9485" y1="6.38672" x2="21.9485" y2="49.3888" gradientUnits="userSpaceOnUse">
<stop stop-color="#0CBBFF"/>
<stop offset="1" stop-color="#A9E4FC"/>
</linearGradient>
<linearGradient id="paint1_linear_18_250547" x1="18.7499" y1="2.18359" x2="18.7499" y2="5.63948" gradientUnits="userSpaceOnUse">
<stop stop-color="#0CBBFF"/>
<stop offset="1" stop-color="#A9E4FC"/>
</linearGradient>
<linearGradient id="paint2_linear_18_250547" x1="11.3602" y1="5.49219" x2="11.3602" y2="8.35983" gradientUnits="userSpaceOnUse">
<stop stop-color="#0CBBFF"/>
<stop offset="1" stop-color="#A9E4FC"/>
</linearGradient>
<linearGradient id="paint3_linear_18_250547" x1="8.34562" y1="13.582" x2="8.34562" y2="15.0526" gradientUnits="userSpaceOnUse">
<stop stop-color="#0CBBFF"/>
<stop offset="1" stop-color="#A9E4FC"/>
</linearGradient>
<linearGradient id="paint4_linear_18_250547" x1="29.1545" y1="13.582" x2="29.1545" y2="15.0526" gradientUnits="userSpaceOnUse">
<stop stop-color="#0CBBFF"/>
<stop offset="1" stop-color="#A9E4FC"/>
</linearGradient>
<linearGradient id="paint5_linear_18_250547" x1="26.0661" y1="5.49219" x2="26.0661" y2="8.35983" gradientUnits="userSpaceOnUse">
<stop stop-color="#0CBBFF"/>
<stop offset="1" stop-color="#A9E4FC"/>
</linearGradient>
<linearGradient id="paint6_linear_18_250547" x1="18.7131" y1="13.0664" x2="18.7131" y2="18.4454" gradientUnits="userSpaceOnUse">
<stop stop-color="#0CBBFF"/>
<stop offset="1" stop-color="#A9E4FC"/>
</linearGradient>
<linearGradient id="paint7_linear_18_250547" x1="18.7132" y1="35.666" x2="18.7132" y2="45.0228" gradientUnits="userSpaceOnUse">
<stop stop-color="#0CBBFF"/>
<stop offset="1" stop-color="#A9E4FC"/>
</linearGradient>
<linearGradient id="paint8_linear_18_250547" x1="41.3235" y1="2.18359" x2="41.3235" y2="16.7424" gradientUnits="userSpaceOnUse">
<stop stop-color="#0CBBFF"/>
<stop offset="1" stop-color="#A9E4FC"/>
</linearGradient>
<linearGradient id="paint9_linear_18_250547" x1="41.3603" y1="18.2852" x2="41.3603" y2="19.7557" gradientUnits="userSpaceOnUse">
<stop stop-color="#0CBBFF"/>
<stop offset="1" stop-color="#A9E4FC"/>
</linearGradient>
<linearGradient id="paint10_linear_18_250547" x1="41.397" y1="8.72852" x2="41.397" y2="13.1403" gradientUnits="userSpaceOnUse">
<stop stop-color="#0CBBFF"/>
<stop offset="1" stop-color="#A9E4FC"/>
</linearGradient>
</defs>
</svg>
