<svg width="51" height="51" viewBox="0 0 51 51" fill="none" xmlns="http://www.w3.org/2000/svg">
<path d="M44.3679 11.2147C41.2494 11.223 38.1601 10.6127 35.279 9.41922C32.3978 8.22573 29.7819 6.47269 27.5828 4.26155L24.6078 1.28733C24.4613 1.14087 24.2626 1.05859 24.0554 1.05859C23.8483 1.05859 23.6496 1.14087 23.5031 1.28733L20.5281 4.26155C18.3289 6.47269 15.713 8.22573 12.8319 9.41922C9.95073 10.6127 6.86148 11.223 3.74292 11.2147C3.53572 11.2147 3.33701 11.297 3.19049 11.4435C3.04398 11.59 2.96167 11.7887 2.96167 11.9959C2.98215 18.6743 4.52625 25.2599 7.47641 31.2513C10.4266 37.2428 14.705 42.482 19.9859 46.5701L23.5796 49.3342C23.7161 49.439 23.8834 49.4958 24.0554 49.4958C24.2275 49.4958 24.3947 49.439 24.5312 49.3342L28.125 46.5701C28.4554 46.3155 28.7796 46.0545 29.1015 45.7889L31.2601 47.9475C31.4066 48.094 31.6053 48.1762 31.8125 48.1762C32.0196 48.1762 32.2183 48.094 32.3648 47.9475L33.3023 47.01C33.5986 47.1531 33.9021 47.2806 34.2117 47.392V48.7147C34.2117 48.9219 34.294 49.1206 34.4405 49.2671C34.587 49.4136 34.7857 49.4959 34.9929 49.4959H39.6804C39.8876 49.4959 40.0863 49.4136 40.2328 49.2671C40.3794 49.1206 40.4617 48.9219 40.4617 48.7147V47.392C40.7725 47.2825 41.0773 47.1568 41.375 47.0155L42.3125 47.953C42.459 48.0994 42.6576 48.1817 42.8648 48.1817C43.072 48.1817 43.2706 48.0994 43.4171 47.953L46.732 44.6381C46.8784 44.4916 46.9607 44.2929 46.9607 44.0858C46.9607 43.8786 46.8784 43.6799 46.732 43.5334L45.7945 42.5959C45.9355 42.2985 46.061 41.9939 46.1703 41.6834H47.4929C47.7001 41.6834 47.8988 41.6011 48.0453 41.4546C48.1919 41.3081 48.2742 41.1094 48.2742 40.9022V36.2147C48.2742 36.0075 48.1919 35.8088 48.0453 35.6623C47.8988 35.5157 47.7001 35.4334 47.4929 35.4334H46.1703C46.0607 35.1226 45.9351 34.8178 45.7937 34.5201L46.7312 33.5826C46.8777 33.4361 46.9599 33.2375 46.9599 33.0303C46.9599 32.8231 46.8777 32.6245 46.7312 32.478L43.4164 29.1631C43.2699 29.0167 43.0712 28.9344 42.864 28.9344C42.6569 28.9344 42.4582 29.0167 42.3117 29.1631L41.3742 30.1006C41.3289 30.0787 41.2804 30.0639 41.2351 30.0436C43.8217 24.3789 45.1567 18.2232 45.1492 11.9959C45.1492 11.7887 45.0669 11.59 44.9203 11.4435C44.7738 11.297 44.5751 11.2147 44.3679 11.2147ZM42.0757 31.6053L42.857 30.8241L45.071 33.0342L44.2898 33.8155C44.1686 33.936 44.0903 34.093 44.0668 34.2623C44.0434 34.4317 44.0762 34.604 44.1601 34.753C44.4548 35.2822 44.6865 35.8441 44.8507 36.4272C44.897 36.5909 44.9954 36.735 45.1311 36.8377C45.2667 36.9403 45.4322 36.9959 45.6023 36.9959H46.7117V40.1209H45.5984C45.4283 40.121 45.2628 40.1766 45.1272 40.2792C44.9915 40.3819 44.8931 40.526 44.8468 40.6897C44.6826 41.2727 44.4508 41.8346 44.1562 42.3639C44.0723 42.5128 44.0395 42.6852 44.0629 42.8545C44.0864 43.0239 44.1647 43.1808 44.2859 43.3014L45.0671 44.0826L42.8609 46.2928L42.0796 45.5116C41.9591 45.3903 41.8021 45.312 41.6328 45.2886C41.4634 45.2652 41.2911 45.2979 41.1421 45.3819C40.6129 45.6765 40.051 45.9083 39.4679 46.0725C39.3042 46.1188 39.1601 46.2172 39.0574 46.3528C38.9548 46.4885 38.8992 46.6539 38.8992 46.8241V47.9334H35.7742V46.8201C35.7741 46.65 35.7185 46.4846 35.6159 46.3489C35.5132 46.2133 35.3691 46.1149 35.2054 46.0686C34.6223 45.9044 34.0605 45.6726 33.5312 45.378C33.3823 45.294 33.2099 45.2613 33.0406 45.2847C32.8712 45.3081 32.7143 45.3864 32.5937 45.5076L31.8125 46.2889L29.6023 44.0826L30.3835 43.3014C30.5048 43.1808 30.5831 43.0239 30.6065 42.8545C30.6299 42.6852 30.5972 42.5128 30.5132 42.3639C30.2186 41.8346 29.9868 41.2727 29.8226 40.6897C29.7765 40.5266 29.6787 40.383 29.5438 40.2804C29.409 40.1778 29.2444 40.1218 29.075 40.1209H27.9617V36.9959H29.075C29.2451 36.9959 29.4105 36.9403 29.5462 36.8377C29.6818 36.735 29.7802 36.5909 29.8265 36.4272C29.9907 35.8441 30.2225 35.2822 30.5171 34.753C30.6011 34.604 30.6338 34.4317 30.6104 34.2623C30.587 34.093 30.5087 33.936 30.3875 33.8155L29.6062 33.0342L31.8125 30.8241L32.5937 31.6053C32.7143 31.7265 32.8712 31.8048 33.0406 31.8283C33.2099 31.8517 33.3823 31.8189 33.5312 31.735C34.0605 31.4403 34.6223 31.2086 35.2054 31.0444C35.3685 30.9983 35.5121 30.9004 35.6147 30.7656C35.7173 30.6307 35.7733 30.4662 35.7742 30.2967V29.1834H38.8992V30.2967C38.8992 30.4668 38.9548 30.6323 39.0574 30.7679C39.1601 30.9036 39.3042 31.002 39.4679 31.0483C40.051 31.2125 40.6129 31.4443 41.1421 31.7389C41.2911 31.8214 41.4628 31.853 41.6314 31.8289C41.7999 31.8047 41.9559 31.7262 42.0757 31.6053ZM34.9929 27.6209C34.7857 27.6209 34.587 27.7032 34.4405 27.8497C34.294 27.9963 34.2117 28.195 34.2117 28.4022V29.7248C33.9009 29.8344 33.596 29.96 33.2984 30.1014L32.3609 29.1639C32.2144 29.0174 32.0157 28.9352 31.8085 28.9352C31.6014 28.9352 31.4027 29.0174 31.2562 29.1639L27.9414 32.4787C27.7949 32.6252 27.7126 32.8239 27.7126 33.0311C27.7126 33.2382 27.7949 33.4369 27.9414 33.5834L28.8789 34.5209C28.7378 34.8183 28.6124 35.1229 28.5031 35.4334H27.1804C26.9732 35.4334 26.7745 35.5157 26.628 35.6623C26.4815 35.8088 26.3992 36.0075 26.3992 36.2147V40.9022C26.4038 40.9671 26.4167 41.0311 26.4375 41.0928L24.0554 43.0217L20.2851 39.9701C16.6759 37.0606 13.7459 33.3979 11.6999 29.2379C9.65382 25.078 8.5412 20.5213 8.4398 15.8866C13.3751 15.7022 18.0564 13.6516 21.5382 10.1491L24.0554 7.63186L26.5726 10.1491C30.0544 13.6516 34.7358 15.7022 39.671 15.8866C39.5775 19.9243 38.7138 23.9071 37.1265 27.6209H34.9929ZM40.3835 28.0709C40.3209 27.9371 40.2216 27.8238 40.0971 27.7441C39.9727 27.6645 39.8282 27.6218 39.6804 27.6209H38.8156C40.4218 23.6494 41.246 19.405 41.2429 15.1209C41.2429 14.9137 41.1606 14.715 41.0141 14.5685C40.8676 14.422 40.6689 14.3397 40.4617 14.3397C38.0864 14.3462 35.7335 13.8816 33.5391 12.9726C31.3446 12.0637 29.3522 10.7285 27.6773 9.04436L24.6078 5.97483C24.4613 5.82837 24.2626 5.74609 24.0554 5.74609C23.8483 5.74609 23.6496 5.82837 23.5031 5.97483L20.4335 9.04436C18.7586 10.7285 16.7662 12.0637 14.5718 12.9726C12.3773 13.8816 10.0244 14.3462 7.64917 14.3397C7.44197 14.3397 7.24326 14.422 7.09674 14.5685C6.95023 14.715 6.86792 14.9137 6.86792 15.1209C6.85774 20.1189 7.9697 25.0554 10.1218 29.5663C12.2739 34.0772 15.4112 38.0475 19.3023 41.1842L23.564 44.6342C23.7031 44.7467 23.8765 44.8081 24.0554 44.8081C24.2343 44.8081 24.4078 44.7467 24.5468 44.6342L28.1914 41.6834H28.5039C28.6134 41.9942 28.7391 42.299 28.8804 42.5967L27.9429 43.5342C27.7965 43.6807 27.7142 43.8794 27.7142 44.0866C27.7142 44.2937 27.7965 44.4924 27.9429 44.6389L27.9875 44.6834C27.7171 44.903 27.4468 45.1225 27.1703 45.335L24.0554 47.7287L20.9382 45.3311C15.9494 41.4688 11.8871 36.5401 9.04844 30.9056C6.20981 25.271 4.6667 19.0732 4.53198 12.7655C10.9701 12.5824 17.092 9.93397 21.6335 5.36702L24.0554 2.94515L26.4773 5.36702C31.0188 9.93397 37.1408 12.5824 43.5789 12.7655C43.4889 18.0232 42.4047 23.2164 40.3835 28.0709Z" fill="url(#paint0_linear_18_258836)"/>
<path d="M35.5453 20.0373L33.2015 17.6936C33.055 17.5471 32.8563 17.4648 32.6492 17.4648C32.442 17.4648 32.2433 17.5471 32.0968 17.6936L22.4929 27.2975L19.139 23.9436C18.9925 23.7971 18.7938 23.7148 18.5867 23.7148C18.3795 23.7148 18.1808 23.7971 18.0343 23.9436L15.6906 26.2873C15.5441 26.4338 15.4619 26.6325 15.4619 26.8397C15.4619 27.0468 15.5441 27.2455 15.6906 27.392L21.9406 33.642C22.0871 33.7885 22.2858 33.8708 22.4929 33.8708C22.7001 33.8708 22.8988 33.7885 23.0453 33.642L35.5453 21.142C35.6917 20.9955 35.774 20.7968 35.774 20.5897C35.774 20.3825 35.6917 20.1838 35.5453 20.0373ZM22.4929 31.985L17.3476 26.8397L18.5867 25.6006L21.9406 28.9545C22.0871 29.101 22.2858 29.1833 22.4929 29.1833C22.7001 29.1833 22.8988 29.101 23.0453 28.9545L32.6492 19.3506L33.8882 20.5897L22.4929 31.985Z" fill="url(#paint1_linear_18_258836)"/>
<path d="M31.8679 38.5586C31.8679 39.6402 32.1887 40.6975 32.7896 41.5969C33.3905 42.4962 34.2446 43.1971 35.2439 43.6111C36.2432 44.025 37.3427 44.1333 38.4036 43.9223C39.4644 43.7113 40.4388 43.1904 41.2037 42.4256C41.9685 41.6608 42.4893 40.6863 42.7003 39.6255C42.9114 38.5647 42.8031 37.4651 42.3891 36.4658C41.9752 35.4665 41.2743 34.6124 40.3749 34.0115C39.4756 33.4106 38.4183 33.0898 37.3367 33.0898C35.8868 33.0917 34.4969 33.6685 33.4717 34.6937C32.4465 35.7188 31.8698 37.1088 31.8679 38.5586ZM41.2429 38.5586C41.2429 39.3312 41.0138 40.0864 40.5846 40.7288C40.1554 41.3712 39.5453 41.8718 38.8315 42.1675C38.1178 42.4632 37.3323 42.5405 36.5746 42.3898C35.8169 42.2391 35.1208 41.867 34.5745 41.3207C34.0282 40.7744 33.6562 40.0784 33.5055 39.3207C33.3548 38.5629 33.4321 37.7775 33.7278 37.0637C34.0234 36.35 34.5241 35.7399 35.1665 35.3107C35.8089 34.8814 36.5641 34.6523 37.3367 34.6523C38.3723 34.6536 39.3651 35.0655 40.0974 35.7978C40.8297 36.5301 41.2417 37.523 41.2429 38.5586Z" fill="url(#paint2_linear_18_258836)"/>
<path d="M34.9929 38.5586C34.9929 39.0221 35.1304 39.4753 35.3879 39.8607C35.6454 40.2461 36.0115 40.5465 36.4398 40.7239C36.868 40.9013 37.3393 40.9477 37.7939 40.8573C38.2486 40.7669 38.6662 40.5437 38.9939 40.2159C39.3217 39.8881 39.545 39.4705 39.6354 39.0158C39.7258 38.5612 39.6794 38.0899 39.502 37.6617C39.3246 37.2334 39.0242 36.8674 38.6388 36.6098C38.2534 36.3523 37.8002 36.2148 37.3367 36.2148C36.7151 36.2148 36.1189 36.4618 35.6794 36.9013C35.2399 37.3409 34.9929 37.937 34.9929 38.5586ZM38.1179 38.5586C38.1179 38.7131 38.0721 38.8642 37.9863 38.9926C37.9004 39.1211 37.7784 39.2212 37.6356 39.2804C37.4929 39.3395 37.3358 39.355 37.1843 39.3248C37.0327 39.2947 36.8935 39.2203 36.7842 39.111C36.675 39.0018 36.6006 38.8626 36.5704 38.711C36.5403 38.5595 36.5558 38.4024 36.6149 38.2596C36.674 38.1169 36.7742 37.9949 36.9026 37.909C37.0311 37.8232 37.1822 37.7773 37.3367 37.7773C37.5439 37.7773 37.7426 37.8597 37.8891 38.0062C38.0356 38.1527 38.1179 38.3514 38.1179 38.5586Z" fill="url(#paint3_linear_18_258836)"/>
<defs>
<linearGradient id="paint0_linear_18_258836" x1="25.6179" y1="1.05859" x2="25.6179" y2="49.4959" gradientUnits="userSpaceOnUse">
<stop stop-color="#0CBBFF"/>
<stop offset="1" stop-color="#A9E4FC"/>
</linearGradient>
<linearGradient id="paint1_linear_18_258836" x1="25.6179" y1="17.4648" x2="25.6179" y2="33.8708" gradientUnits="userSpaceOnUse">
<stop stop-color="#0CBBFF"/>
<stop offset="1" stop-color="#A9E4FC"/>
</linearGradient>
<linearGradient id="paint2_linear_18_258836" x1="37.3367" y1="33.0898" x2="37.3367" y2="44.0273" gradientUnits="userSpaceOnUse">
<stop stop-color="#0CBBFF"/>
<stop offset="1" stop-color="#A9E4FC"/>
</linearGradient>
<linearGradient id="paint3_linear_18_258836" x1="37.3367" y1="36.2148" x2="37.3367" y2="40.9023" gradientUnits="userSpaceOnUse">
<stop stop-color="#0CBBFF"/>
<stop offset="1" stop-color="#A9E4FC"/>
</linearGradient>
</defs>
</svg>
