<svg width="76" height="76" viewBox="0 0 76 76" fill="none" xmlns="http://www.w3.org/2000/svg">
<path fill-rule="evenodd" clip-rule="evenodd" d="M42.9227 33.6369C42.9227 32.9897 43.4474 32.465 44.0946 32.465H53.1543C53.8015 32.465 54.3262 32.9897 54.3262 33.6369C54.3262 34.2841 53.8015 34.8088 53.1543 34.8088H44.0946C43.4474 34.8088 42.9227 34.2841 42.9227 33.6369ZM13.6103 50.5893H47.7321C48.3792 50.5893 48.9039 50.0645 48.9039 49.4174C48.9039 48.7702 48.3792 48.2455 47.7321 48.2455H13.6103C12.9631 48.2455 12.4384 48.7702 12.4384 49.4174C12.4384 50.0645 12.9631 50.5893 13.6103 50.5893ZM13.6103 42.699H51.2654C51.9126 42.699 52.4373 42.1743 52.4373 41.5271C52.4373 40.88 51.9126 40.3553 51.2654 40.3553H13.6103C12.9631 40.3553 12.4384 40.88 12.4384 41.5271C12.4384 42.1743 12.9631 42.699 13.6103 42.699ZM44.517 57.3076C44.517 56.6604 43.9923 56.1357 43.3451 56.1357H13.6103C12.9631 56.1357 12.4384 56.6604 12.4384 57.3076C12.4384 57.9548 12.9631 58.4795 13.6103 58.4795H43.345C43.9923 58.4795 44.517 57.9549 44.517 57.3076ZM74.2881 36.0766L68.5777 45.9671C68.3607 46.343 67.9667 46.5532 67.5616 46.5532C67.3629 46.5532 67.1614 46.5025 66.9769 46.396C66.4164 46.0724 66.2242 45.3557 66.548 44.7952L72.2582 34.9049C72.5445 34.4089 72.3914 33.7789 71.9216 33.4651L65.0831 45.3095C64.9277 45.5786 64.6718 45.775 64.3717 45.8556C64.2719 45.8823 64.1699 45.8955 64.0684 45.8955C63.9605 45.8955 63.8531 45.8795 63.7492 45.85L61.6791 49.4357V71.3208C61.6791 72.7485 60.5175 73.9102 59.0897 73.9102H7.67502C6.24724 73.9102 5.08562 72.7485 5.08562 71.3208V24.1988L3.61448 23.5485C2.32263 22.9775 1.73611 21.4619 2.30696 20.1699L5.08562 13.8832V3.84331C5.08562 2.41553 6.24724 1.25391 7.67502 1.25391H51.1305C51.8323 1.25391 52.4654 1.51626 52.9615 2.0124L60.9208 9.97134C61.4169 10.4676 61.6791 11.1007 61.6791 11.8024V31.1073L63.8065 27.4223C64.13 26.8619 64.8468 26.6695 65.4073 26.9934L65.9648 27.3152L66.7775 25.9075C67.4614 24.7233 68.9811 24.3163 70.1653 24.9996L71.2364 25.6181C72.4207 26.3017 72.8278 27.8215 72.144 29.0057L71.3313 30.4134L72.0808 30.8461C72.0811 30.8462 72.0816 30.8465 72.0819 30.8468L73.034 31.3967C74.6698 32.3411 75.2324 34.4405 74.2881 36.0766ZM67.9945 28.4871L69.3014 29.2417L70.1143 27.8339C70.1505 27.7711 70.1272 27.6841 70.0643 27.6478L68.9934 27.0293C68.9307 26.993 68.8437 27.0164 68.8072 27.0792L67.9945 28.4871ZM52.8896 5.25498V10.0434H57.6782L52.8896 5.25498ZM4.56208 21.4049L7.34587 22.6352C7.45383 22.683 7.58581 22.632 7.63357 22.5237L14.0247 8.06323C14.0541 7.99673 14.0423 7.93608 14.0272 7.89712C14.0119 7.85786 13.98 7.80513 13.9135 7.77568L11.1299 6.54536C11.102 6.5332 11.0729 6.52734 11.044 6.52734C10.9598 6.52734 10.8776 6.57612 10.8422 6.65654L4.45075 21.1172C4.403 21.2253 4.45398 21.3571 4.56208 21.4049ZM46.6884 23.632C46.7147 23.6999 46.7658 23.7343 46.8042 23.7511C46.8427 23.768 46.9025 23.7825 46.9705 23.7565L49.8082 22.6564C49.9183 22.6137 49.9755 22.4845 49.9328 22.3742L44.218 7.6333C44.1849 7.54805 44.1 7.49458 44.0122 7.49458C43.9866 7.49458 43.9607 7.49912 43.9359 7.50879L41.0982 8.60889C41.0304 8.63511 40.9961 8.68638 40.9791 8.7249C40.9623 8.76328 40.9475 8.82319 40.9739 8.89102L46.6884 23.632ZM39.957 12.7525L38.9133 13.311C37.183 14.211 35.5359 13.5381 34.0823 12.9439C32.1323 12.1469 30.2903 11.3938 27.5406 13.28C26.9389 13.6912 26.3242 14.2126 25.7124 14.8311C24.3952 16.1622 22.7869 17.4258 20.9219 18.596C22.6117 20.1284 24.4006 19.5309 26.9973 18.4797C29.0314 17.6562 31.3371 16.7229 33.4481 17.9262L40.9954 22.228C41.2615 22.3797 41.5035 22.564 41.7165 22.7764L43.547 22.0126L39.957 12.7525ZM24.7003 12.5559C23.403 12.177 22.2343 12.4499 21.0165 12.7352C19.575 13.0729 17.9427 13.4552 16.294 12.5502L14.8903 11.9026L10.8798 20.9766C11.684 21.3335 11.9962 21.466 12.1062 21.5086C13.0895 21.8903 13.5093 22.7029 13.7327 23.4762C14.7495 22.7936 16.1015 22.6786 17.2552 23.2942C18.1385 23.7658 18.7344 24.5776 18.9605 25.4874C19.5923 25.4408 20.2381 25.5681 20.8217 25.8795C21.5467 26.2666 22.0838 26.8834 22.3766 27.6023C23.1362 27.4479 23.9461 27.5515 24.6701 27.9379C25.3949 28.3248 25.9321 28.9417 26.2251 29.6604C26.9847 29.5056 27.7951 29.6096 28.5192 29.9965C28.8974 30.1986 29.2259 30.4641 29.5005 30.7856L33.4138 33.0006C33.6439 33.1285 33.9129 33.1579 34.1716 33.0833C34.4346 33.0076 34.6511 32.8358 34.7811 32.5995C35.0469 32.1163 34.8637 31.4982 34.3728 31.2218C34.3218 31.1931 34.2751 31.1603 34.2301 31.1256L28.7972 28.0686C28.2331 27.7512 28.0331 27.0366 28.3506 26.4727C28.668 25.9085 29.3824 25.7086 29.9465 26.026L36.7736 29.8676C37.0076 29.9962 37.2798 30.0253 37.5408 29.9498C37.8016 29.874 38.0162 29.7034 38.1451 29.469C38.4108 28.986 38.228 28.3688 37.738 28.0919C35.805 27.0092 34.1941 26.1054 32.5347 25.1555C31.9731 24.8339 31.7784 24.1179 32.0998 23.5563C32.4212 22.9947 33.1371 22.7996 33.6991 23.1214C35.35 24.0664 36.9561 24.9675 38.8841 26.0474C39.1112 26.1746 39.3779 26.204 39.635 26.1303C39.9001 26.0544 40.1178 25.882 40.2485 25.6447C40.4051 25.36 40.4115 25.0242 40.2659 24.7238C40.2657 24.7235 40.2656 24.7233 40.2655 24.723C40.1717 24.5298 40.0229 24.3712 39.8348 24.264L32.2875 19.9622C31.1626 19.3213 29.6402 19.938 27.8765 20.652C25.1701 21.7475 21.464 23.2477 18.3717 19.2688C18.1186 18.9442 18.0176 18.5247 18.0955 18.1192C18.1734 17.7135 18.423 17.3613 18.7803 17.1526C20.8809 15.9265 22.6526 14.5909 24.0463 13.1823C24.2632 12.9633 24.4815 12.7551 24.7003 12.5559ZM30.6293 34.1178L30.2105 33.8808C30.1441 34.1366 30.0492 34.3865 29.9219 34.6245L29.3342 35.7236L29.8216 36.0035C30.0388 36.1282 30.2973 36.1582 30.5499 36.0873C30.8157 36.0127 31.0437 35.8332 31.1749 35.5945C31.4427 35.1078 31.2616 34.4883 30.7714 34.2135C30.7207 34.1849 30.6741 34.1522 30.6293 34.1178ZM13.7506 29.8488C14.1058 30.0388 14.5368 30.0089 14.8659 29.7844L16.6356 26.7217C16.8423 26.2213 16.6311 25.6181 16.1516 25.3622C15.628 25.083 14.9746 25.2803 14.6954 25.8028L13.3097 28.3937C13.0299 28.9163 13.2278 29.5692 13.7506 29.8488ZM16.3059 32.7168C16.3897 32.9934 16.5742 33.2197 16.8253 33.3541C17.3471 33.6333 18.0017 33.4315 18.2852 32.9048L20.2668 29.0672C20.3365 28.6204 20.1187 28.1612 19.7182 27.9475C19.3585 27.7554 18.9237 27.7876 18.594 28.0173L16.7935 31.1331L16.3843 31.8986C16.2499 32.1497 16.2221 32.4401 16.3059 32.7168ZM21.0331 34.7408C21.4885 34.9846 22.0538 34.8655 22.3755 34.4681L24.1155 31.1238C24.1845 30.6775 23.9669 30.2191 23.5668 30.0057C23.1694 29.7938 22.673 29.8625 22.3409 30.1586L20.4672 33.7871C20.4665 34.1821 20.6808 34.5524 21.0331 34.7408ZM25.0714 36.4444C25.3226 36.5788 25.6129 36.6066 25.8898 36.5228C26.1665 36.439 26.3928 36.2544 26.527 36.0035L27.8554 33.5191C28.0495 33.1563 28.0154 32.7051 27.7684 32.3692C27.6748 32.2419 27.5559 32.1393 27.4145 32.0637C27.0176 31.8516 26.5204 31.9208 26.188 32.2185L24.5077 35.448C24.4922 35.8551 24.7095 36.2511 25.0714 36.4444ZM59.3354 53.4952L54.5411 61.7991C54.4271 61.9966 54.2579 62.1565 54.0543 62.2594L49.4938 64.5614L48.7881 65.7839C48.4907 66.2991 47.8548 66.5099 47.308 66.2736C43.2537 64.5208 41.7805 65.4705 40.2211 66.4755C39.273 67.0863 38.2084 67.7725 36.7101 67.7725C36.5822 67.7725 36.4513 67.7675 36.317 67.7571C33.8862 67.5678 32.639 66.7408 31.6368 66.0762C30.198 65.1218 29.0609 64.3685 23.3291 66.3081C22.7156 66.5153 22.0509 66.1868 21.8433 65.5736C21.6359 64.9605 21.9647 64.2954 22.5778 64.0879C28.9236 61.9406 30.7976 62.7076 32.9321 64.123C33.8282 64.7172 34.6747 65.2786 36.499 65.4205C37.3778 65.4889 37.9736 65.1357 38.9515 64.5054C40.6536 63.4085 42.7448 62.0606 47.2662 63.7318L47.498 63.3305L47.216 58.3112C47.2032 58.0835 47.257 57.8569 47.3713 57.6595L56.5794 41.7104C56.2032 41.3454 56.1064 40.7594 56.3805 40.2848L59.3354 35.1668V12.3872H52.4266C51.3896 12.3872 50.5459 11.5436 50.5459 10.5064V3.59766H7.67502C7.54187 3.59766 7.42937 3.71016 7.42937 3.84331V8.58032L8.69836 5.70923C9.26921 4.41753 10.7849 3.83057 12.077 4.40171L14.8608 5.63218C15.4853 5.90815 15.9655 6.41221 16.2127 7.05132C16.46 7.69058 16.4442 8.38652 16.168 9.01099L15.8376 9.75864L17.3153 10.4404C17.3437 10.4536 17.3717 10.4679 17.3991 10.4832C18.2272 10.9493 19.0677 10.7845 20.4817 10.4533C22.2225 10.0456 24.3546 9.54771 26.8607 10.9356C30.3338 8.88135 32.9953 9.96782 34.9689 10.7747C36.3072 11.3216 37.0996 11.613 37.8192 11.2384L39.1032 10.5511L38.7882 9.73828C38.5413 9.10181 38.5579 8.40586 38.8344 7.77876C39.1112 7.15181 39.614 6.67061 40.2507 6.42378L43.0884 5.32368C44.4055 4.81318 45.8924 5.46929 46.403 6.78618L52.1178 21.5272C52.6281 22.8442 51.972 24.3312 50.6552 24.8417L47.8175 25.9418C47.5183 26.0578 47.2059 26.1157 46.8939 26.1157C46.5419 26.1157 46.1902 26.0421 45.8579 25.8955C45.2308 25.6188 44.7496 25.1158 44.5029 24.4793L44.3943 24.1988L42.7008 24.9054C42.7516 25.5476 42.6189 26.1987 42.3022 26.7746C41.9115 27.4849 41.2905 28.0189 40.5354 28.3C40.6961 29.0585 40.5977 29.8733 40.1987 30.5988C39.7681 31.3816 39.0561 31.9506 38.1939 32.2009C37.8824 32.2913 37.5653 32.3361 37.2504 32.3361C37.2464 32.3361 37.2425 32.3361 37.2386 32.3361C37.2095 32.8119 37.078 33.2874 36.8346 33.7298C36.4019 34.5164 35.6862 35.087 34.8196 35.3363C34.4241 35.45 34.0198 35.4902 33.6236 35.4586C33.5793 35.8913 33.45 36.3212 33.2285 36.7242C32.7959 37.5105 32.0502 38.101 31.1824 38.3442C30.8824 38.4283 30.578 38.4699 30.2764 38.4699C29.7107 38.4699 29.1548 38.3234 28.6542 38.036L28.1494 37.7461C27.7328 38.2226 27.1919 38.5772 26.569 38.7659C26.2396 38.8658 25.9031 38.9153 25.569 38.9153C25.0148 38.9153 24.4667 38.7794 23.9657 38.5115C23.3364 38.1749 22.8466 37.6633 22.5369 37.06C21.692 37.3172 20.7527 37.2492 19.9276 36.8079C19.3771 36.5134 18.9318 36.0804 18.6211 35.5682C17.711 35.9391 16.6501 35.9186 15.7197 35.4209C14.9165 34.9913 14.328 34.2725 14.0626 33.3968C13.9532 33.0359 13.9043 32.6666 13.9145 32.3011C13.4781 32.2581 13.0465 32.1306 12.6451 31.916C10.9826 31.027 10.3533 28.951 11.2425 27.2886L11.9245 26.0133C11.7808 25.6165 11.7039 25.2035 11.633 24.8224C11.55 24.3753 11.436 23.7631 11.2577 23.6938C11.1325 23.6452 10.8533 23.5295 9.93205 23.1207L9.77693 23.4718C9.35403 24.428 8.41374 24.9979 7.42995 24.9979C7.42966 24.9979 7.42951 24.9979 7.42922 24.9979V71.3212C7.42922 71.4543 7.54172 71.5668 7.67488 71.5668H59.0896C59.2227 71.5668 59.3352 71.4543 59.3352 71.3212V53.4952H59.3354ZM52.6862 60.3245L61.7012 44.71L58.5906 42.9141L49.5757 58.5286L49.7595 61.8018L52.6862 60.3245ZM69.894 32.29L65.2504 29.609L58.9961 40.4418L63.6397 43.1228L69.894 32.29ZM11.7908 9.65947C12.3126 9.68364 12.7551 9.28037 12.7793 8.75859C12.8034 8.23682 12.4002 7.79429 11.8784 7.77012C11.3566 7.74595 10.9141 8.14922 10.8899 8.671C10.8657 9.19277 11.269 9.6353 11.7908 9.65947ZM43.1311 8.69751C42.6089 8.69751 42.1854 9.12085 42.1854 9.64321C42.1854 10.1654 42.6089 10.5889 43.1311 10.5889C43.6533 10.5889 44.0768 10.1654 44.0768 9.64321C44.0768 9.12085 43.6533 8.69751 43.1311 8.69751Z" fill="white"/>
</svg>
