<svg width="75" height="76" viewBox="0 0 75 76" fill="none" xmlns="http://www.w3.org/2000/svg">
<g clip-path="url(#clip0_18_351413)">
<path d="M48.1819 44.6307L28.8637 29.517C27.9546 28.8352 26.5909 28.8352 25.6818 29.517L6.36366 44.6307C5.34094 45.4261 3.86366 45.3125 2.95457 44.2898C2.04548 43.267 2.15912 41.6761 3.29548 40.767L24.5455 24.0625C26.1364 22.8125 28.2955 22.8125 29.7728 24.0625L51.1364 40.767C52.2728 41.6761 52.3864 43.267 51.4773 44.2898C50.6818 45.3125 49.2046 45.4261 48.1819 44.6307Z" stroke="#01B8FF" stroke-width="2.5" stroke-miterlimit="10" stroke-linecap="round" stroke-linejoin="round"/>
<path d="M6.81821 44.1758V70.994H47.7273V44.5167" stroke="#01B8FF" stroke-width="2.5" stroke-miterlimit="10" stroke-linecap="round" stroke-linejoin="round"/>
<path d="M9.54549 34.9709V25.5391H14.0909V31.4482" stroke="#01B8FF" stroke-width="2.5" stroke-miterlimit="10" stroke-linecap="round" stroke-linejoin="round"/>
<path d="M7.50003 25.5391H16.1364" stroke="#01B8FF" stroke-width="2.5" stroke-miterlimit="10" stroke-linecap="round" stroke-linejoin="round"/>
<path d="M36.9319 29.6305V12.926L72.6137 7.24414V70.9941H47.7273" stroke="#01B8FF" stroke-width="2.5" stroke-miterlimit="10" stroke-linecap="round" stroke-linejoin="round"/>
<path d="M65.3409 0.538869L43.4091 4.40251C42.2728 4.62978 41.4773 5.53887 41.4773 6.67523V12.3571L67.9546 8.03887V2.8116C68.0682 1.44796 66.7046 0.311596 65.3409 0.538869Z" stroke="#01B8FF" stroke-width="2.5" stroke-miterlimit="10" stroke-linecap="round" stroke-linejoin="round"/>
<path d="M46.1364 23.7207H42.3864C41.7046 23.7207 41.1364 23.1525 41.1364 22.4707V18.7207C41.1364 18.0389 41.7046 17.4707 42.3864 17.4707H46.1364C46.8182 17.4707 47.3864 18.0389 47.3864 18.7207V22.4707C47.3864 23.2662 46.8182 23.7207 46.1364 23.7207Z" stroke="#01B8FF" stroke-width="2.5" stroke-miterlimit="10" stroke-linecap="round" stroke-linejoin="round"/>
<path d="M56.5909 23.7207H52.8409C52.1591 23.7207 51.5909 23.1525 51.5909 22.4707V18.7207C51.5909 18.0389 52.1591 17.4707 52.8409 17.4707H56.5909C57.2728 17.4707 57.8409 18.0389 57.8409 18.7207V22.4707C57.8409 23.2662 57.2728 23.7207 56.5909 23.7207Z" stroke="#01B8FF" stroke-width="2.5" stroke-miterlimit="10" stroke-linecap="round" stroke-linejoin="round"/>
<path d="M67.1591 23.7207H63.4091C62.7273 23.7207 62.1591 23.1525 62.1591 22.4707V18.7207C62.1591 18.0389 62.7273 17.4707 63.4091 17.4707H67.1591C67.8409 17.4707 68.4091 18.0389 68.4091 18.7207V22.4707C68.4091 23.2662 67.8409 23.7207 67.1591 23.7207Z" stroke="#01B8FF" stroke-width="2.5" stroke-miterlimit="10" stroke-linecap="round" stroke-linejoin="round"/>
<path d="M41.1364 32.8104V30.9922C41.1364 30.3104 41.7046 29.7422 42.3864 29.7422H46.1364C46.8182 29.7422 47.3864 30.3104 47.3864 30.9922V34.6286C47.3864 35.3104 46.8182 35.8785 46.1364 35.8785H45" stroke="#01B8FF" stroke-width="2.5" stroke-miterlimit="10" stroke-linecap="round" stroke-linejoin="round"/>
<path d="M56.5909 35.8789H52.8409C52.1591 35.8789 51.5909 35.3107 51.5909 34.6289V30.8789C51.5909 30.1971 52.1591 29.6289 52.8409 29.6289H56.5909C57.2728 29.6289 57.8409 30.1971 57.8409 30.8789V34.6289C57.8409 35.3107 57.2728 35.8789 56.5909 35.8789Z" stroke="#01B8FF" stroke-width="2.5" stroke-miterlimit="10" stroke-linecap="round" stroke-linejoin="round"/>
<path d="M67.1591 35.8789H63.4091C62.7273 35.8789 62.1591 35.3107 62.1591 34.6289V30.8789C62.1591 30.1971 62.7273 29.6289 63.4091 29.6289H67.1591C67.8409 29.6289 68.4091 30.1971 68.4091 30.8789V34.6289C68.4091 35.3107 67.8409 35.8789 67.1591 35.8789Z" stroke="#01B8FF" stroke-width="2.5" stroke-miterlimit="10" stroke-linecap="round" stroke-linejoin="round"/>
<path d="M67.1591 47.9258H63.4091C62.7273 47.9258 62.1591 47.3576 62.1591 46.6758V42.9258C62.1591 42.244 62.7273 41.6758 63.4091 41.6758H67.1591C67.8409 41.6758 68.4091 42.244 68.4091 42.9258V46.6758C68.4091 47.4712 67.8409 47.9258 67.1591 47.9258Z" stroke="#01B8FF" stroke-width="2.5" stroke-miterlimit="10" stroke-linecap="round" stroke-linejoin="round"/>
<path d="M52.0455 41.7891H56.5909C57.2728 41.7891 57.8409 42.3572 57.8409 43.0391V46.7891C57.8409 47.4709 57.2728 48.0391 56.5909 48.0391H52.5C51.8182 48.0391 51.25 47.4709 51.25 46.7891V45.1982" stroke="#01B8FF" stroke-width="2.5" stroke-miterlimit="10" stroke-linecap="round" stroke-linejoin="round"/>
<path d="M29.4318 70.9933H11.3637V69.516C11.3637 68.1523 12.5 66.9023 13.9773 66.9023H26.9318C28.2955 66.9023 29.5455 68.0387 29.5455 69.516V70.9933H29.4318Z" stroke="#01B8FF" stroke-width="2.5" stroke-miterlimit="10" stroke-linecap="round" stroke-linejoin="round"/>
<path d="M25.7955 46.7891H15C14.2046 46.7891 13.6364 47.3572 13.6364 48.1527V66.9027H27.1591V48.1527C27.1591 47.4709 26.5909 46.7891 25.7955 46.7891Z" stroke="#01B8FF" stroke-width="2.5" stroke-miterlimit="10" stroke-linecap="round" stroke-linejoin="round"/>
<path d="M41.1364 56.6747H33.9773C33.2955 56.6747 32.7273 56.1065 32.7273 55.4247V48.2656C32.7273 47.5838 33.2955 47.0156 33.9773 47.0156H41.1364C41.8182 47.0156 42.3864 47.5838 42.3864 48.2656V55.4247C42.3864 56.1065 41.8182 56.6747 41.1364 56.6747Z" stroke="#01B8FF" stroke-width="2.5" stroke-miterlimit="10" stroke-linecap="round" stroke-linejoin="round"/>
<path d="M23.1818 57.0156H21.25" stroke="#01B8FF" stroke-width="2.5" stroke-miterlimit="10" stroke-linecap="round" stroke-linejoin="round"/>
<path d="M23.1819 56.1074V58.0392" stroke="#01B8FF" stroke-width="2.5" stroke-miterlimit="10" stroke-linecap="round" stroke-linejoin="round"/>
<path d="M59.8864 70.994H47.7273V55.4258H57.2728C58.75 55.4258 59.8864 56.5621 59.8864 58.0394V70.994Z" stroke="#01B8FF" stroke-width="2.5" stroke-miterlimit="10" stroke-linecap="round" stroke-linejoin="round"/>
</g>
<defs>
<clipPath id="clip0_18_351413">
<rect width="75" height="75" fill="white" transform="translate(0 0.265625)"/>
</clipPath>
</defs>
</svg>
