<svg width="45" height="44" viewBox="0 0 45 44" fill="none" xmlns="http://www.w3.org/2000/svg">
<g clip-path="url(#clip0_18_351245)">
<path d="M44.7827 40.2671L42.2049 26.3763C42.1413 26.0333 41.8052 25.8057 41.4542 25.8679C41.1032 25.93 40.8704 26.2586 40.934 26.6015L42.024 32.4747L33.6209 22.9358L39.2726 21.7031L40.1095 22.1584L40.4728 24.1166C40.5364 24.4596 40.8725 24.6871 41.2235 24.625C41.5744 24.5629 41.8072 24.2343 41.7437 23.8914L41.3257 21.6395C41.2913 21.4535 41.1734 21.2925 41.0045 21.2006L39.686 20.4833C39.686 20.4833 39.686 20.4833 39.6859 20.4833L35.519 18.2165L32.3038 16.4675C32.3037 16.4675 32.3036 16.4674 32.3036 16.4674C32.3034 16.4673 32.3032 16.4671 32.3029 16.467C32.2781 16.4535 32.2527 16.4419 32.2266 16.4319C32.2185 16.4288 32.2101 16.4267 32.2018 16.424C32.1836 16.4178 32.1654 16.4118 32.147 16.4072C32.1365 16.4046 32.1259 16.4031 32.1152 16.401C32.0987 16.3979 32.082 16.3947 32.0652 16.3927C32.0539 16.3914 32.0426 16.391 32.0312 16.3903C32.015 16.3893 31.9987 16.3884 31.9825 16.3886C31.9709 16.3887 31.9594 16.3895 31.9477 16.3902C31.9318 16.3912 31.9158 16.3926 31.8998 16.3948C31.8882 16.3964 31.8766 16.3984 31.8651 16.4007C31.8494 16.4037 31.834 16.4073 31.8185 16.4114C31.8069 16.4145 31.7954 16.4178 31.784 16.4215C31.769 16.4265 31.7542 16.4321 31.7395 16.4382C31.7282 16.4429 31.7169 16.4475 31.7057 16.4529C31.7008 16.4552 31.6957 16.4568 31.6909 16.4592L30.2155 17.2108C31.3131 15.2107 31.8676 13.2736 31.8676 11.4205C31.8676 6.55232 27.8149 2.5918 22.8336 2.5918C17.8522 2.5918 13.8001 6.55232 13.8001 11.4205C13.8001 13.2916 14.3649 15.2484 15.484 17.2691L13.8942 16.4592C13.8893 16.4567 13.8841 16.455 13.8791 16.4527C13.8683 16.4475 13.8571 16.4429 13.8461 16.4384C13.8313 16.4323 13.8162 16.4266 13.801 16.4215C13.7897 16.4178 13.7783 16.4146 13.7669 16.4115C13.7514 16.4073 13.7359 16.4037 13.7202 16.4007C13.7086 16.3984 13.6969 16.3964 13.6852 16.3948C13.6695 16.3926 13.6537 16.3913 13.6379 16.3903C13.626 16.3895 13.6142 16.3888 13.6024 16.3886C13.5866 16.3884 13.5709 16.3893 13.555 16.3902C13.5432 16.391 13.5313 16.3914 13.5195 16.3928C13.5034 16.3947 13.4875 16.3978 13.4716 16.4008C13.4603 16.403 13.449 16.4046 13.4378 16.4073C13.4202 16.4117 13.4029 16.4175 13.3857 16.4233C13.3766 16.4263 13.3674 16.4287 13.3584 16.4321C13.3325 16.4421 13.3071 16.4537 13.2824 16.4671C13.2821 16.4671 13.2819 16.4673 13.2817 16.4675C13.2816 16.4675 13.2816 16.4676 13.2815 16.4676L4.58097 21.2006C4.41202 21.2925 4.29412 21.4535 4.25974 21.6395L1.80907 34.8447C1.74548 35.1876 1.97837 35.5161 2.32933 35.5783C2.68039 35.6407 3.0164 35.4128 3.08 35.0699L3.81519 31.1082L12.1735 26.7903L11.5013 35.2722L2.29255 39.3131L2.61662 37.5662C2.68022 37.2233 2.44741 36.8948 2.09644 36.8326C1.74574 36.7706 1.40946 36.998 1.34578 37.341L0.802747 40.2672C0.75995 40.4977 0.851387 40.7324 1.04011 40.8768C1.15586 40.9653 1.29637 41.0109 1.43817 41.0109C1.5278 41.0109 1.61795 40.9927 1.70259 40.9555L12.1154 36.3864L22.5239 40.9536C22.5241 40.9537 22.5244 40.9539 22.5247 40.9539L22.5282 40.9555C22.534 40.9581 22.5401 40.9598 22.5461 40.9623C22.5557 40.9661 22.5653 40.9697 22.5751 40.9732C22.5845 40.9765 22.5939 40.9797 22.6035 40.9826C22.6097 40.9844 22.6159 40.986 22.6221 40.9877C22.6302 40.9899 22.6382 40.992 22.6464 40.9938C22.6598 40.9969 22.6734 40.9992 22.6869 41.0014C22.6933 41.0024 22.6997 41.0039 22.7062 41.0048C22.7106 41.0053 22.715 41.0059 22.7194 41.0064C22.741 41.0089 22.7628 41.0101 22.7844 41.0104C22.7872 41.0104 22.7899 41.0109 22.7927 41.0109C22.7941 41.0109 22.7954 41.0106 22.7968 41.0106C22.8229 41.0105 22.8489 41.0084 22.8749 41.0051C22.8781 41.0047 22.8814 41.0048 22.8846 41.0043C22.8895 41.0037 22.8944 41.0021 22.8993 41.0013C22.9195 40.998 22.9397 40.9938 22.9597 40.9885C22.9652 40.987 22.9708 40.9862 22.9763 40.9847C22.9769 40.9845 22.9774 40.9845 22.978 40.9843C22.9798 40.9838 22.9814 40.9829 22.9832 40.9823C23.0083 40.9748 23.033 40.9661 23.0573 40.9555L33.4698 36.3863L43.8825 40.9554C43.8926 40.9597 43.9029 40.963 43.9132 40.9669C43.9234 40.9707 43.9333 40.975 43.9437 40.9784C43.9572 40.9828 43.971 40.986 43.9848 40.9895C43.9933 40.9917 44.0016 40.9943 44.0102 40.9961C44.0268 40.9996 44.0436 41.0019 44.0603 41.0042C44.0664 41.0049 44.0722 41.0063 44.0782 41.0069C44.1012 41.0094 44.1241 41.0106 44.147 41.0106C44.1471 41.0106 44.1473 41.0106 44.1473 41.0106C44.1787 41.0106 44.21 41.0075 44.2413 41.0031C44.2485 41.0021 44.2558 41.001 44.263 40.9996C44.2938 40.9942 44.3244 40.9871 44.3547 40.977C44.3566 40.9764 44.3585 40.9754 44.3603 40.9749C44.3803 40.9681 44.4001 40.9606 44.4196 40.9516C44.4252 40.949 44.4301 40.9453 44.4357 40.9425C44.452 40.9345 44.4676 40.9254 44.4832 40.9159C44.4989 40.9066 44.5144 40.8972 44.5291 40.8865C44.5342 40.8828 44.5399 40.8802 44.5449 40.8764C44.5563 40.8678 44.5662 40.8578 44.5768 40.8484C44.5853 40.8409 44.5942 40.8339 44.6023 40.826C44.6219 40.8071 44.6398 40.787 44.6564 40.7661C44.6595 40.7621 44.6632 40.7587 44.6663 40.7547C44.6855 40.7291 44.7025 40.7023 44.7176 40.6744C44.7218 40.6666 44.725 40.6583 44.7289 40.6503C44.7389 40.6298 44.7481 40.6091 44.7558 40.5877C44.7597 40.5769 44.7628 40.566 44.7661 40.5549C44.7719 40.5353 44.7768 40.5154 44.7807 40.4951C44.7829 40.4836 44.785 40.4719 44.7865 40.4601C44.7893 40.4387 44.7906 40.417 44.7912 40.3952C44.7915 40.3849 44.7923 40.3746 44.7921 40.3641C44.7916 40.332 44.7888 40.2995 44.7827 40.2671ZM33.431 18.5253L32.769 18.6766L32.7266 18.142L33.431 18.5253ZM32.0222 25.5989L29.3251 23.5409C29.1385 23.3985 28.8872 23.3673 28.6699 23.4596L23.4412 25.6836V24.992C23.8318 24.681 24.7195 23.9478 25.7834 22.8956L31.6097 20.3942L32.0222 25.5989ZM31.4215 18.0202L31.504 19.0609L27.8643 20.6236C28.2256 20.1858 28.5626 19.7503 28.8753 19.3172L31.4215 18.0202ZM14.164 18.0202L16.8409 19.3839C17.2374 19.9287 17.6716 20.4775 18.1449 21.0298C18.5587 21.5127 18.9711 21.9615 19.3678 22.3722L13.8799 21.6048L14.164 18.0202ZM12.2914 25.3016L4.10815 29.529L4.50672 27.3812L4.51695 27.3259L12.455 23.2374L12.2914 25.3016ZM12.573 21.7499L4.80982 25.7483L5.47601 22.1585L12.8589 18.1421L12.6733 20.4837L12.573 21.7499ZM12.7945 35.3006L13.4059 27.5851L21.0346 38.9164L12.7945 35.3006ZM22.1469 32.8681L18.1686 26.7408L22.1469 27.2063V32.8681ZM22.1469 25.935L16.971 25.3294C16.7236 25.3009 16.4808 25.4134 16.3478 25.6196C16.2149 25.8258 16.2153 26.0883 16.349 26.2943L22.1469 35.2241V38.2723L13.5687 25.5306L13.7799 22.866L20.9053 23.8624C21.4426 24.3497 21.8782 24.7116 22.1468 24.9277V25.935H22.1469ZM22.8341 23.8424C21.2033 22.4982 15.0918 17.0822 15.0918 11.4205C15.0917 7.24838 18.5649 3.85408 22.8341 3.85408C27.1033 3.85408 30.5765 7.24838 30.5765 11.4205C30.5765 17.0822 24.4649 22.4983 22.8341 23.8424ZM23.4385 39.4045V36.6031L25.3692 38.5573L23.4385 39.4045ZM26.6216 38.0077L23.4385 34.7857V27.0612L28.833 24.7668L32.1571 27.3033L32.7909 35.3006L26.6216 38.0077ZM32.8698 19.9497L35.1089 19.438L36.6968 20.3018L37.5754 20.7799L33.0143 21.7747L32.8698 19.9497ZM34.0841 35.2722L33.58 28.9104L41.8763 38.6915L34.0841 35.2722ZM33.4071 26.7287L33.2317 24.5141L33.2243 24.4203L42.4788 34.9258L43.0722 38.1233L33.4071 26.7287Z" fill="white"/>
<path d="M22.8341 7.51953C22.4775 7.51953 22.1883 7.80205 22.1883 8.15067C22.1883 8.49929 22.4775 8.78181 22.8341 8.78181C24.3228 8.78181 25.5339 9.9654 25.5339 11.4203C25.5339 12.875 24.3228 14.0587 22.8341 14.0587C21.3454 14.0587 20.1343 12.8751 20.1343 11.4203C20.1343 10.7243 20.4091 10.0676 20.9083 9.57109C21.1583 9.3225 21.1547 8.9229 20.9002 8.67868C20.6457 8.43437 20.2368 8.43781 19.9869 8.68657C19.2491 9.42051 18.8428 10.3914 18.8428 11.4203C18.8428 13.5711 20.6333 15.321 22.8342 15.321C25.0351 15.321 26.8256 13.5711 26.8256 11.4203C26.8256 9.26934 25.0351 7.51953 22.8341 7.51953Z" fill="white"/>
</g>
<defs>
<clipPath id="clip0_18_351245">
<rect width="44" height="43" fill="white" transform="translate(0.792358 0.300781)"/>
</clipPath>
</defs>
</svg>
