<svg width="40" height="40" viewBox="0 0 40 40" fill="none" xmlns="http://www.w3.org/2000/svg">
<path d="M30.2335 34.6699C30.444 34.9435 30.3928 35.3359 30.1192 35.5464C27.1955 37.7956 23.6959 38.9845 19.9988 38.9845C16.3017 38.9845 12.8021 37.7956 9.87831 35.5464C9.60472 35.3359 9.55355 34.9435 9.76402 34.6699C9.97448 34.3964 10.3668 34.3452 10.6405 34.5556C13.3439 36.6352 16.5799 37.7345 19.9989 37.7345C23.4178 37.7345 26.6539 36.6352 29.3571 34.5556C29.6307 34.3452 30.0231 34.3963 30.2336 34.6699H30.2335ZM4.01222 21.6138C4.03027 21.6154 4.04824 21.6161 4.06613 21.6161C4.38722 21.6161 4.66027 21.3701 4.68816 21.0442C5.1573 15.5513 8.56902 10.7048 13.5919 8.39586C13.9055 8.25172 14.0429 7.88062 13.8988 7.56695C13.7546 7.25328 13.3836 7.11601 13.0699 7.26016C7.63902 9.75656 3.95011 14.9976 3.44269 20.9379C3.41331 21.2818 3.66824 21.5845 4.01222 21.6138ZM26.4056 8.39367C31.4284 10.7025 34.8401 15.5499 35.3094 21.0442C35.3372 21.3701 35.6103 21.6161 35.9314 21.6161C35.9492 21.6161 35.9673 21.6153 35.9853 21.6138C36.3292 21.5845 36.5843 21.2818 36.5549 20.9379C36.0474 14.9962 32.3585 9.7543 26.9277 7.25797C26.6141 7.11383 26.243 7.25117 26.0988 7.56476C25.9546 7.87836 26.0921 8.24953 26.4056 8.39367H26.4056ZM12.9886 18.4886L14.3336 18.806C14.6467 18.8783 14.9156 19.0709 15.0876 19.3478C15.1906 19.5134 15.2502 19.697 15.2665 19.8855H16.6936C15.9341 18.6883 15.4253 17.0952 15.4253 15.0673C15.4253 14.7914 15.6061 14.5481 15.8703 14.4688L19.8189 13.2818C19.9362 13.2466 20.0614 13.2465 20.1787 13.2818L24.1271 14.4688C24.3914 14.5482 24.5722 14.7914 24.5722 15.0673C24.5722 17.234 23.9914 18.9043 23.1445 20.1257L23.747 20.428C24.0998 20.6052 24.451 20.6353 24.8177 20.5234L24.7583 20.2702C24.6835 19.9534 24.7372 19.6256 24.9099 19.3478C25.082 19.0709 25.3508 18.8783 25.6669 18.8053L27.0035 18.4894C27.66 18.339 28.3161 18.7461 28.4706 19.396L28.471 19.3977L30.1008 26.3402C30.255 26.993 29.8493 27.651 29.1963 27.8063L27.8523 28.1212C27.7597 28.1433 27.666 28.1541 27.5728 28.1541C27.3506 28.1541 27.1311 28.0923 26.936 27.972C26.8326 27.9081 26.7408 27.8307 26.6624 27.7424C26.3982 27.8585 26.1248 27.9152 25.856 27.9153C25.8521 27.9153 25.8481 27.9151 25.8442 27.915C25.7874 28.2227 25.6408 28.5168 25.4034 28.7541C25.1506 29.0084 24.8249 29.1659 24.4721 29.2104C24.429 29.5514 24.2784 29.8812 24.0171 30.1426C23.7163 30.4452 23.3132 30.6128 22.8835 30.6132C22.883 30.6132 22.8823 30.6132 22.8817 30.6132C22.5921 30.6132 22.315 30.5355 22.0716 30.393C22.003 30.5112 21.9204 30.6221 21.8216 30.7215C21.5078 31.0352 21.0956 31.1921 20.6835 31.1921C20.2744 31.1921 19.8657 31.0373 19.5535 30.728C19.4903 30.8282 19.4168 30.9227 19.3312 31.0084C19.0306 31.3109 18.6274 31.4785 18.1974 31.4791C18.1967 31.4791 18.1958 31.4791 18.195 31.4791C17.7659 31.4791 17.3632 31.3127 17.0611 31.0105L13.5141 27.4745C13.4137 27.6777 13.2593 27.8498 13.0615 27.9718C12.8667 28.092 12.6475 28.1538 12.425 28.1538C12.3311 28.1538 12.2367 28.1428 12.1433 28.1206L10.8033 27.8066C10.1483 27.6508 9.74261 26.9927 9.89698 26.3391L11.5271 19.3958C11.6817 18.7452 12.3377 18.3382 12.9887 18.4884L12.9886 18.4886ZM25.9824 20.0152L27.598 26.897L28.8771 26.5972L27.261 19.7129L25.9824 20.0152ZM23.1862 21.5452L22.3155 21.1083C21.6607 21.7466 20.9289 22.1906 20.2136 22.4526C20.1442 22.478 20.0714 22.4907 19.9987 22.4907C19.926 22.4907 19.8532 22.478 19.7838 22.4526C19.3561 22.2959 18.9227 22.0733 18.5032 21.784L16.7761 23.723C16.766 23.7343 16.7637 23.7392 16.7635 23.7397C16.7635 23.7397 16.7629 23.7449 16.7649 23.7563C16.7671 23.768 16.7698 23.7739 16.7706 23.7751C16.7706 23.7751 16.7737 23.7784 16.7832 23.7834C17.3764 24.0976 18.095 24.0587 18.6614 23.6832L19.6879 22.9996C20.4703 22.478 21.4834 22.578 22.1516 23.2429L25.3852 26.4677C25.5981 26.6677 25.8851 26.7186 26.1561 26.5994L26.236 26.5637L25.1042 21.743C24.8698 21.8073 24.6335 21.8395 24.3984 21.8395C23.9861 21.8395 23.577 21.741 23.1864 21.5449L23.1862 21.5452ZM16.6854 15.5289C16.827 18.7133 18.4279 20.5175 19.9988 21.1933C21.5696 20.5175 23.1705 18.7133 23.3121 15.5289L19.9988 14.5329L16.6854 15.5289ZM13.8772 26.0716L17.9442 30.1261C18.011 30.1928 18.0998 30.2291 18.195 30.2291H18.1956C18.2509 30.2291 18.3569 30.2155 18.446 30.1259C18.5135 30.0584 18.5499 29.9694 18.5497 29.8739C18.5497 29.8186 18.5361 29.7126 18.4464 29.6234C18.3567 29.5343 17.2386 28.4179 17.2386 28.4179C16.9943 28.1741 16.9939 27.7783 17.2378 27.5341C17.4816 27.2898 17.8773 27.2893 18.1216 27.5332L20.4335 29.8407C20.5717 29.978 20.7976 29.9776 20.9364 29.8389C21.0023 29.7726 21.0391 29.6821 21.0387 29.5855C21.0385 29.5309 21.0249 29.4262 20.9367 29.3391C20.9296 29.332 20.9232 29.3242 20.9164 29.3169L18.789 27.1958C18.5446 26.952 18.544 26.5563 18.7877 26.3119C19.0314 26.0674 19.4271 26.0668 19.6716 26.3105L22.6302 29.2602C22.769 29.3983 22.9944 29.3984 23.132 29.26C23.2694 29.1226 23.2694 28.8925 23.1333 28.7563L20.3415 25.9734C20.0971 25.7298 20.0964 25.334 20.3401 25.0895C20.5839 24.8451 20.9796 24.8445 21.224 25.0881L24.0165 27.8717C24.0832 27.9384 24.172 27.9748 24.2673 27.9748C24.3228 27.9785 24.4289 27.9615 24.5183 27.8715C24.6543 27.7355 24.6539 27.5076 24.5196 27.3705C24.5093 27.3609 24.4989 27.3516 24.4889 27.3416L21.2692 24.1284C21.0283 23.8887 20.6627 23.8521 20.381 24.04L19.3532 24.7245C18.4038 25.3538 17.1963 25.4168 16.2007 24.8894C15.8448 24.703 15.6074 24.3791 15.535 23.9788C15.4626 23.5784 15.5728 23.1912 15.8453 22.8889L17.407 21.1355H15.0362L13.8774 26.0716H13.8772ZM14.0151 20.0152L12.7364 19.7134L11.1203 26.5973L12.3996 26.897L14.0152 20.0152L14.0151 20.0152ZM19.5935 19.437C19.6002 19.437 19.607 19.4369 19.6138 19.4366C19.7824 19.4312 19.9417 19.3577 20.0554 19.233L21.7694 17.3529C22.002 17.0978 21.9837 16.7025 21.7286 16.4699C21.4735 16.2373 21.0781 16.2557 20.8457 16.5107L19.5645 17.9161L19.1214 17.4893C18.8728 17.2498 18.4771 17.2572 18.2377 17.5058C17.9982 17.7544 18.0056 18.15 18.2542 18.3895L19.1599 19.262C19.2765 19.3744 19.432 19.437 19.5935 19.437ZM14.9492 11.1453V9.39586C14.9492 7.80094 16.2006 6.47625 17.8273 6.24641C17.3775 5.5757 17.1437 4.71078 17.1437 3.87062C17.1437 2.29633 18.4245 1.01562 19.9987 1.01562C21.5729 1.01562 22.8537 2.29641 22.8537 3.87062C22.8537 4.7107 22.6199 5.57562 22.1702 6.24641C23.7969 6.47625 25.0483 7.80094 25.0483 9.39586V11.1453C25.0483 11.4905 24.7685 11.7703 24.4233 11.7703C24.0781 11.7703 23.7983 11.4905 23.7983 11.1453V9.39586C23.7983 8.32891 22.8418 7.46094 21.6662 7.46094H18.3311C17.1555 7.46094 16.1991 8.32898 16.1991 9.39586V11.1453C16.1991 11.4905 15.9192 11.7703 15.5741 11.7703C15.2289 11.7703 14.9491 11.4905 14.9491 11.1453H14.9492ZM18.3937 3.87062C18.3937 4.84234 18.8917 6.21086 19.9987 6.21086C21.2114 6.21086 21.6037 4.63414 21.6037 3.87062C21.6037 2.98562 20.8837 2.26562 19.9987 2.26562C19.1137 2.26562 18.3937 2.98562 18.3937 3.87062ZM16.8514 9.68594V11.1453C16.8514 11.4905 17.1312 11.7703 17.4764 11.7703C17.8215 11.7703 18.1014 11.4905 18.1014 11.1453V9.68594C18.1014 9.34078 17.8215 9.06094 17.4764 9.06094C17.1312 9.06094 16.8514 9.34078 16.8514 9.68594ZM21.896 9.68594V11.1453C21.896 11.4905 22.1759 11.7703 22.521 11.7703C22.8662 11.7703 23.146 11.4905 23.146 11.1453V9.68594C23.146 9.34078 22.8662 9.06094 22.521 9.06094C22.1759 9.06094 21.896 9.34078 21.896 9.68594ZM9.86464 30.8013C9.86464 29.7344 8.90823 28.8663 7.73261 28.8663H4.39761C3.22199 28.8663 2.2655 29.7344 2.2655 30.8013V32.5508C2.2655 32.8959 1.98566 33.1758 1.6405 33.1758C1.29535 33.1758 1.0155 32.8959 1.0155 32.5508V30.8013C1.0155 29.2066 2.26667 27.882 3.89316 27.652C3.44371 26.9817 3.21011 26.1177 3.21011 25.2784C3.21011 23.7041 4.49089 22.4234 6.06511 22.4234C7.63933 22.4234 8.92011 23.7041 8.92011 25.2784C8.92011 26.1177 8.68652 26.9817 8.23706 27.652C9.86347 27.882 11.1146 29.2066 11.1146 30.8013V32.5508C11.1146 32.8959 10.8348 33.1758 10.4896 33.1758C10.1445 33.1758 9.86464 32.8959 9.86464 32.5508V30.8013ZM4.46003 25.2784C4.46003 26.2492 4.958 27.6164 6.06503 27.6164C7.27769 27.6164 7.67003 26.0412 7.67003 25.2784C7.67003 24.3934 6.95003 23.6734 6.06503 23.6734C5.18003 23.6734 4.46003 24.3934 4.46003 25.2784ZM8.58737 30.4687C8.24222 30.4687 7.96238 30.7485 7.96238 31.0937V32.5508C7.96238 32.8959 8.24222 33.1758 8.58737 33.1758C8.93253 33.1758 9.21237 32.8959 9.21237 32.5508V31.0937C9.21237 30.7485 8.93253 30.4687 8.58737 30.4687ZM3.5405 30.4687C3.19535 30.4687 2.9155 30.7485 2.9155 31.0937V32.5508C2.9155 32.8959 3.19535 33.1758 3.5405 33.1758C3.88566 33.1758 4.1655 32.8959 4.1655 32.5508V31.0937C4.1655 30.7485 3.88566 30.4687 3.5405 30.4687ZM38.982 30.8013V32.5508C38.982 32.8959 38.7021 33.1758 38.357 33.1758C38.0118 33.1758 37.732 32.8959 37.732 32.5508V30.8013C37.732 29.7344 36.7755 28.8663 35.5999 28.8663H32.2648C31.0892 28.8663 30.1328 29.7344 30.1328 30.8013V32.5508C30.1328 32.8959 29.8529 33.1758 29.5078 33.1758C29.1626 33.1758 28.8828 32.8959 28.8828 32.5508V30.8013C28.8828 29.2066 30.1339 27.882 31.7604 27.652C31.311 26.9817 31.0774 26.1177 31.0774 25.2784C31.0774 23.7041 32.3581 22.4234 33.9324 22.4234C35.5066 22.4234 36.7874 23.7041 36.7874 25.2784C36.7874 26.1177 36.5538 26.9817 36.1043 27.652C37.7308 27.882 38.982 29.2066 38.982 30.8013ZM32.3274 25.2784C32.3274 26.0412 32.7197 27.6164 33.9324 27.6164C35.0394 27.6164 35.5374 26.2492 35.5374 25.2784C35.5374 24.3934 34.8174 23.6734 33.9324 23.6734C33.0474 23.6734 32.3274 24.3934 32.3274 25.2784ZM31.4101 30.4687C31.0649 30.4687 30.7851 30.7485 30.7851 31.0937V32.5508C30.7851 32.8959 31.0649 33.1758 31.4101 33.1758C31.7553 33.1758 32.0351 32.8959 32.0351 32.5508V31.0937C32.0351 30.7485 31.7553 30.4687 31.4101 30.4687ZM36.4547 30.4687C36.1096 30.4687 35.8297 30.7485 35.8297 31.0937V32.5508C35.8297 32.8959 36.1096 33.1758 36.4547 33.1758C36.7999 33.1758 37.0797 32.8959 37.0797 32.5508V31.0937C37.0797 30.7485 36.7999 30.4687 36.4547 30.4687Z" fill="url(#paint0_linear_18_351196)"/>
<defs>
<linearGradient id="paint0_linear_18_351196" x1="19.9987" y1="1.01562" x2="19.9987" y2="38.9845" gradientUnits="userSpaceOnUse">
<stop stop-color="#0CBBFF"/>
<stop offset="1" stop-color="#A9E4FC"/>
</linearGradient>
</defs>
</svg>
