<svg width="71" height="71" viewBox="0 0 71 71" fill="none" xmlns="http://www.w3.org/2000/svg">
<g clip-path="url(#clip0_18_351137)">
<path d="M19.3569 60.4422C19.3569 61.0462 18.8672 61.5359 18.2632 61.5359H15.7179C11.6572 61.5359 7.83658 59.9518 4.95988 57.0752C2.08318 54.1986 0.499023 50.378 0.499023 46.3172C0.499023 45.7132 0.98875 45.2235 1.59277 45.2235C2.1968 45.2235 2.68652 45.7132 2.68652 46.3172C2.68652 49.7938 4.04318 53.065 6.50658 55.5284C8.97012 57.9919 12.2413 59.3484 15.7177 59.3484H18.263C18.8672 59.3484 19.3569 59.8382 19.3569 60.4422ZM69.4053 45.2235C68.8012 45.2235 68.3115 45.7132 68.3115 46.3172C68.3115 49.7938 66.9549 53.065 64.4913 55.5284C62.0279 57.9919 58.7568 59.3484 55.2803 59.3484H52.735C52.131 59.3484 51.6413 59.8382 51.6413 60.4422C51.6413 61.0462 52.131 61.5359 52.735 61.5359H55.2803C59.341 61.5359 63.1616 59.9518 66.0382 57.0752C68.9147 54.1986 70.499 50.378 70.499 46.3172C70.499 45.7132 70.0093 45.2235 69.4053 45.2235ZM28.4095 50.2959C30.3311 52.2176 31.3893 54.7682 31.3893 57.4781V68.9881C31.3893 69.5921 30.8995 70.0818 30.2955 70.0818H23.32C22.716 70.0818 22.2262 69.5921 22.2262 68.9881V57.4781C22.2262 57.2151 22.1212 56.9653 21.9306 56.7747C21.7401 56.584 21.4903 56.4791 21.2272 56.4791H15.7179C13.008 56.4791 10.4571 55.4209 8.53563 53.4995C6.61391 51.5777 5.55557 49.0271 5.55557 46.3172V31.0773C5.55557 29.6902 6.1775 28.4464 7.15613 27.6074C5.63035 26.6241 4.61699 24.9113 4.61699 22.965C4.61699 19.9211 7.09338 17.4448 10.1373 17.4448C13.1812 17.4448 15.6574 19.9211 15.6574 22.965C15.6574 24.9129 14.6423 26.6273 13.1142 27.6101C14.0954 28.4492 14.7189 29.6918 14.7189 31.0773V31.5766L17.5031 33.3732H27.7017C29.5385 33.3732 31.0328 34.8677 31.0328 36.7045C31.0328 38.5413 29.5384 40.0357 27.7017 40.0357L16.5255 40.0335C15.8884 40.0307 15.2686 39.8477 14.7331 39.504L14.7189 39.4948V46.3171C14.7189 46.5803 14.8239 46.83 15.0145 47.0206C15.2049 47.2111 15.4547 47.3159 15.7179 47.3159H21.2272C23.9371 47.3161 26.4878 48.3744 28.4095 50.2959ZM16.8585 35.5607L12.6425 32.8403C12.3888 32.6773 12.084 32.6226 11.7867 32.6874C11.4893 32.7524 11.2351 32.9292 11.0708 33.1852C10.9065 33.4413 10.8515 33.7462 10.9164 34.0433C10.9812 34.3406 11.158 34.5948 11.4141 34.7591L15.9169 37.6647C16.0992 37.7816 16.3129 37.8449 16.5329 37.8461L27.702 37.8483C28.3322 37.8483 28.8453 37.3352 28.8453 36.7047C28.8453 36.074 28.3322 35.5609 27.7017 35.5609H16.8585V35.5607ZM6.80449 22.965C6.80449 24.8026 8.29965 26.2978 10.1373 26.2978C11.9749 26.2978 13.4699 24.8026 13.4699 22.965C13.4699 21.1273 11.9749 19.6323 10.1373 19.6323C8.29965 19.6323 6.80449 21.1273 6.80449 22.965ZM29.2016 57.4781C29.2016 55.3524 28.3709 53.351 26.8625 51.8427C25.3542 50.3343 23.3528 49.5036 21.2271 49.5036H15.7177C14.8705 49.5036 14.0714 49.1711 13.4675 48.5676C12.8637 47.9634 12.5312 47.1643 12.5312 46.3171V38.0833L10.2301 36.5984C9.48459 36.1199 8.96834 35.3774 8.77912 34.5094C8.58977 33.6411 8.74986 32.7512 9.22988 32.0033C9.7099 31.2556 10.4523 30.7396 11.3204 30.5501C11.6996 30.4673 12.0829 30.4513 12.4569 30.4994C12.1953 29.4639 11.2513 28.6936 10.1268 28.6936C8.81248 28.6936 7.74307 29.7629 7.74307 31.0773V46.3172C7.74307 48.4429 8.57377 50.4443 10.0822 51.9529C11.5905 53.461 13.592 54.2917 15.7177 54.2917H21.2271C22.0743 54.2917 22.8736 54.6242 23.4773 55.228C24.0811 55.8317 24.4136 56.631 24.4136 57.4782V67.8943H29.2016V57.4781ZM55.2803 56.4792H49.771C49.5078 56.4792 49.258 56.5842 49.0674 56.7748C48.8768 56.9654 48.772 57.2152 48.772 57.4782V68.9881C48.772 69.5921 48.2822 70.0818 47.6782 70.0818H40.7027C40.0987 70.0818 39.6089 69.5921 39.6089 68.9881V57.4781C39.6089 54.7682 40.6671 52.2174 42.5887 50.2959C44.5104 48.3743 47.0611 47.3161 49.771 47.3161H55.2803C55.5435 47.3161 55.7933 47.2111 55.9839 47.0205C56.1743 46.83 56.2792 46.5801 56.2792 46.3171V39.4948L56.2671 39.5026C55.7296 39.8477 55.1098 40.0309 54.4724 40.0336L43.2966 40.0358C41.4595 40.0358 39.9652 38.5413 39.9652 36.7047C39.9652 34.8677 41.4597 33.3734 43.2964 33.3734H53.4949L56.2792 31.5767V31.0774C56.2792 29.6918 56.9026 28.4492 57.8839 27.6103C56.3557 26.6275 55.3405 24.9132 55.3405 22.9651C55.3405 19.9212 57.8169 17.4449 60.8608 17.4449C63.9047 17.4449 66.3809 19.9212 66.3809 22.9651C66.3809 24.9113 65.3677 26.6242 63.8419 27.6075C64.8204 28.4466 65.4423 29.6904 65.4423 31.0774V46.3173C65.4423 49.0274 64.3841 51.5781 62.4626 53.4997C60.541 55.421 57.9904 56.4792 55.2803 56.4792ZM57.528 22.965C57.528 24.8026 59.0231 26.2978 60.8608 26.2978C62.6984 26.2978 64.1934 24.8026 64.1934 22.965C64.1934 21.1273 62.6984 19.6323 60.8608 19.6323C59.0231 19.6323 57.528 21.1273 57.528 22.965ZM59.5816 34.7605C59.84 34.5947 60.0168 34.3405 60.0815 34.0431C60.1464 33.7459 60.0914 33.4412 59.9271 33.1852C59.7628 32.929 59.5085 32.7523 59.2113 32.6873C58.9139 32.6226 58.6094 32.6773 58.3532 32.8417L54.1395 35.5607H43.2964C42.6658 35.5607 42.1527 36.0738 42.1527 36.7045C42.1527 37.3351 42.6658 37.8482 43.2964 37.8482L54.4651 37.846C54.685 37.8447 54.8987 37.7815 55.0832 37.6632L59.5816 34.7605ZM49.771 54.2917H55.2803C57.406 54.2917 59.4074 53.4612 60.9157 51.9528C62.4241 50.4445 63.2548 48.4429 63.2548 46.3172V31.0773C63.2548 29.763 62.1857 28.6936 60.8713 28.6936C59.7466 28.6936 58.8026 29.464 58.5411 30.4995C58.915 30.4513 59.2982 30.4674 59.6775 30.5501C60.5456 30.7396 61.288 31.2556 61.768 32.0034C62.248 32.7512 62.4081 33.6412 62.2188 34.5094C62.0294 35.3775 61.5133 36.1199 60.7655 36.5999L58.4667 38.0833V46.3172C58.4667 47.1642 58.1343 47.9633 57.5308 48.5673C56.9265 49.1712 56.1274 49.5037 55.2802 49.5037H49.7708C47.6451 49.5037 45.6437 50.3344 44.1354 51.8428C42.627 53.3511 41.7963 55.3525 41.7963 57.4782V67.8943H46.5843V57.4781C46.5843 56.631 46.9168 55.8319 47.5203 55.228C48.1243 54.6241 48.9234 54.2917 49.771 54.2917ZM50.7023 44.7626C51.3063 44.7626 51.796 44.2729 51.796 43.6688C51.796 43.0648 51.3063 42.5751 50.7023 42.5751H20.2956C19.6916 42.5751 19.2019 43.0648 19.2019 43.6688C19.2019 44.2729 19.6916 44.7626 20.2956 44.7626H34.4053V68.9881C34.4053 69.5921 34.895 70.0818 35.499 70.0818C36.103 70.0818 36.5928 69.5921 36.5928 68.9881V44.7626H50.7023ZM20.8347 20.7474C19.129 18.1143 18.403 14.9774 18.7865 11.8464C19.6838 4.51737 26.3766 -0.716092 33.706 0.182423C35.3469 0.3834 36.906 0.87463 38.3262 1.62262C44.638 1.65817 50.0935 6.12942 51.3533 12.3561C51.979 15.4476 51.4989 18.6315 50.0032 21.3893L52.1976 25.7997C52.3958 26.1981 52.3329 26.677 52.0383 27.0106C51.7439 27.3442 51.2766 27.4664 50.8564 27.3189L46.2803 25.7142C44.6939 26.9077 42.841 27.741 40.884 28.137C40.0054 28.3149 39.1165 28.4025 38.2308 28.4025C36.0712 28.4025 33.9303 27.879 32.0011 26.8647C31.4885 26.8616 30.9714 26.8297 30.4505 26.7659C28.4689 26.5233 26.5568 25.8362 24.8823 24.7698L20.4449 26.7254C20.0372 26.9049 19.5621 26.8197 19.2426 26.5099C18.923 26.2001 18.823 25.7276 18.9895 25.315L20.8347 20.7474ZM41.9727 4.44983C42.1995 4.6992 42.4181 4.95815 42.6278 5.22639C44.8309 8.04416 45.8047 11.5514 45.37 15.1017C44.7337 20.2985 41.1817 24.4382 36.5568 26.0889C37.8407 26.2826 39.1587 26.2541 40.4502 25.993C42.2606 25.6266 43.964 24.8135 45.3761 23.6414C45.6717 23.3963 46.0742 23.3241 46.4367 23.451L49.0399 24.3639L47.7846 21.8409C47.6179 21.5062 47.6339 21.1096 47.827 20.7894C49.2756 18.3845 49.7666 15.5436 49.2093 12.7901C48.4096 8.83795 45.592 5.73416 41.9727 4.44983ZM22.9578 19.9801C23.1751 20.2845 23.2218 20.6786 23.0818 21.0253L22.0263 23.6382L24.5506 22.5257C24.6918 22.4635 24.8421 22.4327 24.9916 22.4327C25.2142 22.4327 25.4352 22.5005 25.6227 22.6331C27.1219 23.6919 28.8833 24.3702 30.7166 24.5948C31.1765 24.6511 31.6341 24.6785 32.0864 24.6785C37.6619 24.6789 42.5044 20.5077 43.1989 14.8358C43.5626 11.8653 42.7479 8.93119 40.9047 6.57362C39.0615 4.21604 36.4105 2.71733 33.44 2.35365C30.4701 1.99067 27.5354 2.80469 25.1779 4.64779C22.8203 6.49104 21.3216 9.14201 20.9578 12.1125C20.6162 14.901 21.3265 17.6951 22.9578 19.9801ZM37.2792 14.8413C38.0342 14.8413 38.6464 14.229 38.6464 13.4741C38.6464 12.7191 38.0343 12.1069 37.2792 12.1069C36.5241 12.1069 35.912 12.719 35.912 13.4741C35.912 14.2292 36.524 14.8413 37.2792 14.8413ZM32.1039 14.8413C32.859 14.8413 33.4711 14.229 33.4711 13.4741C33.4711 12.7191 32.8588 12.1069 32.1039 12.1069C31.3488 12.1069 30.7367 12.719 30.7367 13.4741C30.7367 14.2292 31.3488 14.8413 32.1039 14.8413ZM26.9541 14.8413C27.7092 14.8413 28.3213 14.229 28.3213 13.4741C28.3213 12.7191 27.7092 12.1069 26.9541 12.1069C26.1991 12.1069 25.5869 12.7191 25.5869 13.4741C25.5869 14.229 26.199 14.8413 26.9541 14.8413Z" fill="white"/>
</g>
<defs>
<clipPath id="clip0_18_351137">
<rect width="70" height="70" fill="white" transform="translate(0.499023 0.0820312)"/>
</clipPath>
</defs>
</svg>
