<svg width="51" height="51" viewBox="0 0 51 51" fill="none" xmlns="http://www.w3.org/2000/svg">
<g clip-path="url(#clip0_18_277896)">
<path d="M8.37699 39.0108C7.2784 37.5151 6.6978 35.7438 6.6978 33.8883V29.1042C6.6978 28.7014 6.37144 28.375 5.96865 28.375C5.56587 28.375 5.2395 28.7014 5.2395 29.1042V33.8883C5.2395 36.0566 5.918 38.1265 7.2017 39.8741L10.5838 44.4781V49.5142C10.5838 49.917 10.9102 50.2434 11.3129 50.2434C11.7157 50.2434 12.0421 49.917 12.0421 49.5142V44.2391C12.0421 44.0837 11.9925 43.9325 11.9006 43.8074L8.37699 39.0108Z" fill="url(#paint0_linear_18_277896)"/>
<path d="M43.4491 21.1906C42.4183 21.1906 41.5263 21.7953 41.1086 22.6685C40.741 22.4497 40.3121 22.3235 39.8541 22.3235C39.3184 22.3235 38.8225 22.496 38.418 22.7879C38.6878 21.5831 38.8262 20.3484 38.8262 19.1094V15.3124C38.8262 14.9096 38.4998 14.5832 38.097 14.5832C37.6942 14.5832 37.3679 14.9096 37.3679 15.3124V19.1095C37.3679 24.3872 34.7133 29.2353 30.2669 32.0784L25.7467 34.9687C25.6538 35.0284 25.5339 35.0281 25.4409 34.9682L20.9685 32.086C16.5509 29.2393 13.9135 24.4021 13.9135 19.1466V6.47592L15.1299 6.2039C18.7463 5.39503 22.1573 3.96415 25.268 1.95082L25.5921 1.74111L25.8782 1.92622C29.015 3.95637 32.4553 5.39387 36.1037 6.19875L37.3679 6.47758V12.2049C37.3679 12.6077 37.6942 12.9341 38.097 12.9341C38.4998 12.9341 38.8262 12.6077 38.8262 12.2049V6.31493C38.8262 5.72101 38.4211 5.21673 37.8409 5.08869L36.418 4.77467C32.9403 4.00741 29.6607 2.63719 26.6706 0.702023L26.2747 0.445654C25.86 0.177034 25.3242 0.176937 24.9098 0.445556L24.4756 0.72662C21.5104 2.64565 18.2591 4.00974 14.8117 4.7807L13.4369 5.08811C12.859 5.21741 12.4552 5.7214 12.4552 6.31357V19.1466C12.4552 20.3835 12.5895 21.5989 12.847 22.7762C12.4455 22.4915 11.9558 22.3234 11.4272 22.3234C10.9692 22.3234 10.5403 22.4496 10.1727 22.6684C9.75503 21.7952 8.86304 21.1905 7.83221 21.1905C6.4025 21.1905 5.23926 22.3537 5.23926 23.7834V25.9974C5.23926 26.4002 5.56563 26.7266 5.96841 26.7266C6.37119 26.7266 6.69756 26.4002 6.69756 25.9974V23.7834C6.69756 23.1577 7.20651 22.6488 7.83221 22.6488C8.45783 22.6488 8.96677 23.1577 8.96677 23.7834V30.0506C8.96677 30.4859 9.12417 30.9063 9.41 31.2345L11.4699 33.6001C11.2526 34.3465 11.383 35.1798 11.893 35.8508L14.2351 38.9326C14.4789 39.2531 14.9362 39.3155 15.2569 39.072C15.5775 38.8282 15.6399 38.3708 15.3963 38.0502L13.0541 34.9684C12.6944 34.4951 12.7757 33.8327 13.2392 33.4603C13.6957 33.0935 14.3555 33.1516 14.741 33.5926L18.2961 37.6584C20.0354 39.6475 20.5164 42.4112 19.5517 44.8713C19.4715 45.0761 19.4308 45.2914 19.4308 45.5113V49.5149C19.4308 49.9177 19.7571 50.244 20.1599 50.244C20.5627 50.244 20.8891 49.9177 20.8891 49.5149V45.5113C20.8891 45.4742 20.896 45.4379 20.9095 45.4034C22.0737 42.4346 21.493 39.0991 19.394 36.6985L17.2351 34.2295V30.9099C18.1119 31.8065 19.0959 32.6141 20.1785 33.3118L24.651 36.194C24.9372 36.3784 25.2655 36.4707 25.594 36.4707C25.9204 36.4707 26.247 36.3795 26.532 36.1973L31.0523 33.3069C32.1426 32.6099 33.1465 31.7869 34.046 30.8628V34.2295L31.8871 36.6985C29.7881 39.0991 29.2075 42.4346 30.3715 45.4031C30.3851 45.4379 30.392 45.4742 30.392 45.5113V49.5149C30.392 49.9177 30.7184 50.244 31.1212 50.244C31.524 50.244 31.8503 49.9177 31.8503 49.5149V45.5113C31.8503 45.2914 31.8096 45.0761 31.7293 44.871C30.7647 42.4111 31.2457 39.6474 32.985 37.6584L36.5401 33.5926C36.9257 33.1516 37.5854 33.0936 38.042 33.4604C38.5055 33.8327 38.5868 34.4951 38.2269 34.9684L35.8848 38.0502C35.6411 38.3708 35.7036 38.8282 36.0242 39.072C36.3448 39.3155 36.8022 39.2531 37.046 38.9326L39.388 35.8508C39.898 35.1798 40.0285 34.3465 39.8112 33.6001L41.8711 31.2345C42.1568 30.9063 42.3143 30.4859 42.3143 30.0506V23.7834C42.3143 23.1577 42.8233 22.6488 43.4489 22.6488C44.0746 22.6488 44.5835 23.1577 44.5835 23.7834V33.8889C44.5835 35.7444 44.0028 37.5159 42.9045 39.0113L42.4665 39.6075C42.2281 39.932 42.2979 40.3883 42.6224 40.6267C42.7525 40.7223 42.9037 40.7684 43.0536 40.7684C43.2778 40.7684 43.4989 40.6652 43.6418 40.4708L44.0798 39.8745C45.3634 38.1269 46.042 36.057 46.042 33.8888V23.7835C46.042 22.3538 44.8788 21.1906 43.4491 21.1906ZM10.4253 30.0507V24.784C10.4253 24.2313 10.8748 23.7818 11.4274 23.7818C11.9801 23.7818 12.4297 24.2313 12.4297 24.784V32.2446C12.3948 32.2699 12.3601 32.2961 12.3262 32.3235C12.3195 32.329 12.3132 32.3347 12.3066 32.3402L10.5101 30.277C10.4553 30.2143 10.4253 30.134 10.4253 30.0507ZM15.777 32.5653C15.2701 32.025 14.5804 31.7513 13.8879 31.7604V25.9635C14.3937 27.1098 15.0272 28.1959 15.777 29.2025V32.5653ZM35.5046 32.5653V29.1971C35.5046 29.1825 35.5032 29.1681 35.5023 29.1535C35.9632 28.5334 36.3834 27.8824 36.7556 27.2028C36.9876 26.779 37.1995 26.345 37.3936 25.9036V31.7604C36.7012 31.7511 36.0115 32.0248 35.5046 32.5653ZM40.7715 30.277L38.9751 32.3402C38.9685 32.3347 38.9622 32.329 38.9556 32.3236C38.9215 32.2963 38.8869 32.27 38.852 32.2447V24.7841C38.852 24.2314 39.3016 23.7819 39.8543 23.7819C40.4069 23.7819 40.8564 24.2314 40.8564 24.7841V30.0508C40.8562 30.1339 40.8262 30.2143 40.7715 30.277Z" fill="url(#paint1_linear_18_277896)"/>
<path d="M41.6444 41.958C41.3199 41.7194 40.8636 41.7895 40.6252 42.114L39.3811 43.8075C39.2891 43.9327 39.2395 44.0839 39.2395 44.2392V49.5144C39.2395 49.9171 39.5659 50.2435 39.9687 50.2435C40.3714 50.2435 40.6978 49.9171 40.6978 49.5144V44.4783L41.8004 42.9774C42.0388 42.6528 41.969 42.1965 41.6444 41.958Z" fill="url(#paint2_linear_18_277896)"/>
<path d="M25.9701 3.70245C25.7382 3.56255 25.4478 3.56274 25.2159 3.70293C22.334 5.44687 19.2103 6.7294 15.9311 7.51454C15.6032 7.5931 15.3718 7.88631 15.3718 8.22367V19.1461C15.3718 23.9036 17.7595 28.2825 21.7585 30.8596L25.2033 33.0795C25.3235 33.157 25.4608 33.1957 25.5982 33.1957C25.7347 33.1957 25.8713 33.1574 25.991 33.0808L29.4812 30.8491C33.5064 28.2753 35.9095 23.8864 35.9095 19.1088V8.23115C35.9095 7.89273 35.6765 7.59874 35.3472 7.52135C32.0351 6.74281 28.8801 5.45795 25.9701 3.70245ZM34.4514 19.1089C34.4514 23.3865 32.2997 27.3161 28.6958 29.6206L25.5999 31.6001L22.5485 29.6337C18.9679 27.3262 16.8302 23.4056 16.8302 19.146V8.79386C19.9104 8.00123 22.8538 6.78598 25.5941 5.17533C28.3629 6.79755 31.3379 8.0161 34.4514 8.80368V19.1089Z" fill="url(#paint3_linear_18_277896)"/>
<path d="M20.1352 9.71875C19.3468 9.71875 18.7053 10.3602 18.7053 11.1487V15.7388C18.7053 18.629 20.2783 21.29 22.8105 22.6834L23.4364 23.0278V25.2344L22.5178 26.3162C22.2401 26.643 22.1796 27.0879 22.3595 27.4771C22.5397 27.8663 22.918 28.1081 23.3468 28.1081H27.9351C28.3639 28.1081 28.7423 27.8663 28.9224 27.4771C29.1024 27.0878 29.0419 26.643 28.7642 26.3164L27.8455 25.2344V23.0278L28.4714 22.6833C31.0035 21.29 32.5765 18.629 32.5765 15.7388V11.1487C32.5765 10.3602 31.935 9.71875 31.1466 9.71875H20.1352ZM31.1181 15.7387C31.1181 18.0972 29.8345 20.2686 27.7683 21.4056L26.7648 21.9578C26.5318 22.0859 26.3871 22.3308 26.3871 22.5966V25.5021C26.3871 25.675 26.4485 25.8423 26.5604 25.974L27.1341 26.6497H24.1474L24.7211 25.974C24.833 25.8423 24.8945 25.675 24.8945 25.5021V22.5966C24.8945 22.3308 24.7498 22.0859 24.5168 21.9578L23.5133 21.4056C21.447 20.2686 20.1634 18.0972 20.1634 15.7387V11.177H26.6675L25.2646 15.5031C25.1925 15.725 25.2311 15.968 25.3683 16.1568C25.5055 16.3456 25.7247 16.4572 25.958 16.4572H27.3692L26.6033 18.5366C26.4641 18.9145 26.6576 19.3336 27.0355 19.4728C27.1186 19.5034 27.2037 19.518 27.2874 19.518C27.5842 19.518 27.8632 19.3354 27.9718 19.0406L29.099 15.9801C29.1815 15.7564 29.1493 15.5067 29.0129 15.311C28.8765 15.1154 28.6532 14.999 28.4148 14.999H26.9613L28.2006 11.1771H31.1182V15.7387H31.1181Z" fill="url(#paint4_linear_18_277896)"/>
</g>
<defs>
<linearGradient id="paint0_linear_18_277896" x1="8.6408" y1="28.375" x2="8.6408" y2="50.2434" gradientUnits="userSpaceOnUse">
<stop stop-color="#0CBBFF"/>
<stop offset="1" stop-color="#A9E4FC"/>
</linearGradient>
<linearGradient id="paint1_linear_18_277896" x1="25.6406" y1="0.244141" x2="25.6406" y2="50.244" gradientUnits="userSpaceOnUse">
<stop stop-color="#0CBBFF"/>
<stop offset="1" stop-color="#A9E4FC"/>
</linearGradient>
<linearGradient id="paint2_linear_18_277896" x1="40.5907" y1="41.8164" x2="40.5907" y2="50.2435" gradientUnits="userSpaceOnUse">
<stop stop-color="#0CBBFF"/>
<stop offset="1" stop-color="#A9E4FC"/>
</linearGradient>
<linearGradient id="paint3_linear_18_277896" x1="25.6406" y1="3.59766" x2="25.6406" y2="33.1957" gradientUnits="userSpaceOnUse">
<stop stop-color="#0CBBFF"/>
<stop offset="1" stop-color="#A9E4FC"/>
</linearGradient>
<linearGradient id="paint4_linear_18_277896" x1="25.6409" y1="9.71875" x2="25.6409" y2="28.1081" gradientUnits="userSpaceOnUse">
<stop stop-color="#0CBBFF"/>
<stop offset="1" stop-color="#A9E4FC"/>
</linearGradient>
<clipPath id="clip0_18_277896">
<rect width="50" height="50" fill="white" transform="translate(0.640869 0.244141)"/>
</clipPath>
</defs>
</svg>
