<svg width="40" height="40" viewBox="0 0 40 40" fill="none" xmlns="http://www.w3.org/2000/svg">
<g clip-path="url(#clip0_18_351221)">
<path d="M13.6233 6.54883L16.8453 8.88031L15.609 12.6604C15.5043 12.9807 15.6135 13.3162 15.8872 13.5149C16.0242 13.6144 16.1808 13.6641 16.3373 13.6641C16.4936 13.6641 16.6497 13.6145 16.7856 13.5152L19.9988 11.1713L23.2118 13.5152C23.484 13.7138 23.8368 13.7135 24.1104 13.5148C24.3841 13.3159 24.4931 12.9805 24.3884 12.6602L23.1522 8.88023L26.3742 6.54875C26.6477 6.35086 26.7569 6.01516 26.6524 5.69367C26.5481 5.37266 26.2633 5.16555 25.9264 5.16555C25.9259 5.16555 25.9252 5.16555 25.9248 5.16555L21.9477 5.1732L20.726 1.38844C20.6223 1.06711 20.3369 0.859375 19.9988 0.859375C19.6609 0.859375 19.3754 1.06703 19.2717 1.38844L18.0499 5.1732L14.0728 5.16555C14.0723 5.16555 14.0717 5.16555 14.0712 5.16555C13.7343 5.16555 13.4495 5.37274 13.3452 5.69375C13.2406 6.01531 13.3499 6.35094 13.6233 6.54883ZM18.0606 5.95445H18.0623C18.3951 5.95445 18.6872 5.74188 18.7895 5.42508L19.9988 1.67898L21.2081 5.42508C21.3104 5.74195 21.6024 5.95445 21.9352 5.95445H21.9368L25.8733 5.94695L22.6842 8.25469C22.4141 8.45016 22.3022 8.79445 22.4059 9.11133L23.6295 12.8528L20.4493 10.533C20.3145 10.4346 20.1567 10.3854 19.9988 10.3854C19.841 10.3854 19.6831 10.4345 19.5485 10.5328L16.3682 12.8527L17.5919 9.11117C17.6954 8.7943 17.5835 8.45008 17.3136 8.25469L14.1245 5.94695L18.0606 5.95445ZM11.662 18.7901C11.9357 18.5913 12.0448 18.2559 11.9401 17.9355L10.7038 14.1555L13.9259 11.8241C14.1994 11.6261 14.3085 11.2905 14.2041 10.969C14.0998 10.648 13.8149 10.4409 13.4781 10.4409C13.4775 10.4409 13.4769 10.4409 13.4764 10.4409L9.49947 10.4484L8.27767 6.66375C8.17392 6.34234 7.88853 6.13469 7.5504 6.13469C7.21243 6.13469 6.92697 6.34234 6.82322 6.66375L5.60142 10.4485L1.62439 10.4409C1.62384 10.4409 1.62329 10.4409 1.62275 10.4409C1.28595 10.4409 1.00111 10.648 0.89681 10.9691C0.792279 11.2906 0.901575 11.6263 1.17509 11.8241L4.39697 14.1555L3.16072 17.9357C3.05603 18.256 3.16525 18.5914 3.43892 18.7902C3.57579 18.8896 3.73243 18.9394 3.889 18.9394C4.04525 18.9394 4.20142 18.8898 4.33736 18.7905L7.55048 16.4467L10.7635 18.7906C11.0357 18.989 11.3885 18.9888 11.662 18.7901ZM7.55048 15.6607C7.39259 15.6607 7.23478 15.7098 7.10001 15.808L3.91978 18.1279L5.14329 14.3866C5.24697 14.0696 5.13517 13.7253 4.86501 13.5299L1.67595 11.2222L5.61228 11.2297H5.61392C5.94689 11.2297 6.239 11.017 6.34111 10.7003L7.5504 6.9543L8.7597 10.7002C8.86189 11.0171 9.15392 11.2297 9.48681 11.2297H9.48845L13.4249 11.2223L10.2358 13.5299C9.96572 13.7254 9.85384 14.0697 9.95751 14.3866L11.1811 18.128L8.00087 15.8081C7.86611 15.7098 7.70837 15.6607 7.55048 15.6607ZM39.1007 10.969C38.9963 10.6475 38.7134 10.438 38.3731 10.4409L34.3961 10.4485L33.1744 6.66383C33.0707 6.34242 32.7853 6.13477 32.4473 6.13469C32.4472 6.13469 32.4472 6.13469 32.4471 6.13469C32.1092 6.13469 31.8237 6.34234 31.7199 6.66375L30.4982 10.4485L26.5212 10.4409C26.5206 10.4409 26.5201 10.4409 26.5195 10.4409C26.1827 10.4409 25.8978 10.6481 25.7935 10.9691C25.6891 11.2906 25.7983 11.6263 26.0718 11.8241L29.2938 14.1555L28.0574 17.9356C27.9527 18.2559 28.062 18.5913 28.3356 18.7901C28.4725 18.8895 28.6292 18.9393 28.7857 18.9393C28.942 18.9393 29.0982 18.8897 29.2342 18.7905L32.4473 16.4466L35.6602 18.7905C35.9325 18.9891 36.2852 18.9888 36.5588 18.7902C36.8325 18.5913 36.9416 18.2559 36.8369 17.9356L35.6007 14.1555L38.8227 11.8241C39.096 11.6262 39.2052 11.2905 39.1007 10.969ZM35.1324 13.5299C34.8622 13.7255 34.7503 14.0698 34.8542 14.3866L36.0777 18.128L32.8974 15.8081C32.6281 15.6116 32.2661 15.6117 31.9968 15.8081L28.8165 18.128L30.0401 14.3866C30.1438 14.0697 30.032 13.7255 29.7618 13.53L26.5727 11.2223L30.5092 11.2298H30.5108C30.8436 11.2298 31.1356 11.0172 31.238 10.7004L32.4473 6.95438L33.6566 10.7002C33.7589 11.0177 34.0524 11.2267 34.3853 11.2298L38.3217 11.2223L35.1324 13.5299ZM29.7417 23.9402H23.025C22.1238 22.2388 22.348 21.4344 22.6059 20.5081C22.7816 19.8772 22.9808 19.162 22.8559 18.1448C22.7288 17.1086 22.1814 16.1152 21.4614 15.6138C20.9894 15.2851 20.4643 15.1766 19.9435 15.2996C19.404 15.4271 18.4884 15.9271 18.4181 17.8429C18.3652 19.2831 17.2785 21.4407 16.4141 22.2668C16.1888 22.482 15.9593 22.681 15.7374 22.8734C15.176 23.3602 14.5987 23.8622 14.0336 24.667C13.6408 24.2083 13.0581 23.9168 12.4081 23.9168H10.203C9.02298 23.9168 8.06283 24.8769 8.06275 26.057V37.0001C8.06275 37.5705 8.28572 38.1076 8.69056 38.5125C9.09548 38.9174 9.63267 39.1404 10.203 39.1403H12.4081C13.26 39.1403 13.997 38.6398 14.3413 37.9176C15.4531 39.1383 17.172 39.1393 18.5948 39.1393H26.9988C28.208 39.1393 29.1917 38.1556 29.1917 36.9465C29.1917 36.3589 28.9594 35.8247 28.5819 35.4306C29.465 35.1472 30.1059 34.3181 30.1059 33.3421C30.1059 32.7648 29.8817 32.239 29.5158 31.847C30.4341 31.5853 31.1084 30.7388 31.1084 29.7377C31.1084 29.1389 30.8671 28.5954 30.4768 28.1993C31.3254 27.8964 31.9344 27.0845 31.9344 26.1332C31.9345 24.924 30.9508 23.9402 29.7417 23.9402ZM13.7671 37.0001C13.7671 37.7494 13.1575 38.3591 12.4081 38.3591H10.2031C9.84134 38.3591 9.5004 38.2174 9.24306 37.9601C8.98579 37.7028 8.84408 37.3619 8.84408 37.0001V26.0571C8.84415 25.3077 9.45376 24.6981 10.2031 24.6981H12.4082C13.1576 24.6981 13.7672 25.3077 13.7672 26.0571L13.7671 37.0001ZM29.7417 27.5447H28.9157C28.6999 27.5447 28.5251 27.7196 28.5251 27.9353C28.5251 28.151 28.6999 28.3259 28.9157 28.3259C29.6941 28.3259 30.3273 28.9591 30.3273 29.7375C30.3273 30.5159 29.6941 31.1491 28.9157 31.1491H27.9132C27.6974 31.1491 27.5226 31.324 27.5226 31.5397C27.5226 31.7555 27.6974 31.9303 27.9132 31.9303C28.6916 31.9303 29.3248 32.5635 29.3248 33.3419C29.3248 34.1202 28.6916 34.7534 27.9132 34.7534H26.999C26.7832 34.7534 26.6084 34.9284 26.6084 35.1441C26.6084 35.3598 26.7832 35.5347 26.999 35.5347C27.7774 35.5347 28.4106 36.1679 28.4106 36.9463C28.4106 37.7246 27.7774 38.3578 26.999 38.3578H18.5949C17.0072 38.3578 15.3667 38.3567 14.5484 36.8666V26.057C14.5484 25.8429 14.5163 25.6362 14.4576 25.4409C15.0353 24.5175 15.6257 24.0044 16.2493 23.4638C16.4782 23.2652 16.7149 23.06 16.9538 22.8316C17.9631 21.8672 19.1376 19.5411 19.1989 17.8716C19.2369 16.8352 19.5652 16.1919 20.1233 16.06C20.4263 15.9884 20.7263 16.0539 21.015 16.2549C21.5526 16.6293 21.9807 17.427 22.0806 18.2401C22.1863 19.1027 22.0246 19.6836 21.8534 20.2987C21.5933 21.2326 21.3252 22.1953 22.1497 23.9371C21.7804 23.9096 21.4907 23.7059 21.2659 23.3166C21.1581 23.1298 20.9192 23.0657 20.7324 23.1737C20.5455 23.2815 20.4815 23.5204 20.5894 23.7073C20.9724 24.3709 21.5424 24.7216 22.2377 24.7216H22.7859C22.7908 24.7217 22.7958 24.7217 22.8006 24.7216H29.7418C30.5202 24.7216 31.1534 25.3548 31.1534 26.1332C31.1534 26.9116 30.5201 27.5447 29.7417 27.5447Z" fill="url(#paint0_linear_18_351221)"/>
</g>
<defs>
<linearGradient id="paint0_linear_18_351221" x1="19.9988" y1="0.859375" x2="19.9988" y2="39.1403" gradientUnits="userSpaceOnUse">
<stop stop-color="#0CBBFF"/>
<stop offset="1" stop-color="#A9E4FC"/>
</linearGradient>
<clipPath id="clip0_18_351221">
<rect width="40" height="40" fill="white" transform="translate(-0.0012207)"/>
</clipPath>
</defs>
</svg>
