<svg width="60" height="61" viewBox="0 0 60 61" fill="none" xmlns="http://www.w3.org/2000/svg">
<g clip-path="url(#clip0_18_351299)">
<path d="M15.3936 24.4143C10.5813 29.2065 10.5813 37.0037 15.3936 41.7959C17.7244 44.1168 20.8239 45.3954 24.1207 45.3954C27.4175 45.3954 30.5169 44.1171 32.8478 41.7959C37.66 37.0037 37.66 29.2065 32.8478 24.4143C30.5169 22.0931 27.4175 20.8147 24.1207 20.8147C20.8239 20.8147 17.7244 22.0931 15.3936 24.4143ZM20.7397 27.6309V25.596H27.5017V27.6309H20.7397ZM25.5635 29.1635V30.0744H22.678V29.1635H25.5635ZM27.1824 31.6069C27.8893 31.6069 28.4996 32.0199 28.7874 32.6154H19.4542C19.742 32.0199 20.3523 31.6069 21.0592 31.6069H27.1824ZM19.2771 34.148H28.9645V42.7237C28.9303 42.7408 28.8964 42.7584 28.8621 42.7751C28.7302 42.839 28.5974 42.9003 28.4633 42.9586C28.4373 42.9699 28.4115 42.9818 28.3854 42.993C25.6774 44.1451 22.5632 44.1449 19.8555 42.9927C19.8325 42.9829 19.8099 42.9725 19.7871 42.9625C19.6498 42.903 19.5137 42.8401 19.3786 42.7747C19.3445 42.7581 19.3109 42.7406 19.2771 42.7237V34.148ZM31.7598 40.7122C31.3651 41.1052 30.9449 41.463 30.5035 41.7861V33.3816C30.5035 31.5579 29.0136 30.0743 27.1822 30.0743H27.1025V29.1634H27.7702C28.4708 29.1634 29.0407 28.5958 29.0407 27.8983V25.3284C29.0407 24.6308 28.4708 24.0634 27.7702 24.0634H20.471C19.7704 24.0634 19.2006 24.6308 19.2006 25.3284V27.8983C19.2006 28.5959 19.7704 29.1634 20.471 29.1634H21.1389V30.0743H21.0591C19.2278 30.0743 17.7378 31.5579 17.7378 33.3816V41.7861C17.2966 41.463 16.8762 41.105 16.4816 40.7122C12.2694 36.5176 12.2694 29.6925 16.4816 25.498C18.5219 23.4662 21.2346 22.3474 24.1205 22.3474C27.0064 22.3474 29.7193 23.4664 31.7595 25.498C35.9717 29.6925 35.972 36.5176 31.7598 40.7122ZM20.845 39.8443V38.2973H23.3421V35.807H24.8993V38.2973H27.4002V39.8443H24.8993V42.3348H23.3421V39.8443H20.845ZM24.1225 12.2185C26.5342 12.2185 28.4962 10.2631 28.4962 7.85936C28.4962 5.45562 26.5342 3.50022 24.1225 3.50022C21.7107 3.50022 19.7451 5.45562 19.7451 7.85936C19.7451 10.2631 21.7088 12.2185 24.1225 12.2185ZM24.1225 5.03279C25.6855 5.03279 26.9573 6.30077 26.9573 7.85936C26.9573 9.41794 25.6855 10.6859 24.1225 10.6859C22.5594 10.6859 21.2842 9.41794 21.2842 7.85936C21.2842 6.30077 22.5574 5.03279 24.1225 5.03279ZM60.9998 18.4211C60.9998 17.9979 60.6554 17.6549 60.2303 17.6549H59.2974V9.06665C59.2974 7.68148 58.1658 6.55452 56.7748 6.55452H55.963C55.6246 5.32684 54.4947 4.42201 53.156 4.42201C51.5509 4.42201 50.2451 5.72238 50.2451 7.32075C50.2451 8.91912 51.5509 10.2196 53.156 10.2196C54.4947 10.2196 55.6247 9.31466 55.963 8.08697H56.7748C57.3171 8.08697 57.7585 8.52638 57.7585 9.06652V17.6547H56.8258C56.4008 17.6547 56.0562 17.9977 56.0562 18.421C56.0562 22.0343 53.1026 24.9741 49.472 24.9741C45.8414 24.9741 42.8914 22.0343 42.8914 18.421C42.8914 17.9977 42.547 17.6547 42.1219 17.6547H41.1892V9.06652C41.1892 8.52638 41.6303 8.08697 42.1727 8.08697H42.9845C43.3229 9.31466 44.4528 10.2196 45.7915 10.2196C47.3966 10.2196 48.7025 8.91924 48.7025 7.32075C48.7025 5.72225 47.3966 4.42201 45.7915 4.42201C44.4528 4.42201 43.3229 5.32696 42.9845 6.55452H42.1727C40.7819 6.55452 39.6502 7.68135 39.6502 9.06665V17.6549H38.7138C38.2888 17.6549 37.9442 17.9979 37.9442 18.4211C37.9442 18.5106 37.9457 18.5999 37.9477 18.689L35.6864 16.4371C35.386 16.1378 34.8987 16.1378 34.5983 16.4371L32.5734 18.4536C31.3142 17.731 29.9656 17.1754 28.5509 16.7963V14.218C30.5714 12.8183 31.8975 10.4908 31.8975 7.85949C31.8975 3.59037 28.4098 0.117188 24.1227 0.117188C19.8356 0.117188 16.3444 3.59037 16.3444 7.85949C16.3444 7.99503 16.3481 8.12956 16.3551 8.26345C11.2446 9.85008 6.65584 13.038 3.37978 17.293C-0.13956 21.8642 -1.99994 27.3325 -1.99994 33.1071C-1.99994 47.4492 9.7187 59.1172 24.1227 59.1172C38.3079 59.1172 49.888 47.7977 50.2335 33.7528C51.2268 33.4321 51.9477 32.5029 51.9477 31.4081V29.6335C57.1185 28.5023 60.9998 23.905 60.9998 18.4211ZM53.156 8.68717C52.3995 8.68717 51.7841 8.07422 51.7841 7.32087C51.7841 6.56753 52.3995 5.95458 53.156 5.95458C53.9125 5.95458 54.528 6.56753 54.528 7.32087C54.528 8.07422 53.9125 8.68717 53.156 8.68717ZM45.7914 5.95458C46.5479 5.95458 47.1634 6.56753 47.1634 7.32087C47.1634 8.07422 46.5479 8.68717 45.7914 8.68717C45.0349 8.68717 44.4194 8.07422 44.4194 7.32087C44.4194 6.56753 45.0349 5.95458 45.7914 5.95458ZM27.6079 18.1412C29.2758 18.5248 30.849 19.173 32.2836 20.068C32.5874 20.2575 32.9827 20.213 33.2361 19.9605L35.1421 18.0625L38.2843 21.1917C38.4061 21.6792 38.5587 22.1548 38.7409 22.6156L37.3208 24.027C37.0669 24.2795 37.0217 24.6733 37.2122 24.9762C38.1153 26.4117 38.7675 27.9793 39.1507 29.6357C39.2312 29.9835 39.5423 30.2299 39.9005 30.2299H42.5973V35.9806H39.9005C39.5421 35.9806 39.2311 36.2269 39.1507 36.5748C38.7675 38.231 38.1153 39.7987 37.2122 41.2342C37.0219 41.5369 37.0666 41.9303 37.3203 42.1829L39.2261 44.0808L35.1421 48.1478L33.2361 46.2498C32.9827 45.9973 32.5876 45.9525 32.2836 46.1423C30.8488 47.0374 29.2758 47.6857 27.6079 48.0691C27.2588 48.1495 27.0116 48.4591 27.0116 48.8157V51.505H21.2332V48.8157C21.2332 48.4589 20.9858 48.1493 20.6369 48.0691C18.9705 47.686 17.3959 47.0374 15.957 46.1418C15.6531 45.9527 15.2583 45.9976 15.0051 46.2498L13.0991 48.1478L9.01508 44.0808L10.9209 42.1829C11.1742 41.9307 11.2193 41.5378 11.0296 41.2354C10.1281 39.7966 9.47682 38.2286 9.09422 36.5749C9.01368 36.2271 8.70265 35.9807 8.34438 35.9807H5.64748V30.23H8.34438C8.70265 30.23 9.01355 29.9838 9.09409 29.6362C9.47682 27.9855 10.1282 26.4171 11.0301 24.9747C11.2193 24.6723 11.1741 24.2798 10.9209 24.0278L9.01508 22.1299L13.0991 18.0629L15.0051 19.9609C15.2581 20.213 15.6522 20.2578 15.9559 20.0696C17.4044 19.1715 18.9791 18.5228 20.6369 18.1416C20.986 18.0612 21.2332 17.7516 21.2332 17.395V15.0461C22.1271 15.4035 23.1017 15.6022 24.1223 15.6022C25.143 15.6022 26.1177 15.4033 27.0114 15.0456V17.395C27.0114 17.7518 27.2589 18.061 27.6079 18.1412ZM24.1223 1.64963C27.5607 1.64963 30.358 4.4354 30.358 7.85936C30.358 11.2833 27.5606 14.0692 24.1223 14.0692C20.684 14.0692 17.883 11.2835 17.883 7.85936C17.883 4.43527 20.6819 1.64963 24.1223 1.64963ZM24.1223 57.5845C10.5669 57.5845 -0.461211 46.6039 -0.461211 33.1069C-0.461211 22.4928 6.50948 13.0262 16.5907 9.79653C17.063 11.6152 18.1855 13.1754 19.6941 14.2193V16.7963C18.2859 17.174 16.9366 17.7298 15.6691 18.4544L13.6432 16.4369C13.3428 16.1376 12.8554 16.1376 12.555 16.4369L7.38275 21.5876C7.08223 21.8869 7.08223 22.3721 7.38275 22.6713L9.40857 24.6887C8.68088 25.9511 8.12286 27.2947 7.74359 28.6971H4.87779C4.45281 28.6971 4.10824 29.0401 4.10824 29.4633V36.7465C4.10824 37.1697 4.45268 37.5128 4.87779 37.5128H7.7432C8.12248 38.9174 8.6805 40.2612 9.40818 41.5215L7.38275 43.5385C7.08223 43.8378 7.08223 44.3229 7.38275 44.6222L12.555 49.7729C12.8554 50.0722 13.3428 50.0722 13.6432 49.7729L15.6685 47.7561C16.9305 48.4791 18.2801 49.0349 19.694 49.4137V52.271C19.694 52.6943 20.0384 53.0373 20.4635 53.0373H27.7809C28.2058 53.0373 28.5504 52.6943 28.5504 52.271V49.4139C29.9651 49.0349 31.3135 48.4792 32.5728 47.7566L34.5978 49.7731C34.8982 50.0723 35.3855 50.0723 35.6859 49.7731L40.8582 44.6223C41.1587 44.3231 41.1587 43.8379 40.8582 43.5386L38.8334 41.5223C39.5624 40.2635 40.1215 38.9195 40.5013 37.5129H43.3666C43.7916 37.5129 44.1362 37.1699 44.1362 36.7467V29.4634C44.1362 29.0402 43.7917 28.6972 43.3666 28.6972H40.5013C40.1215 27.2907 39.5625 25.9469 38.8338 24.6883L39.4453 24.0806C41.0376 26.8669 43.7668 28.928 47 29.6343V31.4081C47 32.4962 47.7113 33.4201 48.694 33.7463C48.3523 46.9489 37.4611 57.5845 24.1223 57.5845ZM50.4082 31.408C50.4082 31.9222 49.9883 32.3406 49.4718 32.3406C48.9554 32.3406 48.5392 31.9222 48.5392 31.408V29.863C48.8468 29.8876 49.1579 29.9008 49.4718 29.9008C49.7858 29.9008 50.0994 29.8876 50.4082 29.8628V31.408ZM49.4718 28.3682C44.2229 28.3682 39.9066 24.3156 39.5124 19.1873H41.3884C41.7774 23.2876 45.2543 26.5066 49.4718 26.5066C53.6894 26.5066 57.1697 23.2876 57.5588 19.1873H59.4314C59.0373 24.3156 54.7208 28.3682 49.4718 28.3682Z" fill="url(#paint0_linear_18_351299)"/>
</g>
<defs>
<linearGradient id="paint0_linear_18_351299" x1="29.4999" y1="0.117187" x2="29.4999" y2="59.1172" gradientUnits="userSpaceOnUse">
<stop stop-color="#0CBBFF"/>
<stop offset="1" stop-color="#A9E4FC"/>
</linearGradient>
<clipPath id="clip0_18_351299">
<rect width="60" height="60" fill="white" transform="translate(6.10352e-05 0.117188)"/>
</clipPath>
</defs>
</svg>
