<svg width="51" height="51" viewBox="0 0 51 51" fill="none" xmlns="http://www.w3.org/2000/svg">
<path d="M35.7323 9.94394C35.5349 9.83506 35.2999 9.81689 35.0876 9.89385C34.8756 9.971 34.7073 10.136 34.626 10.3466L31.8157 17.6249C31.6792 17.9782 31.8159 18.3786 32.14 18.5748C33.3576 19.3116 34.4398 20.2382 35.3566 21.3289C35.6342 21.6593 36.1271 21.702 36.4573 21.4243C36.7876 21.1467 36.8302 20.6538 36.5527 20.3236C35.667 19.27 34.6435 18.3529 33.5038 17.5911L35.7539 11.7637C41.5968 15.3412 45.1902 21.71 45.1902 28.5957C45.1902 39.4729 36.3409 48.3223 25.4636 48.3223C25.2458 48.3223 25.0268 48.3186 24.8073 48.3112L29.6455 43.502C33.0461 42.479 35.9144 40.2713 37.7833 37.2462H38.9017C40.7162 37.2462 42.1923 35.7701 42.1923 33.9557V30.3792C42.8419 30.1263 43.3042 29.4957 43.3042 28.7577C43.3042 27.8622 42.6243 27.123 41.7537 27.0279V23.7544C41.7537 22.8006 40.9777 22.0246 40.024 22.0246C39.0702 22.0246 38.2942 22.8006 38.2942 23.7544V27.017H36.2943V23.7544C36.2943 22.8006 35.5183 22.0246 34.5646 22.0246C33.6108 22.0246 32.8348 22.8006 32.8348 23.7544V27.0279C31.9642 27.123 31.2842 27.8623 31.2842 28.7578C31.2842 29.4958 31.7465 30.1263 32.3961 30.3792V33.9557C32.3961 35.7701 33.8723 37.2462 35.6867 37.2462H35.9028C34.2113 39.5722 31.8111 41.2595 29.0206 42.0569C28.8937 42.0933 28.7781 42.1609 28.6845 42.2541L22.4946 48.4069C22.2819 48.6184 22.209 48.9328 22.307 49.2162C22.4049 49.4996 22.6564 49.702 22.9542 49.7369C23.7899 49.835 24.6341 49.8848 25.4636 49.8848C31.15 49.8848 36.4962 47.6703 40.5172 43.6493C44.5382 39.6283 46.7527 34.2821 46.7527 28.5957C46.7527 20.841 42.5299 13.694 35.7323 9.94394ZM33.025 28.936C32.9285 28.936 32.8468 28.8544 32.8468 28.7577C32.8468 28.6611 32.9285 28.5795 33.025 28.5795H41.5635C41.6601 28.5795 41.7417 28.6611 41.7417 28.7578C41.7417 28.8544 41.6601 28.936 41.5635 28.936H33.025ZM39.8568 23.7544C39.8568 23.6637 39.9333 23.5871 40.0241 23.5871C40.1147 23.5871 40.1913 23.6637 40.1913 23.7544V27.017H39.8568V23.7544ZM34.5647 23.5871C34.6553 23.5871 34.7319 23.6637 34.7319 23.7544V27.017H34.3974V23.7544C34.3974 23.6637 34.474 23.5871 34.5647 23.5871ZM33.9587 33.9557V30.4986H40.6299V33.9557C40.6299 34.9085 39.8547 35.6837 38.9018 35.6837H35.6868C34.7339 35.6837 33.9587 34.9085 33.9587 33.9557ZM18.4999 40.5171C17.3985 39.8106 16.4129 38.9442 15.5706 37.942C15.2929 37.6116 14.8 37.5689 14.4699 37.8466C14.1396 38.1242 14.0969 38.617 14.3745 38.9473C15.1737 39.898 16.0877 40.7396 17.0985 41.4559L15.3011 45.5064C9.38052 41.9442 5.73706 35.5411 5.73706 28.5957C5.73706 21.71 9.33042 15.3412 15.1733 11.7636L17.4234 17.5911C15.6999 18.7443 14.2349 20.2618 13.1434 22.0246H12.0253C10.2109 22.0246 8.73472 23.5007 8.73472 25.3151V28.8917C8.08511 29.1445 7.6228 29.7751 7.6228 30.5131C7.6228 31.4087 8.30278 32.1479 9.17339 32.243V35.5166C9.17339 36.4704 9.94937 37.2463 10.9031 37.2463C11.8568 37.2463 12.6328 36.4704 12.6328 35.5166V32.2539H14.6327V35.5166C14.6327 36.4704 15.4086 37.2463 16.3625 37.2463C17.3163 37.2463 18.0921 36.4704 18.0921 35.5166V32.243C18.9627 32.1479 19.6426 31.4087 19.6426 30.5132C19.6426 29.7752 19.1803 29.1446 18.5307 28.8918V25.3152C18.5307 23.5008 17.0545 22.0247 15.2402 22.0247H15.0271C16.0375 20.6426 17.3172 19.4641 18.7869 18.5749C19.111 18.3788 19.2477 17.9785 19.1113 17.625L16.3009 10.3467C16.2197 10.1362 16.0513 9.97109 15.8393 9.89395C15.6273 9.81689 15.3922 9.83506 15.1947 9.94404C8.39731 13.694 4.17456 20.841 4.17456 28.5957C4.17456 36.3973 8.43384 43.5646 15.2904 47.3007C15.4063 47.3638 15.5349 47.396 15.6642 47.396C15.7487 47.396 15.8334 47.3822 15.9152 47.3546C16.1218 47.2844 16.2897 47.1311 16.3783 46.9316L18.7921 41.4916C18.9485 41.1391 18.8244 40.7253 18.4999 40.5171ZM17.9022 30.3349C17.9988 30.3349 18.0804 30.4165 18.0804 30.5131C18.0804 30.6097 17.9989 30.6913 17.9022 30.6913H9.36362C9.26704 30.6913 9.1854 30.6097 9.1854 30.5131C9.1854 30.4165 9.26704 30.3349 9.36362 30.3349H17.9022ZM11.0705 35.5165C11.0705 35.6071 10.9939 35.6837 10.9033 35.6837C10.8126 35.6837 10.7361 35.6071 10.7361 35.5165V32.2538H11.0706L11.0705 35.5165ZM16.3625 35.6837C16.2718 35.6837 16.1953 35.6071 16.1953 35.5165V32.2538H16.5297V35.5165C16.5298 35.6071 16.4533 35.6837 16.3625 35.6837ZM16.9685 25.3151V28.7723H10.2973V25.3151C10.2973 24.3623 11.0725 23.5871 12.0254 23.5871H15.2405C16.1933 23.5871 16.9685 24.3623 16.9685 25.3151ZM31.4372 36.3966C31.3315 36.1098 31.0684 35.911 30.7637 35.8877L27.5383 35.6407L31.4099 30.4084C31.5853 30.1712 31.6123 29.8555 31.4794 29.5921C31.3467 29.3286 31.0768 29.1625 30.7818 29.1625H24.9155C24.6582 29.1625 24.4174 29.2892 24.2716 29.5013L18.3832 38.0681C18.2216 38.303 18.2009 38.6074 18.3293 38.8622C18.4577 39.1168 18.7147 39.2813 18.9997 39.2914L21.6504 39.3841L17.4782 48.7868C17.3257 49.1306 17.4396 49.534 17.7492 49.7472C17.8835 49.8396 18.0381 49.885 18.192 49.885C18.3927 49.885 18.5921 49.8078 18.743 49.6578L31.2548 37.2207C31.4715 37.0053 31.5427 36.6833 31.4372 36.3966ZM20.5959 45.6127L23.5478 38.9604C23.6531 38.7231 23.6336 38.4492 23.4959 38.2292C23.3583 38.0092 23.1204 37.8719 22.861 37.8628L20.4775 37.7794L25.3265 30.7249H29.2319L25.4418 35.8471C25.2728 36.0757 25.2412 36.378 25.3593 36.6365C25.4775 36.895 25.7268 37.069 26.0102 37.0907L28.9432 37.3153L20.5959 45.6127ZM20.7569 21.4138V22.4567C20.7569 23.1972 21.1953 23.8355 21.8252 24.1308V24.5934C21.8252 25.3444 22.2761 25.9912 22.9209 26.2805V26.7301C22.9209 27.7498 23.7505 28.5795 24.7704 28.5795H26.1568C27.1766 28.5795 28.0063 27.7498 28.0063 26.7301V26.2806C28.651 25.9913 29.1019 25.3445 29.1019 24.5934V24.1308C29.7318 23.8355 30.1702 23.1972 30.1702 22.4567V21.4139C30.3307 18.7354 30.9947 17.6 31.637 16.5023C32.218 15.5093 32.8189 14.4823 32.8189 12.5736C32.8189 8.51787 29.5193 5.21826 25.4635 5.21826C21.4078 5.21826 18.1082 8.51787 18.1082 12.5736C18.1082 14.4824 18.709 15.5094 19.2901 16.5023C19.9325 17.5999 20.5964 18.7353 20.7569 21.4138ZM23.5471 13.3683H22.8006C22.389 13.3683 22.0542 13.0334 22.0542 12.6218C22.0542 12.2102 22.389 11.8753 22.8006 11.8753C23.2123 11.8753 23.5471 12.2102 23.5471 12.6218V13.3683ZM25.8176 20.6069H25.1096V14.9308H25.8176V20.6069ZM28.6078 22.1694V22.4566C28.6078 22.6122 28.4763 22.7436 28.3208 22.7436H22.6065C22.4509 22.7436 22.3195 22.6121 22.3195 22.4566V22.1694H28.6078ZM27.2525 24.8803H23.6749C23.5192 24.8803 23.3877 24.7488 23.3877 24.5934V24.3062H27.5394V24.5934C27.5395 24.7488 27.4081 24.8803 27.2525 24.8803ZM26.1568 27.017H24.7704C24.6148 27.017 24.4834 26.8855 24.4834 26.7301V26.4429H26.4439V26.7301C26.4439 26.8855 26.3125 27.017 26.1568 27.017ZM25.4636 6.78057C28.6578 6.78057 31.2565 9.3792 31.2565 12.5734C31.2565 14.0587 30.8292 14.7888 30.2884 15.713C29.6763 16.7591 28.9272 18.0393 28.6674 20.6068H27.3801V14.9307H28.1266C29.3998 14.9307 30.4356 13.8949 30.4356 12.6217C30.4356 11.3484 29.3998 10.3127 28.1266 10.3127C26.8535 10.3127 25.8176 11.3484 25.8176 12.6217V13.3682H25.1096V12.6217C25.1096 11.3485 24.0738 10.3127 22.8006 10.3127C21.5275 10.3127 20.4917 11.3484 20.4917 12.6217C20.4917 13.8949 21.5274 14.9307 22.8006 14.9307H23.5471V20.6068H22.2597C22 18.0393 21.2508 16.7591 20.6387 15.713C20.0979 14.7887 19.6707 14.0587 19.6707 12.5734C19.6708 9.3793 22.2694 6.78057 25.4636 6.78057ZM27.3801 13.3683V12.6218C27.3801 12.2102 27.715 11.8753 28.1266 11.8753C28.5382 11.8753 28.8731 12.2102 28.8731 12.6218C28.8731 13.0334 28.5382 13.3683 28.1266 13.3683H27.3801ZM24.6824 3.77705V2.22852C24.6824 1.79707 25.0322 1.44727 25.4636 1.44727C25.8951 1.44727 26.2449 1.79707 26.2449 2.22852V3.77705C26.2449 4.2085 25.8951 4.5583 25.4636 4.5583C25.0322 4.5583 24.6824 4.2085 24.6824 3.77705ZM19.0544 4.15518C18.8387 3.78154 18.9667 3.30371 19.3404 3.08799C19.714 2.87236 20.1918 3.00029 20.4076 3.37393L21.1818 4.71494C21.3975 5.08857 21.2695 5.56641 20.8958 5.78213C20.7728 5.85322 20.6385 5.88691 20.5059 5.88691C20.2359 5.88691 19.9733 5.74678 19.8286 5.49619L19.0544 4.15518ZM14.8579 7.57051C15.0736 7.19678 15.5514 7.06865 15.925 7.28457L17.2661 8.05889C17.6397 8.27461 17.7677 8.75244 17.552 9.12607C17.4073 9.37666 17.1447 9.5168 16.8747 9.5168C16.7421 9.5168 16.6078 9.48301 16.4847 9.41201L15.1437 8.63769C14.7702 8.42197 14.6421 7.94414 14.8579 7.57051ZM29.7455 4.71504L30.5197 3.37402C30.7353 3.00029 31.2131 2.87227 31.5869 3.08809C31.9605 3.30381 32.0885 3.78164 31.8728 4.15527L31.0986 5.49629C30.954 5.74688 30.6913 5.88701 30.4212 5.88701C30.2887 5.88701 30.1544 5.85322 30.0313 5.78223C29.6578 5.5665 29.5297 5.08867 29.7455 4.71504ZM33.3751 9.12607C33.1594 8.75244 33.2874 8.27461 33.6611 8.05889L35.0022 7.28457C35.3758 7.06885 35.8537 7.19688 36.0694 7.57051C36.2851 7.94414 36.1571 8.42197 35.7834 8.63769L34.4423 9.41201C34.3193 9.48311 34.185 9.5168 34.0524 9.5168C33.7825 9.5168 33.5199 9.37666 33.3751 9.12607Z" fill="url(#paint0_linear_18_258915)"/>
<defs>
<linearGradient id="paint0_linear_18_258915" x1="25.4636" y1="1.44727" x2="25.4636" y2="49.885" gradientUnits="userSpaceOnUse">
<stop stop-color="#0CBBFF"/>
<stop offset="1" stop-color="#A9E4FC"/>
</linearGradient>
</defs>
</svg>
