<svg width="51" height="51" viewBox="0 0 51 51" fill="none" xmlns="http://www.w3.org/2000/svg">
<g clip-path="url(#clip0_18_258926)">
<path d="M1.2117 0.666658C0.696362 0.687197 0.295771 1.25472 0.534225 1.77443L1.97615 4.92228L0.990453 8.03046C0.861892 8.43285 1.07575 8.865 1.47415 9.00548L8.80432 11.5613C9.54321 11.8203 10.1619 10.9512 9.67558 10.3376L7.21896 7.2187L8.38319 4.80784C8.57044 4.41774 8.40479 3.94984 8.01393 3.76415L1.5779 0.741425C1.45432 0.683053 1.33063 0.661919 1.2117 0.666658ZM49.6589 0.666658C49.5539 0.670585 49.4491 0.69538 49.3522 0.741425L42.9162 3.76415C42.5253 3.94984 42.3597 4.41774 42.5469 4.80784L43.7127 7.2187L41.2561 10.3376C40.7697 10.9512 41.3869 11.8203 42.1258 11.5613L49.456 9.00548C49.8544 8.865 50.0697 8.43285 49.9412 8.03046L48.9539 4.92228L50.3959 1.77443C50.5746 1.38661 50.3885 0.881563 49.9686 0.718538C49.8686 0.679856 49.7639 0.662732 49.6589 0.666658ZM25.4574 0.678865C24.9931 0.699581 24.6822 1.03894 24.6808 1.45705V3.01953C24.679 3.45339 25.0312 3.80554 25.465 3.80383C25.8967 3.80234 26.2449 3.45113 26.2432 3.01953V1.45705C26.2418 1.0277 25.9066 0.680342 25.4574 0.678865ZM21.5207 5.35257C19.8919 5.36763 18.3454 6.23484 17.5017 7.69629C17.0699 8.44412 16.8643 9.2746 16.8745 10.0965C14.9203 10.3782 13.25 11.7004 12.5411 13.5678C12.3613 14.0414 12.2522 14.5291 12.2085 15.0189C9.11659 15.9579 7.12861 19.0102 7.55312 22.2347C7.83401 24.3682 9.11644 26.1583 10.8871 27.1556C9.82556 28.6293 9.55328 30.5601 10.2112 32.2931C10.8963 34.0979 12.4797 35.3917 14.3493 35.7309C14.3364 36.3611 14.4508 37.0008 14.7048 37.6138C15.566 39.6914 17.8774 41.0069 20.3382 40.3222C20.6058 40.6621 20.843 40.979 21.0355 41.2881H20.7715C20.3399 41.2896 19.9901 41.6408 19.9918 42.0724C19.9933 42.5017 20.3422 42.8491 20.7715 42.8506V45.1989C20.7715 46.2094 21.4283 47.0771 22.334 47.4022V48.3177C22.334 49.6026 23.3898 50.666 24.6747 50.666H26.2387C27.5235 50.666 28.5854 49.6026 28.5854 48.3177V47.4022C29.4911 47.0771 30.1479 46.2094 30.1479 45.1989V42.8506C30.5772 42.8491 30.9246 42.5017 30.9261 42.0724C30.9278 41.6408 30.5795 41.2896 30.1479 41.2881H29.9037C30.0957 40.9787 30.3323 40.6594 30.5995 40.3192C33.3134 41.0824 35.5075 39.4084 36.2269 37.6138C36.4808 37.0008 36.5944 36.3611 36.5808 35.7309C38.451 35.3922 40.0336 34.0984 40.7189 32.2931C41.3769 30.5599 41.1049 28.6294 40.043 27.1556C41.8143 26.1584 43.096 24.3686 43.377 22.2347C43.8015 19.0102 41.815 15.9579 38.7231 15.0189C38.6794 14.5291 38.5688 14.0414 38.389 13.5678C37.68 11.7002 36.0101 10.378 34.0556 10.0965C34.0658 9.2746 33.8617 8.44412 33.43 7.69629C32.3711 5.86232 30.2037 4.96316 28.1582 5.51126C27.0254 5.81479 26.081 6.52265 25.4635 7.45368C24.8477 6.52265 23.9047 5.81479 22.7719 5.51126C22.3564 5.39993 21.9359 5.34874 21.5207 5.35257ZM32.0796 8.48058C32.7887 9.70868 32.5819 11.2498 31.5791 12.2525C31.2763 12.5572 31.2763 13.0495 31.5791 13.3542C31.8845 13.6609 32.38 13.6609 32.6854 13.3542C33.1824 12.8572 33.5483 12.2688 33.7763 11.6376C35.2 11.8198 36.4157 12.7661 36.9303 14.1217C37.4766 15.5609 37.1308 17.185 36.0422 18.2735C35.7394 18.5782 35.7394 19.0705 36.0422 19.3752C36.42 19.7323 36.8949 19.6319 37.1439 19.3752C37.9096 18.6096 38.4128 17.6517 38.627 16.6332C40.7926 17.4692 42.136 19.684 41.8267 22.0333C41.4933 24.5657 39.3457 26.4445 36.7914 26.4445C36.3598 26.446 36.0115 26.7987 36.0132 27.2303C36.0147 27.6597 36.3621 28.0071 36.7914 28.0085C37.3948 28.0085 37.9824 27.9266 38.5416 27.7735C39.4951 28.8555 39.7771 30.3777 39.2602 31.7393C38.7679 33.0361 37.6332 33.961 36.2894 34.1989C35.9428 33.1053 34.8527 31.9406 34.0083 31.6752C33.7437 29.5204 32.6269 27.4567 30.894 26.0295C31.2754 25.819 31.6172 25.5377 31.8996 25.1979C33.2611 26.0002 35.0304 25.7946 36.1719 24.6532C36.4771 24.3491 36.4786 23.8543 36.1749 23.5484C35.8692 23.2438 35.3746 23.2455 35.0702 23.5515C34.3728 24.2488 33.2815 24.3227 32.4991 23.7224C31.7168 23.1221 31.501 22.0465 31.9941 21.1925C32.2101 20.8202 32.0849 20.3432 31.7133 20.1259C31.3392 19.9098 30.8606 20.0383 30.6452 20.4128C29.963 21.5943 30.0426 23.0358 30.7642 24.1222C30.4748 24.4844 29.9776 24.91 29.1225 24.908C28.0384 24.3984 26.8085 24.1039 25.465 24.1039C24.1215 24.1039 22.8918 24.3983 21.8076 24.908C20.8706 24.9174 20.3428 24.3691 20.1673 24.1191C20.888 23.0328 20.9692 21.5929 20.2878 20.4128C20.0725 20.0383 19.5954 19.9098 19.2213 20.1259C18.8468 20.3413 18.7168 20.8199 18.9329 21.194C19.426 22.0481 19.2178 23.1221 18.4355 23.7224C17.6531 24.3227 16.5602 24.2488 15.8629 23.5515C15.5584 23.2455 15.064 23.2438 14.7582 23.5484C14.4056 23.9271 14.5005 24.4041 14.7566 24.6547C15.8981 25.7962 17.6659 26.0018 19.0275 25.1994C19.3099 25.5393 19.6529 25.8205 20.0345 26.031C18.3035 27.4575 17.1869 29.5193 16.9218 31.6721C15.9462 32.0279 14.9396 33.2847 14.6391 34.199C13.2959 33.9606 12.1635 33.0356 11.6714 31.7393C11.1545 30.3777 11.4363 28.8555 12.39 27.7736C12.9492 27.9266 13.5352 28.0085 14.1386 28.0085C14.568 28.0071 14.9153 27.6597 14.9168 27.2303C14.9185 26.7987 14.5703 26.446 14.1386 26.4445C11.5844 26.4445 9.43828 24.5657 9.10487 22.0333C8.79558 19.684 10.1375 17.4692 12.3031 16.6333C12.5173 17.6517 13.022 18.6096 13.7877 19.3752C14.0924 19.6781 14.5847 19.6781 14.8894 19.3752C15.1922 19.0705 15.1922 18.5782 14.8894 18.2736C13.8008 17.185 13.455 15.5609 14.0013 14.1217C14.5159 12.7661 15.7316 11.8198 17.1552 11.6376C17.3833 12.2688 17.7477 12.8572 18.2447 13.3542C18.6132 13.7012 19.1007 13.6111 19.3464 13.3542C19.6492 13.0495 19.6492 12.5572 19.3464 12.2525C18.3436 11.2498 18.1414 9.70869 18.8505 8.48059C19.6075 7.1731 21.0951 6.68568 22.3691 7.02187C23.7389 7.3889 24.6807 8.62651 24.6807 10.0446C24.7056 10.629 25.1923 10.8315 25.465 10.8228C26.0721 10.8024 26.2617 10.2769 26.2432 10.0446C26.2432 8.62651 27.1927 7.3889 28.5625 7.02187C28.9049 6.93011 29.2508 6.89909 29.5894 6.92268C30.605 6.99348 31.5478 7.55951 32.0796 8.48058ZM28.2772 11.8024C27.5949 12.9842 27.6742 14.4253 28.3962 15.5117C28.0608 15.9611 27.5455 16.2483 26.9787 16.2915C26.5504 16.3246 26.2296 16.6961 26.26 17.1246C26.2923 17.5558 26.6681 17.8799 27.0992 17.8463C28.0556 17.7734 28.9296 17.3124 29.5314 16.5875C30.8937 17.3914 32.6667 17.1906 33.8084 16.0488C34.113 15.7431 34.1111 15.2486 33.8054 14.9441C33.5013 14.6389 33.0081 14.6376 32.7022 14.9411C32.0049 15.6384 30.9136 15.7123 30.1312 15.112C29.3486 14.5116 29.133 13.4361 29.626 12.5821C29.8421 12.2098 29.7169 11.7328 29.3453 11.5155C29.2395 11.456 29.1312 11.4236 29.0264 11.4133C28.712 11.3823 28.4229 11.5524 28.2772 11.8024ZM22.0807 11.4209C22.3036 11.45 22.5187 11.573 22.6499 11.8039C23.3322 12.9857 23.2529 14.4269 22.5308 15.5133C22.866 15.9615 23.3801 16.2437 23.9468 16.2869C24.378 16.3192 24.7007 16.695 24.667 17.1261C24.6348 17.5573 24.2589 17.88 23.8278 17.8463C22.871 17.7734 21.9959 17.3144 21.3941 16.589C20.0328 17.3902 18.2643 17.1838 17.1232 16.0428C16.8181 15.7387 16.8168 15.2454 17.1202 14.9396C17.426 14.635 17.9204 14.6352 18.2249 14.9411C18.9222 15.6384 20.0151 15.7124 20.7975 15.112C21.5799 14.5117 21.7941 13.4377 21.301 12.5837C21.085 12.2114 21.2117 11.7344 21.5833 11.5171C21.667 11.4688 21.7605 11.4368 21.8579 11.4225C21.9311 11.4118 22.0064 11.4112 22.0807 11.4209ZM4.55789 12.7774C4.24082 12.7472 3.95768 12.9229 3.81632 13.1634C3.60023 13.5361 3.72635 14.0132 4.0986 14.23L5.45356 15.0143C5.82777 15.2294 6.30675 15.1003 6.52165 14.7259C6.73775 14.3532 6.6101 13.8762 6.23784 13.6594L4.88289 12.8812C4.77397 12.8201 4.66357 12.7875 4.55789 12.7774ZM46.0472 12.8812L44.6923 13.6594C44.32 13.8762 44.1939 14.3532 44.41 14.7259C44.6249 15.1003 45.1023 15.2295 45.4765 15.0143L46.8269 14.23C47.2013 14.0151 47.3304 13.5377 47.1153 13.1635C46.9681 12.9284 46.7672 12.8171 46.5706 12.7851C46.374 12.753 46.1817 12.8001 46.0472 12.8812ZM1.24527 24.882C0.813106 24.8942 0.476093 25.2415 0.477768 25.6663C0.479245 26.0957 0.826596 26.443 1.25595 26.4445H2.81842C3.25002 26.4462 3.60122 26.0979 3.6027 25.6663C3.60442 25.2325 3.25228 24.8803 2.81842 24.882H1.24527ZM48.101 24.882C47.6666 24.8912 47.3257 25.2393 47.3274 25.6663C47.3289 26.0979 47.6801 26.4462 48.1117 26.4445H49.6696C50.1012 26.4462 50.4524 26.0979 50.4539 25.6663C50.4556 25.2325 50.1034 24.882 49.6696 24.882H48.101ZM25.465 25.6663C29.7247 25.6663 32.5068 29.2104 32.5068 32.6624C32.5068 35.1912 31.4734 36.7323 30.3325 38.1616C29.5245 39.1739 28.5971 40.1258 28.1246 41.2881H22.8055C22.333 40.1259 21.4056 39.1739 20.5976 38.1616C19.4567 36.7323 18.4233 35.1912 18.4233 32.6624C18.4233 29.2104 21.2054 25.6663 25.465 25.6663ZM26.202 28.0131C25.966 28.0264 25.7436 28.1475 25.6039 28.3488L22.4774 32.8806C22.2307 33.237 22.3224 33.7257 22.6804 33.9701L24.3176 35.0946L23.9087 38.0578C23.8005 38.8306 24.7678 39.2681 25.2758 38.6758L29.1851 34.1074C29.4559 33.7889 29.4273 33.3163 29.121 33.0317L27.2884 31.341L27.0229 28.712C26.9887 28.3875 26.7561 28.1188 26.4401 28.0375C26.361 28.0172 26.2807 28.0087 26.202 28.0131ZM16.9005 33.5367C17.1157 35.9139 18.1836 37.6106 19.2198 38.9383C17.9108 39.0193 16.6669 38.2699 16.1467 37.0142C15.637 35.7836 15.9622 34.4077 16.9005 33.5367ZM34.0296 33.5367C34.9681 34.4077 35.2947 35.7836 34.7849 37.0142C34.264 38.2717 33.0168 39.0218 31.7058 38.9383C32.7422 37.6107 33.8135 35.9136 34.0296 33.5367ZM44.41 36.5991C44.1939 36.9718 44.32 37.4488 44.6923 37.6657L46.0472 38.45C46.4214 38.6651 46.9004 38.536 47.1153 38.1616C47.3304 37.7874 47.2013 37.3099 46.8269 37.095L45.4765 36.3168C45.3686 36.2556 45.259 36.2228 45.1531 36.2131C44.8353 36.1838 44.5473 36.3614 44.41 36.5991ZM5.45356 36.3168L4.0986 37.095C3.72635 37.3119 3.60023 37.7889 3.81632 38.1616C4.03121 38.5359 4.50868 38.6651 4.88289 38.45L6.23784 37.6657C6.6101 37.4488 6.73775 36.9718 6.52165 36.5991C6.37635 36.3715 6.18602 36.2577 5.99371 36.2222C5.80139 36.1868 5.60706 36.2296 5.45356 36.3168ZM13.4582 44.8922L12.68 46.2471C12.4649 46.6213 12.594 47.1003 12.9684 47.3152C13.3426 47.5304 13.82 47.4012 14.0349 47.0268L14.8131 45.6765C15.0282 45.3022 14.8991 44.8248 14.5247 44.6099C14.4208 44.5504 14.3139 44.5181 14.2104 44.5077C13.8998 44.4763 13.6113 44.6449 13.4582 44.8922ZM36.3993 44.6099C36.027 44.8268 35.9009 45.3038 36.117 45.6765L36.8952 47.0269C37.1101 47.4012 37.5875 47.5304 37.9617 47.3153C38.3361 47.1004 38.4652 46.6214 38.2501 46.2472L37.4659 44.8922C37.3248 44.6593 37.1249 44.5479 36.9272 44.5153C36.7295 44.4828 36.534 44.5289 36.3993 44.6099Z" fill="url(#paint0_linear_18_258926)"/>
</g>
<defs>
<linearGradient id="paint0_linear_18_258926" x1="25.4636" y1="0.666016" x2="25.4636" y2="50.666" gradientUnits="userSpaceOnUse">
<stop stop-color="#0CBBFF"/>
<stop offset="1" stop-color="#A9E4FC"/>
</linearGradient>
<clipPath id="clip0_18_258926">
<rect width="50" height="50" fill="white" transform="translate(0.463623 0.666016)"/>
</clipPath>
</defs>
</svg>
