<svg width="50" height="50" viewBox="0 0 50 50" fill="none" xmlns="http://www.w3.org/2000/svg">
<path d="M32.9329 9.85352L34.2547 9.01914C33.0533 7.10889 31.2905 5.61702 29.2079 4.74805L28.6047 6.19023C30.391 6.9353 31.9029 8.21494 32.9329 9.85352Z" fill="url(#paint0_linear_18_250612)"/>
<path d="M25 1.5625C21.4788 1.56643 18.1029 2.96696 15.6131 5.45683C13.1232 7.94669 11.7227 11.3225 11.7188 14.8438V16.4062C11.7187 16.47 11.7266 16.5335 11.7422 16.5953L16.4297 35.3453C16.4668 35.4834 16.5418 35.6084 16.6461 35.7062C16.4391 36.1222 16.3635 36.5914 16.4295 37.0513C16.4955 37.5113 16.7 37.9403 17.0156 38.2812C16.6237 38.7072 16.4062 39.2649 16.4062 39.8438C16.4062 40.4226 16.6237 40.9803 17.0156 41.4062C16.7101 41.7411 16.5088 42.1578 16.4362 42.6052C16.3636 43.0527 16.4229 43.5116 16.6069 43.9259C16.7908 44.3402 17.0914 44.692 17.472 44.9382C17.8526 45.1844 18.2967 45.3145 18.75 45.3125H19.6094C19.7907 46.1942 20.2705 46.9864 20.9678 47.5557C21.6651 48.1249 22.5373 48.4364 23.4375 48.4375H26.5625C27.4627 48.4364 28.3349 48.1249 29.0322 47.5557C29.7295 46.9864 30.2093 46.1942 30.3906 45.3125H31.25C31.7033 45.3145 32.1474 45.1844 32.528 44.9382C32.9086 44.692 33.2092 44.3402 33.3931 43.9259C33.5771 43.5116 33.6364 43.0527 33.5638 42.6052C33.4912 42.1578 33.2899 41.7411 32.9844 41.4062C33.3763 40.9803 33.5938 40.4226 33.5938 39.8438C33.5938 39.2649 33.3763 38.7072 32.9844 38.2812C33.3006 37.9399 33.5054 37.5104 33.5714 37.0498C33.6374 36.5893 33.5615 36.1195 33.3539 35.7031C33.4583 35.6057 33.5333 35.4809 33.5703 35.343L38.2578 16.593C38.2732 16.5319 38.2811 16.4692 38.2812 16.4062V14.8438C38.2773 11.3225 36.8768 7.94669 34.3869 5.45683C31.8971 2.96696 28.5212 1.56643 25 1.5625ZM25 3.125C28.1069 3.12852 31.0856 4.36429 33.2825 6.56122C35.4795 8.75816 36.7152 11.7368 36.7188 14.8438V15.625H13.2813V14.8438C13.2848 11.7368 14.5205 8.75816 16.7175 6.56122C18.9144 4.36429 21.8931 3.12852 25 3.125ZM32.0312 39.8438C32.0312 40.0509 31.9489 40.2497 31.8024 40.3962C31.6559 40.5427 31.4572 40.625 31.25 40.625H18.75C18.5428 40.625 18.3441 40.5427 18.1976 40.3962C18.0511 40.2497 17.9688 40.0509 17.9688 39.8438C17.9688 39.6366 18.0511 39.4378 18.1976 39.2913C18.3441 39.1448 18.5428 39.0625 18.75 39.0625H31.25C31.4572 39.0625 31.6559 39.1448 31.8024 39.2913C31.9489 39.4378 32.0312 39.6366 32.0312 39.8438ZM25.7812 34.375V20.3125H28.0469L26.6406 34.375H25.7812ZM24.2188 34.375H23.3633L21.957 20.3125H24.2188V34.375ZM20.3906 20.3125L21.7969 34.375H20.2039L18.0945 20.3125H20.3906ZM18.75 37.5C18.5428 37.5 18.3441 37.4177 18.1976 37.2712C18.0511 37.1247 17.9688 36.9259 17.9688 36.7188C17.9688 36.5116 18.0511 36.3128 18.1976 36.1663C18.3441 36.0198 18.5428 35.9375 18.75 35.9375H31.25C31.4572 35.9375 31.6559 36.0198 31.8024 36.1663C31.9489 36.3128 32.0312 36.5116 32.0312 36.7188C32.0312 36.9259 31.9489 37.1247 31.8024 37.2712C31.6559 37.4177 31.4572 37.5 31.25 37.5H18.75ZM29.7961 34.375H28.2031L29.6094 20.3125H31.9016L29.7961 34.375ZM13.8914 18.75L13.5008 17.1875H36.4992L36.1086 18.75H13.8914ZM14.282 20.3125H16.5148L18.6242 34.375H17.7977L14.282 20.3125ZM26.5625 46.875H23.4375C22.9529 46.8744 22.4804 46.7239 22.0847 46.4442C21.689 46.1644 21.3895 45.7691 21.2273 45.3125H28.7727C28.6105 45.7691 28.311 46.1644 27.9153 46.4442C27.5196 46.7239 27.0471 46.8744 26.5625 46.875ZM31.25 43.75H18.75C18.5428 43.75 18.3441 43.6677 18.1976 43.5212C18.0511 43.3747 17.9688 43.1759 17.9688 42.9688C17.9688 42.7616 18.0511 42.5628 18.1976 42.4163C18.3441 42.2698 18.5428 42.1875 18.75 42.1875H31.25C31.4572 42.1875 31.6559 42.2698 31.8024 42.4163C31.9489 42.5628 32.0312 42.7616 32.0312 42.9688C32.0312 43.1759 31.9489 43.3747 31.8024 43.5212C31.6559 43.6677 31.4572 43.75 31.25 43.75ZM32.2023 34.375H31.3758L33.4852 20.3125H35.718L32.2023 34.375Z" fill="url(#paint1_linear_18_250612)"/>
<defs>
<linearGradient id="paint0_linear_18_250612" x1="31.4297" y1="4.74805" x2="31.4297" y2="9.85352" gradientUnits="userSpaceOnUse">
<stop stop-color="#0CBBFF"/>
<stop offset="1" stop-color="#A9E4FC"/>
</linearGradient>
<linearGradient id="paint1_linear_18_250612" x1="25" y1="1.5625" x2="25" y2="48.4375" gradientUnits="userSpaceOnUse">
<stop stop-color="#0CBBFF"/>
<stop offset="1" stop-color="#A9E4FC"/>
</linearGradient>
</defs>
</svg>
