<svg width="51" height="51" viewBox="0 0 51 51" fill="none" xmlns="http://www.w3.org/2000/svg">
<path d="M45.8088 26.7056V17.8911H48.0088C48.3811 17.8911 48.7211 17.6794 48.8852 17.3452C49.0495 17.011 49.0093 16.6126 48.7818 16.3178L42.8682 8.65674C42.6833 8.41719 42.3978 8.27686 42.0952 8.27686C41.7925 8.27686 41.5071 8.41719 41.3221 8.65674L35.4087 16.3178C35.1811 16.6126 35.1411 17.011 35.3052 17.3452C35.4694 17.6794 35.8093 17.8911 36.1817 17.8911H38.3816V22.2659C37.4891 22.0774 36.5643 21.9776 35.6166 21.9776C35.1406 21.9776 34.6705 22.0031 34.2071 22.0519V11.4542H36.4071C36.7795 11.4542 37.1194 11.2425 37.2836 10.9083C37.4478 10.5741 37.4077 10.1757 37.1801 9.88086L31.2666 2.21973C31.0816 1.98018 30.7962 1.83984 30.4935 1.83984C30.1909 1.83984 29.9054 1.98018 29.7205 2.21973L23.807 9.88086C23.5795 10.1757 23.5394 10.5741 23.7036 10.9083C23.8677 11.2425 24.2077 11.4542 24.58 11.4542H26.7799V13.9265L24.9879 15.7191C24.5786 15.5255 24.1581 15.3514 23.7292 15.1981V12.2579C23.7292 11.7187 23.2919 11.2813 22.7526 11.2813H15.4613C14.922 11.2813 14.4847 11.7187 14.4847 12.2579V15.198C14.0554 15.3513 13.6349 15.5255 13.2257 15.7191L11.147 13.6403C10.9639 13.4572 10.7155 13.3543 10.4565 13.3543C10.1975 13.3543 9.94908 13.4572 9.76598 13.6403L4.60963 18.797C4.22828 19.1783 4.22828 19.7967 4.60963 20.1781L6.68815 22.2567C6.4942 22.6662 6.31998 23.0869 6.16696 23.5159H3.22711C2.68785 23.5159 2.25055 23.9532 2.25055 24.4925V31.7838C2.25055 32.323 2.68785 32.7604 3.22711 32.7604H6.16696C6.31998 33.1895 6.4941 33.6099 6.68815 34.0195L4.60963 36.098C4.22828 36.4794 4.22828 37.0978 4.60963 37.4792L9.76627 42.6358C9.94947 42.8189 10.1978 42.9219 10.4568 42.9219C10.7158 42.9219 10.9642 42.8189 11.1473 42.6358L13.2257 40.5573C13.6341 40.7508 14.0547 40.9248 14.485 41.0783V44.0184C14.485 44.5576 14.9223 44.9949 15.4616 44.9949H22.7529C23.2922 44.9949 23.7295 44.5576 23.7295 44.0184V41.4592C25.9525 45.7645 30.4464 48.7149 35.6167 48.7149C42.9881 48.7149 48.9854 42.7178 48.9854 35.3462C48.9853 32.0545 47.7888 29.0375 45.8088 26.7056ZM39.3583 15.9379H38.1692L42.0952 10.8517L46.0213 15.9379H44.8321C44.2928 15.9379 43.8555 16.3752 43.8555 16.9145V24.8251C42.7981 23.9952 41.6127 23.3219 40.3347 22.8382V16.9145C40.3348 16.3752 39.8976 15.9379 39.3583 15.9379ZM26.5677 9.50107L30.4937 4.41475L34.4198 9.50107H33.2306C32.6914 9.50107 32.2541 9.93838 32.2541 10.4776V22.4061C30.9998 22.7322 29.8168 23.2365 28.7333 23.8899V10.4776C28.7333 9.93838 28.296 9.50107 27.7567 9.50107H26.5677ZM22.2545 34.9452C21.2737 35.3983 20.1966 35.6366 19.1073 35.6366C14.9725 35.6366 11.6087 32.2728 11.6087 28.138C11.6087 24.0032 14.9725 20.6394 19.1073 20.6394C22.3912 20.6394 25.2498 22.7461 26.2418 25.8256C23.8669 28.1644 22.36 31.3817 22.2545 34.9452ZM22.4733 39.435C22.0597 39.5586 21.7763 39.939 21.7763 40.3706V43.0417H16.4381V40.3706C16.4381 39.9389 16.1546 39.5584 15.7409 39.4349C14.9562 39.2007 14.2031 38.8888 13.5024 38.5078C13.1222 38.3014 12.6514 38.3693 12.3454 38.6753L10.4567 40.5641L6.68121 36.7886L8.56989 34.8999C8.87565 34.594 8.94391 34.1236 8.73766 33.7435C8.35446 33.0375 8.04264 32.2846 7.8108 31.5052C7.68756 31.0911 7.3069 30.8072 6.87477 30.8072H4.20367V25.469H6.87477C7.3069 25.469 7.68756 25.1852 7.8108 24.771C8.04264 23.9917 8.35446 23.2387 8.73766 22.5328C8.94391 22.1527 8.87565 21.6822 8.56989 21.3764L6.68112 19.4876L10.4567 15.7121L12.3454 17.6009C12.6511 17.9065 13.1214 17.9748 13.5014 17.7688C14.2064 17.3865 14.9599 17.0746 15.7409 16.8414C16.1546 16.7179 16.4381 16.3374 16.4381 15.9057V13.2345H21.7763V15.9056C21.7763 16.3372 22.0597 16.7177 22.4734 16.8412C23.2535 17.0744 24.0072 17.3864 24.7134 17.7689C25.0936 17.9749 25.5637 17.9063 25.8692 17.6006L26.7802 16.6892V22.6071C25.0472 20.198 22.2297 18.6862 19.1074 18.6862C13.8957 18.6862 9.65563 22.9263 9.65563 28.138C9.65563 33.3497 13.8957 37.5897 19.1074 37.5897C20.2172 37.5897 21.3175 37.3937 22.3522 37.0165C22.451 37.8059 22.6186 38.5742 22.8495 39.315C22.7246 39.3568 22.5994 39.3973 22.4733 39.435ZM35.6167 46.7618C29.3221 46.7618 24.201 41.6408 24.201 35.3462C24.201 29.0516 29.322 23.9306 35.6167 23.9306C41.9113 23.9306 47.0323 29.0516 47.0323 35.3462C47.0323 41.6408 41.9112 46.7618 35.6167 46.7618ZM19.1073 23.7781C16.7033 23.7781 14.7474 25.7339 14.7474 28.138C14.7474 30.5421 16.7032 32.4979 19.1073 32.4979C21.5114 32.4979 23.4671 30.5421 23.4671 28.138C23.4671 25.7339 21.5113 23.7781 19.1073 23.7781ZM19.1073 30.5447C17.7802 30.5447 16.7005 29.465 16.7005 28.138C16.7005 26.8109 17.7802 25.7313 19.1073 25.7313C20.4343 25.7313 21.514 26.8109 21.514 28.138C21.514 29.465 20.4343 30.5447 19.1073 30.5447ZM35.6167 26.4413C30.7065 26.4413 26.7117 30.436 26.7117 35.3463C26.7117 40.2565 30.7064 44.2513 35.6167 44.2513C40.5269 44.2513 44.5216 40.2565 44.5216 35.3463C44.5216 30.436 40.5268 26.4413 35.6167 26.4413ZM35.6167 42.298C31.7835 42.298 28.6648 39.1794 28.6648 35.3462C28.6648 31.513 31.7835 28.3943 35.6167 28.3943C39.4499 28.3943 42.5685 31.513 42.5685 35.3462C42.5685 39.1794 39.4499 42.298 35.6167 42.298ZM40.4204 38.518C40.2327 38.8023 39.9216 38.9565 39.6046 38.9565C39.4197 38.9565 39.233 38.9043 39.0673 38.7948L35.0785 36.1611C34.8047 35.9804 34.64 35.6743 34.64 35.3462V30.7989C34.64 30.2597 35.0773 29.8224 35.6166 29.8224C36.1558 29.8224 36.5931 30.2597 36.5931 30.7989V34.8208L40.1434 37.165C40.5937 37.4621 40.7175 38.068 40.4204 38.518Z" fill="url(#paint0_linear_18_258861)"/>
<defs>
<linearGradient id="paint0_linear_18_258861" x1="25.618" y1="1.83984" x2="25.618" y2="48.7149" gradientUnits="userSpaceOnUse">
<stop stop-color="#0CBBFF"/>
<stop offset="1" stop-color="#A9E4FC"/>
</linearGradient>
</defs>
</svg>
