<svg width="75" height="76" viewBox="0 0 75 76" fill="none" xmlns="http://www.w3.org/2000/svg">
<path d="M27.832 0.890625C24.4431 0.890625 21.6667 3.6671 21.6667 7.05599V24.8913C21.6667 28.2802 24.4431 31.0566 27.832 31.0566H45.6673C49.0562 31.0566 51.8327 28.2802 51.8327 24.8913V7.05599C51.8328 7.01907 51.8317 6.98216 51.8294 6.94531C51.6079 3.62118 48.8902 0.890625 45.5013 0.890625H27.832ZM27.832 4.22396H45.5013C47.1099 4.22396 48.3841 5.48822 48.4993 7.16016V24.8913C48.4993 26.5024 47.2784 27.7233 45.6673 27.7233H27.832C26.2209 27.7233 25 26.5024 25 24.8913V7.05599C25 5.44488 26.2209 4.22396 27.832 4.22396ZM35 9.22396V14.224H30V17.5573H35V22.5573H38.3333V17.5573H43.3333V14.224H38.3333V9.22396H35ZM6.16536 14.224C2.77648 14.224 0 17.0004 0 20.3893V75.8906H75V20.3893C75 17.0004 72.2235 14.224 68.8346 14.224H55V17.5573H68.8346C70.4457 17.5573 71.6667 18.7782 71.6667 20.3893V72.5573H45V54.224H43.3333H37.334H28.3333V72.5573H3.33333V20.3893C3.33333 18.7782 4.55425 17.5573 6.16536 17.5573H18.3333V14.224H6.16536ZM6.59831 35.8223V49.2923H21.735V35.8223H20H13.1673H6.59831ZM28.265 35.8223V49.2923H45.0684V35.8223H43.3333H36.5006H28.265ZM51.5983 35.8223V49.2923H66.735V35.8223H65H59.834H51.5983ZM10.0684 39.2923H13.1673H18.265V45.8223H10.0684V39.2923ZM31.735 39.2923H36.5006H41.5983V45.8223H31.735V39.2923ZM55.0684 39.2923H59.834H63.265V45.8223H55.0684V39.2923ZM6.59831 54.1556V67.6256H21.735V54.1556H20H13.1673H6.59831ZM51.5983 54.1556V67.6256H66.735V54.1556H65H59.834H51.5983ZM31.6667 57.5573H37.334H41.6667V72.5573H31.6667V57.5573ZM10.0684 57.6256H13.1673H18.265V64.1556H10.0684V57.6256ZM55.0684 57.6256H59.834H63.265V64.1556H55.0684V57.6256Z" fill="#01B8FF"/>
</svg>
