<svg width="60" height="61" viewBox="0 0 60 61" fill="none" xmlns="http://www.w3.org/2000/svg">
<path fill-rule="evenodd" clip-rule="evenodd" d="M42.1051 9.16297H38.4875V10.4947H38.4846C38.4847 10.8146 38.2773 11.1105 37.9552 11.2081C37.5952 11.3175 36.8865 11.5907 36.5684 11.7767C36.2783 11.9653 35.8863 11.9323 35.6319 11.6779L34.6897 10.7359L32.1316 13.2941L33.0738 14.2362L33.0719 14.2381C33.2981 14.4641 33.3607 14.8197 33.2025 15.1163C33.0267 15.4456 32.716 16.1417 32.6231 16.4977C32.5518 16.837 32.2509 17.0918 31.8905 17.0918H30.5588V20.7093H31.8904V20.7123C32.2104 20.7122 32.5062 20.9196 32.6039 21.2416C32.7132 21.6016 32.9866 22.3102 33.1726 22.6283C33.3611 22.9184 33.3282 23.3105 33.0738 23.565L32.1316 24.5071L34.6898 27.0652L35.632 26.1232L35.6339 26.125C35.8598 25.8989 36.2155 25.8363 36.5122 25.9945C36.8416 26.1704 37.5373 26.4809 37.8936 26.574C38.2329 26.6452 38.4876 26.9462 38.4876 27.3065V28.6382H42.1052V27.3065H42.1081C42.108 26.9866 42.3154 26.6907 42.6375 26.5931C42.9976 26.4838 43.706 26.2106 44.0241 26.0244C44.3142 25.8358 44.7063 25.8687 44.9608 26.1232L45.903 27.0652L48.4612 24.5071L47.519 23.565L47.5209 23.5631C47.2947 23.3371 47.2321 22.9815 47.3904 22.6849C47.5664 22.3554 47.8768 21.6597 47.9698 21.3035C48.0411 20.9642 48.342 20.7095 48.7024 20.7095H50.0341V17.0919H48.7024V17.0889C48.3825 17.0891 48.0866 16.8816 47.9889 16.5596C47.8796 16.1996 47.6063 15.4911 47.4202 15.1729C47.2317 14.8828 47.2645 14.4907 47.519 14.2362L48.4612 13.2941L45.903 10.736L44.9608 11.678L44.9589 11.6762C44.733 11.9023 44.3773 11.9649 44.0807 11.8067C43.7513 11.6308 43.0555 11.3204 42.6993 11.2273C42.3601 11.1561 42.1053 10.8552 42.1053 10.4948V9.16309L42.1051 9.16297ZM42.7014 16.4954C44.0298 17.8237 44.0296 19.9775 42.7014 21.3057C41.3732 22.6339 39.2193 22.6339 37.8911 21.3057C36.5629 19.9775 36.5628 17.8236 37.8911 16.4954C39.2193 15.1672 41.3732 15.1672 42.7014 16.4954ZM40.2963 14.002C43.0014 14.002 45.1948 16.1953 45.1948 18.9004C45.1948 21.6056 43.0016 23.799 40.2963 23.799C37.591 23.799 35.3977 21.6057 35.3977 18.9004C35.3977 16.1952 37.591 14.002 40.2963 14.002ZM42.4461 47.6868C42.1215 47.4317 42.0652 46.9617 42.3203 46.6371C42.5755 46.3125 43.0455 46.2562 43.3701 46.5113L45.5055 48.1904L48.9465 44.2157C49.2161 43.9041 49.6875 43.87 49.9992 44.1397C50.3108 44.4093 50.3449 44.8807 50.0752 45.1924L46.1955 49.6739C45.9329 49.9963 45.4747 50.0682 45.1411 49.8058L42.4463 47.6868H42.4461ZM6.15992 8.85594H8.98168C9.3541 8.85594 9.66125 8.54879 9.66125 8.17637V4.61363L6.15992 8.85594ZM21.4821 17.7079C21.0686 17.7079 20.7335 17.3728 20.7335 16.9593C20.7335 16.5459 21.0686 16.2107 21.4821 16.2107H26.933C27.3465 16.2107 27.6816 16.5459 27.6816 16.9593C27.6816 17.3728 27.3465 17.7079 26.933 17.7079H21.4821ZM21.4821 21.5904C21.0686 21.5904 20.7335 21.2552 20.7335 20.8418C20.7335 20.4283 21.0686 20.0932 21.4821 20.0932H26.933C27.3465 20.0932 27.6816 20.4283 27.6816 20.8418C27.6816 21.2552 27.3465 21.5904 26.933 21.5904H21.4821ZM9.8307 51.3268V53.0667C9.8307 53.4389 10.138 53.746 10.5102 53.746H39.3111C38.7032 52.9971 38.1764 52.1875 37.7371 51.3267H9.8307V51.3268ZM46.1463 35.6848C45.9791 35.699 43.5111 36.4297 43.1364 36.5376V29.762C43.4233 29.5005 43.6023 29.1233 43.6023 28.7086V27.842L44.2811 27.5606L44.894 28.1735L44.8955 28.172C45.2253 28.5086 45.7039 28.6463 46.1464 28.5696V35.6847L46.1463 35.6848ZM46.7592 37.3612L46.2093 37.2028L37.7422 39.6428V45.1361C37.7422 47.7721 38.607 50.3189 40.1632 52.4056C40.6496 53.0579 40.9876 53.4099 41.5576 53.9749C42.8572 55.2059 44.4356 56.1575 46.2093 56.7144C48.6782 55.9393 50.7686 54.3996 52.2555 52.4056C53.7875 50.3512 54.6765 47.8147 54.6765 45.1361V39.6428L46.7592 37.3612ZM46.1463 9.23152C45.7122 9.15629 45.3021 9.27652 44.9527 9.57477L44.281 10.2405L43.6021 9.95914V9.09254H43.5992C43.5992 8.675 43.4219 8.3 43.1363 8.03914V7.40785H45.4667C45.837 7.40785 46.1462 7.71078 46.1462 8.08742L46.1463 9.23152ZM43.1364 5.91066H45.4668C46.665 5.91066 47.6435 6.89164 47.6435 8.08742V10.3595L49.5691 12.2851C50.1214 12.8375 50.1282 13.7437 49.5691 14.3028L48.9562 14.9157L49.2376 15.5946H50.1042C50.8902 15.5946 51.5309 16.2382 51.5309 17.0214V20.7796C51.5309 21.5655 50.8868 22.2065 50.1042 22.2065H49.2377L48.9563 22.8854L49.6246 23.5603C49.8638 23.8295 49.9834 24.1686 49.9834 24.507H49.9863C49.9863 24.8662 49.8458 25.242 49.5677 25.5144L49.5692 25.5159L47.6436 27.4415V36.0652L55.5608 38.3468C55.9095 38.4106 56.1738 38.7159 56.1738 39.083V45.136C56.1738 48.144 55.1754 50.9927 53.4546 53.3004C51.7412 55.598 49.3092 57.3596 46.4314 58.2078C46.2955 58.2502 46.1459 58.2543 45.999 58.2112C43.9947 57.6225 42.2064 56.5905 40.7259 55.2431H10.5102C9.31144 55.2431 8.33351 54.2652 8.33351 53.0666V51.3267H6.00324C4.80453 51.3267 3.8266 50.3489 3.8266 49.1502V9.60453C3.8266 9.39594 3.90148 9.23516 4.04058 9.08047L9.6623 2.26906C9.80961 2.08988 10.0231 1.99707 10.2384 1.99695V1.99414H40.9598C42.1585 1.99414 43.1364 2.97242 43.1364 4.17102V5.91066ZM16.6198 16.0712H10.9611V21.7299H16.6198V18.7351L14.7196 20.5873C14.458 20.8727 14.0165 20.9124 13.7071 20.6693L11.4402 18.8867C11.1155 18.6316 11.0593 18.1616 11.3144 17.837C11.5695 17.5123 12.0396 17.4561 12.3642 17.7112L14.1172 19.0897L16.6198 16.6502V16.0711V16.0712ZM10.2125 14.574C9.79906 14.574 9.4639 14.9091 9.4639 15.3226V22.4785C9.4639 22.892 9.79906 23.2271 10.2125 23.2271H17.3684C17.7819 23.2271 18.117 22.892 18.117 22.4785V17.2759L19.2222 16.1987C19.5178 15.9112 19.5243 15.4386 19.2369 15.143C18.9494 14.8475 18.4768 14.8409 18.1812 15.1284L18.1071 15.2007C18.0488 14.8453 17.7403 14.5741 17.3684 14.5741L10.2125 14.574ZM21.4821 28.8438C21.0686 28.8438 20.7335 28.5086 20.7335 28.0952C20.7335 27.6818 21.0686 27.3466 21.4821 27.3466H30.6016C31.015 27.3466 31.3502 27.6818 31.3502 28.0952C31.3502 28.5086 31.015 28.8438 30.6016 28.8438H21.4821ZM21.4821 32.7262H36.9937C37.4071 32.7262 37.7423 32.3911 37.7423 31.9776C37.7423 31.5642 37.4071 31.229 36.9937 31.229H21.4821C21.0686 31.229 20.7335 31.5642 20.7335 31.9776C20.7335 32.3911 21.0686 32.7262 21.4821 32.7262ZM16.6198 27.207H10.9611V32.8658H16.6198V29.8711L14.7196 31.7233C14.458 32.0087 14.0165 32.0484 13.7071 31.8052L11.4402 30.0227C11.1155 29.7676 11.0593 29.2975 11.3144 28.9729C11.5695 28.6483 12.0396 28.5921 12.3642 28.8472L14.1172 30.2257L16.6198 27.7863V27.207ZM10.2125 25.7098C9.79906 25.7098 9.4639 26.045 9.4639 26.4584V33.6144C9.4639 34.0278 9.79906 34.363 10.2125 34.363H17.3684C17.7819 34.363 18.117 34.0278 18.117 33.6144V28.4117L19.2222 27.3345C19.5178 27.0471 19.5243 26.5745 19.2369 26.2789C18.9494 25.9834 18.4768 25.9768 18.1812 26.2643L18.1071 26.3366C18.0488 25.9811 17.7403 25.71 17.3684 25.71L10.2125 25.7098ZM21.4821 43.8621H36.2451V45.1361C36.2451 46.7678 36.539 48.3526 37.0825 49.8296H6.00324C5.63094 49.8296 5.32379 49.5223 5.32379 49.1502V10.3531H8.98168C10.1805 10.3531 11.1584 9.3752 11.1584 8.17637V3.49133H40.9598C41.332 3.49133 41.6393 3.79883 41.6393 4.17102V7.66578H38.4171C37.6338 7.66578 36.9903 8.30656 36.9903 9.09254V9.95914L36.3114 10.2404L35.6986 9.6275C35.1424 9.07133 34.237 9.07133 33.6809 9.6275L31.0234 12.2851L31.0249 12.2866C30.47 12.8302 30.4651 13.7444 31.0234 14.3028L31.6362 14.9157L31.3549 15.5946H30.4883V15.5975C30.0932 15.5975 29.7364 15.7568 29.4801 16.013L29.4816 16.0146C29.2234 16.2676 29.0616 16.6339 29.0616 17.0214V20.7796C29.0616 21.5643 29.7082 22.2065 30.4884 22.2065H31.355L31.6364 22.8854L31.0235 23.4983L31.025 23.4998C30.4633 24.05 30.4727 24.9651 31.0235 25.516L33.6811 28.1736L33.6826 28.1721C33.955 28.4502 34.3307 28.5907 34.6899 28.5907V28.5877C35.0284 28.5877 35.3675 28.4681 35.6367 28.229L36.3116 27.5607L36.9904 27.8422V28.7087C36.9904 29.1018 37.1507 29.4588 37.4089 29.717L37.4104 29.7154C37.6703 29.9746 38.0267 30.1354 38.4172 30.1354H41.6394V36.9691L36.7891 38.3669C36.7016 38.392 36.6221 38.4316 36.5527 38.4826H21.4821C21.0686 38.4826 20.7335 38.8177 20.7335 39.2312C20.7335 39.6446 21.0686 39.9798 21.4821 39.9798H36.2451V42.365H21.4821C21.0686 42.365 20.7335 42.7002 20.7335 43.1136C20.7335 43.527 21.0686 43.8622 21.4821 43.8622V43.8621ZM16.6198 38.3429H10.9611V44.0016H16.6198V41.0068L14.7196 42.8591C14.458 43.1444 14.0165 43.1841 13.7071 42.941L11.4402 41.1583C11.1155 40.9032 11.0593 40.4332 11.3144 40.1086C11.5695 39.7839 12.0396 39.7277 12.3642 39.9828L14.1172 41.3613L16.6198 38.9218V38.3427V38.3429ZM10.2125 36.8457C9.79906 36.8457 9.4639 37.1809 9.4639 37.5943V44.7502C9.4639 45.1637 9.79906 45.4988 10.2125 45.4988H17.3684C17.7819 45.4988 18.117 45.1637 18.117 44.7502V39.5476L19.2222 38.4704C19.5178 38.1829 19.5243 37.7103 19.2369 37.4148C18.9494 37.1192 18.4768 37.1127 18.1812 37.4001L18.1071 37.4724C18.0488 37.117 17.7403 36.8458 17.3684 36.8458H10.2125V36.8457Z" fill="url(#paint0_linear_18_351319)"/>
<defs>
<linearGradient id="paint0_linear_18_351319" x1="30.0002" y1="1.99414" x2="30.0002" y2="58.2417" gradientUnits="userSpaceOnUse">
<stop stop-color="#0CBBFF"/>
<stop offset="1" stop-color="#A9E4FC"/>
</linearGradient>
</defs>
</svg>
