<svg width="30" height="41" viewBox="0 0 30 41" fill="none" xmlns="http://www.w3.org/2000/svg">
<path d="M20.6469 16.2953L18.5375 14.1859C17.7946 13.4422 16.5594 13.4242 15.8305 14.1859C15.491 14.5402 15.3039 15.0133 15.3093 15.5039C15.3147 15.9946 15.5122 16.4635 15.8594 16.8102L21.1594 22.1148C21.3383 22.2939 21.5508 22.436 21.7846 22.5329C22.0185 22.6298 22.2691 22.6797 22.5223 22.6797C22.7754 22.6797 23.0261 22.6298 23.2599 22.5329C23.4938 22.436 23.7063 22.2939 23.8852 22.1148L29.186 16.8102C29.3624 16.6366 29.5027 16.4298 29.5988 16.2017C29.695 15.9736 29.745 15.7287 29.746 15.4812C29.747 15.2337 29.699 14.9884 29.6047 14.7596C29.5105 14.5307 29.3718 14.3228 29.1968 14.1478C29.0218 13.9727 28.8138 13.8341 28.585 13.7398C28.3561 13.6456 28.1109 13.5976 27.8633 13.5986C27.6158 13.5996 27.371 13.6496 27.1429 13.7457C26.9148 13.8418 26.708 13.9822 26.5344 14.1586L24.3969 16.2953V10.1859C24.3969 7.6958 23.4077 5.30766 21.6469 3.54687C19.8861 1.78608 17.498 0.796875 15.0078 0.796875C12.5177 0.796875 10.1296 1.78608 8.36877 3.54687C6.60798 5.30766 5.61877 7.6958 5.61877 10.1859V13.0063C5.61877 13.5035 5.81632 13.9804 6.16795 14.3321C6.51958 14.6837 6.99649 14.8813 7.49377 14.8813C7.99106 14.8813 8.46797 14.6837 8.8196 14.3321C9.17123 13.9804 9.36877 13.5035 9.36877 13.0063V10.1859C9.36877 8.69037 9.96289 7.25605 11.0204 6.19852C12.0779 5.14099 13.5123 4.54688 15.0078 4.54688C16.5034 4.54688 17.9377 5.14099 18.9953 6.19852C20.0528 7.25605 20.6469 8.69037 20.6469 10.1859V16.2953Z" fill="url(#paint0_linear_18_250529)"/>
<path d="M9.37503 25.2789L11.4844 27.3883C12.2274 28.1321 13.4618 28.15 14.1914 27.3922C14.5318 27.0383 14.7198 26.5651 14.715 26.0741C14.7101 25.5831 14.5129 25.1136 14.1657 24.7664L8.86097 19.4594C8.68205 19.2803 8.46959 19.1383 8.23574 19.0413C8.00189 18.9444 7.75122 18.8945 7.49808 18.8945C7.24494 18.8945 6.99427 18.9444 6.76042 19.0413C6.52657 19.1383 6.31411 19.2803 6.13519 19.4594L0.833627 24.7641C0.482008 25.1163 0.284717 25.5938 0.285157 26.0915C0.285597 26.5892 0.48373 27.0664 0.835971 27.418C1.18821 27.7696 1.66571 27.9669 2.16341 27.9665C2.66111 27.966 3.13826 27.7679 3.48988 27.4157L5.62503 25.2789V31.3883C5.64761 33.8637 6.6468 36.2301 8.40521 37.9725C10.1636 39.715 12.539 40.6925 15.0145 40.6925C17.49 40.6925 19.8653 39.715 21.6238 37.9725C23.3822 36.2301 24.3814 33.8637 24.4039 31.3883V28.568C24.4039 28.0707 24.2064 27.5938 23.8548 27.2422C23.5031 26.8906 23.0262 26.693 22.5289 26.693C22.0317 26.693 21.5547 26.8906 21.2031 27.2422C20.8515 27.5938 20.6539 28.0707 20.6539 28.568V31.3883C20.6365 32.8725 20.0346 34.29 18.9789 35.3333C17.9232 36.3767 16.4988 36.9618 15.0145 36.9618C13.5302 36.9618 12.1058 36.3767 11.0501 35.3333C9.99435 34.29 9.3925 32.8725 9.37503 31.3883V25.2789Z" fill="url(#paint1_linear_18_250529)"/>
<defs>
<linearGradient id="paint0_linear_18_250529" x1="17.6824" y1="0.796875" x2="17.6824" y2="22.6797" gradientUnits="userSpaceOnUse">
<stop stop-color="#0CBBFF"/>
<stop offset="1" stop-color="#A9E4FC"/>
</linearGradient>
<linearGradient id="paint1_linear_18_250529" x1="12.3445" y1="18.8945" x2="12.3445" y2="40.6925" gradientUnits="userSpaceOnUse">
<stop stop-color="#0CBBFF"/>
<stop offset="1" stop-color="#A9E4FC"/>
</linearGradient>
</defs>
</svg>
