<svg width="60" height="61" viewBox="0 0 60 61" fill="none" xmlns="http://www.w3.org/2000/svg">
<g clip-path="url(#clip0_18_351338)">
<path d="M8.07171 7.44488C8.07171 6.83035 8.56999 6.33207 9.18452 6.33207H18.6949C19.3094 6.33207 19.8077 6.83035 19.8077 7.44488C19.8077 8.05941 19.3094 8.55769 18.6949 8.55769H9.18452C8.56999 8.55769 8.07171 8.05941 8.07171 7.44488ZM9.18452 17.2344H32.2215C32.836 17.2344 33.3343 16.7361 33.3343 16.1216C33.3343 15.507 32.836 15.0087 32.2215 15.0087H9.18452C8.56999 15.0087 8.07171 15.507 8.07171 16.1216C8.07171 16.7361 8.56999 17.2344 9.18452 17.2344ZM55.1392 36.1207C55.0291 36.2964 55.002 36.4498 55.0449 36.6519L55.9218 40.7879C56.2362 42.2641 55.3896 43.7311 53.9523 44.1993L53.2541 44.4261L56.716 53.0339C56.9784 53.6901 56.9 54.3657 56.5069 54.8434C56.1139 55.321 55.4932 55.5202 54.8023 55.3895L49.9442 54.4531L46.856 58.3132C46.4837 58.7799 45.9932 59.0338 45.4795 59.0338C45.387 59.0338 45.2939 59.0256 45.2003 59.0088C44.5883 58.8996 44.0901 58.4334 43.8677 57.7617L41.2223 49.8789L39.9096 49.3483C39.7203 49.2712 39.5612 49.2714 39.3731 49.3479L36.9534 50.3259L34.4589 57.7655C34.2321 58.438 33.7325 58.9023 33.1218 59.0095C33.0302 59.0257 32.9387 59.0335 32.8478 59.0335C32.3343 59.0335 31.8438 58.7796 31.4707 58.3115L28.3837 54.4529L23.5293 55.3885C22.8328 55.5198 22.212 55.3202 21.8196 54.843C21.4271 54.3658 21.3492 53.69 21.6111 53.0355L23.2146 49.0474H5.72984C3.70952 49.0474 2.06573 47.4962 2.06573 45.5893V4.01668C2.06573 2.10992 3.70941 0.558594 5.72984 0.558594H37.0415C39.0618 0.558594 40.7056 2.1098 40.7056 4.01668V15.4402C41.0308 15.5666 41.3391 15.7521 41.613 15.9987C41.8869 16.2454 44.7554 18.8291 44.7554 18.8291C44.9056 18.9642 45.0583 19.0179 45.262 19.0121L49.4865 18.866C50.9939 18.8108 52.2962 19.9016 52.5041 21.3996L53.0918 25.5833C53.1206 25.785 53.2011 25.9249 53.3607 26.0491L56.6944 28.655C57.8837 29.5828 58.1783 31.2509 57.3791 32.5347L55.1392 36.1205V36.1207ZM24.1098 46.822L25.185 44.1478C24.697 43.96 24.2839 43.6548 23.9694 43.2744H9.18452C8.56999 43.2744 8.07171 42.7761 8.07171 42.1616C8.07171 41.547 8.56999 41.0488 9.18452 41.0488H23.3165C23.3271 40.9617 23.3414 40.8743 23.36 40.787L24.2403 36.6515C24.2831 36.45 24.256 36.2966 24.1468 36.1223L23.1923 34.5944H9.18452C8.56999 34.5944 8.07171 34.0961 8.07171 33.4816C8.07171 32.8671 8.56999 32.3688 9.18452 32.3688H21.813C21.1364 31.109 21.4522 29.5432 22.5914 28.6545L25.9224 26.0509C25.9778 26.0077 26.023 25.9627 26.0603 25.9145H9.18452C8.56999 25.9145 8.07171 25.4162 8.07171 24.8016C8.07171 24.1871 8.56999 23.6888 9.18452 23.6888H26.4576L26.7813 21.3971C26.9887 19.9017 28.2855 18.8095 29.7994 18.8661L34.0239 19.0122C34.2305 19.0177 34.3795 18.9642 34.5298 18.8289L37.6719 15.999C37.9176 15.7777 38.1915 15.6079 38.4799 15.4835V4.01668C38.4799 3.34871 37.8212 2.78422 37.0415 2.78422H5.72984C4.95019 2.78422 4.29148 3.34859 4.29148 4.01668V45.5896C4.29148 46.2576 4.95019 46.8221 5.72984 46.8221H24.1098V46.822ZM34.3306 51.1479C33.2763 51.142 32.2722 50.568 31.7498 49.582L29.7644 45.8536C29.6674 45.668 29.549 45.5693 29.3519 45.5049L27.3052 44.8407L25.9091 48.3131C25.8993 48.3402 25.8888 48.3669 25.8769 48.3929L24.013 53.0289L28.6225 52.1405C29.0284 52.0625 29.444 52.2154 29.7022 52.538L32.6351 56.2044L34.3306 51.1479ZM51.1325 45.1153L49.9319 45.5053C49.7349 45.5696 49.6147 45.6702 49.5182 45.8519L47.5346 49.5833C47.0097 50.5738 45.9977 51.1491 44.9369 51.1493C44.604 51.1493 44.2664 51.092 43.9375 50.9736L45.6929 56.2044L48.6262 52.5379C48.8844 52.2152 49.2998 52.0624 49.7059 52.1404L54.3152 53.0289L51.1325 45.1152V45.1153ZM55.4906 31.3571C55.6857 31.0436 55.6149 30.6355 55.3248 30.4092L51.9922 27.8042C51.3809 27.3287 50.9985 26.6682 50.8883 25.8955L50.2999 21.7075C50.249 21.3418 49.9361 21.0755 49.5644 21.0903L45.3382 21.2364C44.5613 21.2645 43.8431 21.0022 43.2663 20.4829L40.1235 17.6525C39.845 17.4016 39.4402 17.4017 39.1614 17.6525L36.0192 20.4826C35.442 21.0022 34.7246 21.2643 33.948 21.2363L29.7218 21.0902C29.3509 21.0744 29.036 21.3417 28.9856 21.7055L28.3939 25.8937C28.2891 26.6629 27.9076 27.3261 27.291 27.8056L23.9612 30.4084C23.6704 30.6354 23.5994 31.0435 23.7955 31.3585L24.7292 32.8534C24.7398 32.8688 24.7491 32.885 24.759 32.9009L26.0335 34.9412C26.4462 35.5994 26.5794 36.3513 26.4174 37.1139L25.537 41.2501C25.4603 41.6101 25.668 41.9682 26.0203 42.0834L26.961 42.3887C26.9744 42.3924 26.9876 42.3973 27.0009 42.4016L30.0406 43.3881C30.7878 43.6318 31.3725 44.1249 31.7329 44.8147L33.7154 48.5376C33.8918 48.8704 34.2711 49.0091 34.6192 48.8689L38.538 47.2848C38.8992 47.1382 39.2707 47.0648 39.6419 47.0648C40.0132 47.0648 40.3865 47.1386 40.7479 47.2863L42.4934 47.992C42.5131 47.9991 42.5325 48.0073 42.5519 48.0155L44.6637 48.8694C45.0118 49.0093 45.393 48.8711 45.5689 48.5396L47.5528 44.8079C47.9166 44.1218 48.5014 43.6306 49.2432 43.3888L53.2641 42.0827C53.6204 41.9666 53.8232 41.6163 53.7452 41.2502L52.8682 37.1136C52.7062 36.3513 52.8393 35.5994 53.253 34.9395L55.4909 31.3569L55.4906 31.3571ZM49.2093 33.1957C49.2093 38.471 44.9177 42.7626 39.6424 42.7626C34.3671 42.7626 30.0721 38.471 30.0721 33.1957C30.0721 27.9204 34.3653 23.6254 39.6424 23.6254C44.9194 23.6254 49.2093 27.9186 49.2093 33.1957ZM46.9837 33.1957C46.9837 29.1458 43.6904 25.8511 39.6424 25.8511C35.5944 25.8511 32.2978 29.1458 32.2978 33.1957C32.2978 37.2455 35.5925 40.537 39.6424 40.537C43.6923 40.537 46.9837 37.2437 46.9837 33.1957ZM42.3628 29.8914L38.2435 34.0521L36.993 32.5215C36.6043 32.0457 35.9032 31.9749 35.4271 32.3639C34.9512 32.7527 34.8807 33.4538 35.2695 33.9297L37.3025 36.4177C37.5021 36.662 37.7961 36.8102 38.1112 36.8252C38.1289 36.826 38.1466 36.8265 38.1643 36.8265C38.4604 36.8265 38.7454 36.7081 38.955 36.4967L43.9443 31.4574C44.3767 31.0205 44.3732 30.316 43.9366 29.8836C43.4998 29.4514 42.7953 29.4548 42.3628 29.8914Z" fill="url(#paint0_linear_18_351338)"/>
</g>
<defs>
<linearGradient id="paint0_linear_18_351338" x1="29.9465" y1="0.558594" x2="29.9465" y2="59.0338" gradientUnits="userSpaceOnUse">
<stop stop-color="#0CBBFF"/>
<stop offset="1" stop-color="#A9E4FC"/>
</linearGradient>
<clipPath id="clip0_18_351338">
<rect width="60" height="60" fill="white" transform="translate(6.10352e-05 0.117188)"/>
</clipPath>
</defs>
</svg>
