<svg width="51" height="51" viewBox="0 0 51 51" fill="none" xmlns="http://www.w3.org/2000/svg">
<g clip-path="url(#clip0_18_258850)">
<path d="M50.3186 15.3568C50.2616 15.0309 49.9786 14.7931 49.6478 14.7931H47.5783C47.2453 13.4723 46.7247 12.2166 46.0255 11.0472L47.488 9.58449C47.722 9.3505 47.7539 8.98224 47.5637 8.71154C46.444 7.1173 45.0681 5.7423 43.4742 4.62482C43.2033 4.43507 42.8355 4.467 42.6015 4.70099L41.1414 6.16124C39.9673 5.46075 38.7107 4.94005 37.3932 4.60782V2.54132C37.3932 2.21046 37.1554 1.92745 36.8295 1.87052C34.926 1.53771 32.9498 1.5382 31.0498 1.87052C30.7239 1.92755 30.4861 2.21056 30.4861 2.54132V4.60812C29.1654 4.94122 27.9094 5.46271 26.7398 6.16329L25.2775 4.70099C25.0436 4.46691 24.6754 4.43497 24.4044 4.62521C22.8119 5.74376 21.4371 7.11866 20.3182 8.71144C20.1281 8.98224 20.1599 9.3505 20.394 9.58449L21.8562 11.0468C21.1556 12.2163 20.6342 13.4723 20.3011 14.7931H18.2343C17.9035 14.7931 17.6205 15.0309 17.5635 15.3568C17.3972 16.3076 17.3129 17.2804 17.3129 18.2481C17.3129 19.2139 17.3973 20.1857 17.5635 21.1365C17.6206 21.4624 17.9036 21.7002 18.2343 21.7002H20.3017C20.4208 22.1707 20.5639 22.6343 20.7295 23.0866L17.4954 25.9365C15.7132 25.2706 14.1525 24.8362 12.6576 24.5903V24.2781C14.0724 23.3139 15.109 21.6288 15.4258 19.6361C16.1255 18.9933 16.6365 17.9724 16.9821 16.5248C16.9855 16.5107 16.9884 16.4963 16.991 16.4818C17.3076 14.6378 16.9292 12.9828 15.8971 11.6958C14.6845 10.1837 12.599 9.24855 10.1754 9.13019C6.31216 8.9382 3.69409 11.2149 2.81147 13.5527C1.97729 15.7622 2.57183 17.9941 4.39858 19.5752C4.68198 21.4718 5.61011 23.0848 6.89429 24.0799V24.4566C6.04302 24.5356 5.11587 24.6539 4.02964 24.8218C2.01812 25.13 0.666748 26.5187 0.666748 28.2772V37.9526C0.666748 39.3596 1.81255 40.5041 3.22095 40.5041C3.65132 40.5041 4.05698 40.3968 4.41313 40.2082V48.2498C4.41313 48.626 4.71802 48.9309 5.09419 48.9309H14.4547C14.8309 48.9309 15.1358 48.626 15.1358 48.2498V36.8723V31.0154L16.1815 31.4181C17.4089 31.8934 18.7308 31.6567 19.7177 30.7858L21.4704 29.2426C22.3392 30.2268 23.3226 31.1095 24.4042 31.8706C24.6751 32.0611 25.0437 32.0294 25.2777 31.7951L26.7404 30.3324C28.2956 31.2622 30.0215 31.8892 31.7904 32.1695V38.9667C31.7904 39.3429 32.0953 39.6478 32.4714 39.6478H35.4083C35.7844 39.6478 36.0893 39.3429 36.0893 38.9667V32.1703C37.8769 31.8907 39.572 31.2752 41.142 30.3332L42.6015 31.7948C42.8353 32.0292 43.2035 32.0611 43.4745 31.8714C45.0698 30.7528 46.4459 29.3768 47.5644 27.7815C47.7542 27.5105 47.722 27.1423 47.4879 26.9085L46.0259 25.4486C46.7252 24.2787 47.2458 23.022 47.5787 21.7004H49.648C49.9789 21.7004 50.2619 21.4626 50.3188 21.1367C50.4851 20.1862 50.5693 19.2145 50.5693 18.2483C50.5691 17.28 50.4848 16.3072 50.3186 15.3568ZM27.7159 10.8697C31.784 7.44074 37.8853 7.95812 41.3166 12.0232C42.9792 13.994 43.7749 16.494 43.5571 19.0625C43.3392 21.631 42.1339 23.961 40.1617 25.6248C39.7821 25.9468 39.3738 26.2407 38.9435 26.5027L34.4782 20.7719C34.3491 20.6063 34.1509 20.5095 33.941 20.5095C33.731 20.5095 33.5329 20.6063 33.4038 20.7719L28.9379 26.5033C28.1003 25.9958 27.3516 25.3667 26.7031 24.6293C27.7588 23.6974 27.86 22.0805 26.9286 21.0246C26.3005 20.3124 25.3607 20.0353 24.4916 20.2156C23.775 16.7683 24.9965 13.1666 27.7159 10.8697ZM24.2269 21.8201C24.7193 21.3861 25.4728 21.4332 25.9071 21.9255C26.1167 22.1633 26.2212 22.4697 26.2013 22.7886C26.1812 23.1074 26.0393 23.3985 25.8016 23.6082L24.8999 24.4032L23.243 22.687L24.2269 21.8201ZM8.2562 24.845C8.7812 25.0415 9.33823 25.1482 9.91528 25.1482C10.3914 25.1482 10.8537 25.0754 11.2954 24.9396V25.622C11.2954 26.4607 10.6131 27.143 9.77446 27.143C8.93735 27.143 8.2562 26.4607 8.2562 25.622V24.845ZM4.0856 14.0337C4.76538 12.2331 6.76147 10.4812 9.73081 10.4812C9.85503 10.4812 9.98101 10.4842 10.1086 10.4905C12.1431 10.5901 13.8656 11.3399 14.8343 12.5479C15.6229 13.5311 15.8979 14.7698 15.6519 16.2298C15.5715 16.5634 15.4821 16.8682 15.3837 17.1437C15.1899 15.5402 14.6909 14.3491 13.8759 13.5317C13.7427 13.3982 13.5626 13.3244 13.3714 13.3318C13.1828 13.3379 13.0052 13.4221 12.881 13.5641C12.0849 14.4743 11.0968 14.9996 9.86265 15.1683C7.66001 14.8721 6.14028 15.1688 5.21987 16.0739C4.82026 16.467 4.55181 16.9619 4.41567 17.5538C3.74009 16.5096 3.61421 15.2825 4.0856 14.0337ZM5.67515 18.6526C5.67515 18.6514 5.67485 18.6502 5.67485 18.6489C5.6563 17.9295 5.82358 17.3909 6.17515 17.045C6.7688 16.4612 8.0102 16.2832 9.76528 16.5297C9.82397 16.5381 9.88374 16.5385 9.94272 16.5314C11.262 16.3701 12.4003 15.868 13.3371 15.0359C13.9034 15.9507 14.1564 17.3343 14.1088 19.2335C13.777 21.8122 12.0234 23.786 9.91548 23.786C9.223 23.786 8.56772 23.5726 7.98823 23.1943C7.96577 23.1771 7.94224 23.1612 7.91772 23.1469C6.64819 22.2795 5.75903 20.6109 5.67515 18.6526ZM3.22095 39.142C2.56362 39.142 2.02876 38.6084 2.02876 37.9526V37.5533H4.41304V37.9526C4.41313 38.6084 3.87827 39.142 3.22095 39.142ZM10.4555 47.5687V41.3205C10.4555 40.9443 10.1506 40.6395 9.77446 40.6395C9.39829 40.6395 9.09341 40.9443 9.09341 41.3205V47.5687H5.77515V37.9525V37.5532H13.7736V47.5687H10.4555ZM18.817 29.764C18.2095 30.3001 17.4285 30.4401 16.6721 30.1475L15.2994 29.6189L14.697 29.3896C14.4876 29.3099 14.2526 29.3383 14.0681 29.4653C13.8837 29.5924 13.7736 29.8021 13.7736 30.0261V36.1913H5.77515V29.5565C5.77515 29.1803 5.47026 28.8754 5.09409 28.8754C4.71792 28.8754 4.41304 29.1803 4.41304 29.5565V36.1913H2.02886V28.2772C2.02886 27.054 3.13735 26.3364 4.23677 26.168C5.24556 26.0121 6.1105 25.9003 6.902 25.824C7.00601 27.3197 8.25415 28.5051 9.77446 28.5051C11.2467 28.5051 12.464 27.3954 12.6358 25.9688C14.0857 26.2237 15.618 26.6706 17.3925 27.3545C17.6293 27.4456 17.8973 27.3978 18.0876 27.2299L21.9627 23.8152C21.9751 23.8053 21.9868 23.7946 21.9984 23.7839L22.2201 23.5885L23.8772 25.3051L21.13 27.7275L21.1272 27.73C21.1216 27.7343 21.1157 27.7379 21.1102 27.7424C21.0888 27.7598 21.0691 27.7784 21.0503 27.7977L18.817 29.764ZM27.0136 28.8975C26.744 28.7216 26.3878 28.7587 26.16 28.9863L24.7269 30.4194C23.9127 29.8008 23.1652 29.1043 22.4921 28.3421L25.6816 25.5298C26.4117 26.3596 27.2532 27.0686 28.1931 27.6434C28.1837 27.7625 28.2046 27.8842 28.2591 27.9958C28.3734 28.2296 28.6108 28.3778 28.871 28.3778H31.79V30.7902C30.0931 30.4951 28.4894 29.8603 27.0136 28.8975ZM33.1522 38.2856V31.5833C33.1522 31.5829 33.1522 31.5824 33.1522 31.582V27.697C33.1522 27.3208 32.8473 27.0159 32.4711 27.0159H30.2652L33.941 22.2985L37.6167 27.0159H35.4081C35.0319 27.0159 34.727 27.3208 34.727 27.697V31.5819V31.5832V38.2856H33.1522ZM49.0646 20.3381H47.0369C46.7148 20.3381 46.4368 20.5637 46.3704 20.8788C46.0471 22.415 45.4482 23.8605 44.5905 25.1754C44.4144 25.4452 44.4516 25.8017 44.6796 26.0294L46.1127 27.4604C45.2648 28.5796 44.2726 29.5719 43.1533 30.4198L41.7223 28.9868C41.4947 28.7587 41.1381 28.7215 40.8683 28.8976C39.3921 29.8606 37.7875 30.4954 36.089 30.7906V28.378H39.0107C39.2709 28.378 39.5084 28.2297 39.6226 27.996C39.6772 27.8842 39.6981 27.7623 39.6886 27.643C40.1659 27.3499 40.6194 27.0226 41.0412 26.6648C43.2901 24.7677 44.6656 22.1087 44.9142 19.1776C45.1627 16.2467 44.2547 13.394 42.3575 11.1448C38.4419 6.50626 31.4798 5.91554 26.8375 9.82882C23.6346 12.5341 22.2529 16.8246 23.2438 20.871L21.8358 22.1117C21.7069 21.7074 21.5969 21.2951 21.5085 20.878C21.4418 20.5634 21.164 20.3383 20.8422 20.3383H18.8172C18.7226 19.6462 18.6748 18.9455 18.6748 18.2482C18.6748 17.5493 18.7226 16.8478 18.8172 16.1553H20.8422C21.1642 16.1553 21.4422 15.9298 21.5086 15.6148C21.8322 14.08 22.4318 12.6356 23.2911 11.3214C23.4674 11.0517 23.4305 10.6951 23.2026 10.4672L21.7693 9.03361C22.6174 7.91574 23.6088 6.92433 24.7266 6.07628L26.16 7.50968C26.3879 7.7378 26.7446 7.77452 27.0142 7.59816C28.3286 6.73888 29.7731 6.13917 31.3076 5.81573C31.6226 5.74943 31.8481 5.4714 31.8481 5.14933V3.12443C33.2315 2.93546 34.6456 2.93497 36.0311 3.12443V5.14943C36.0311 5.4715 36.2567 5.74952 36.5719 5.81593C38.1017 6.1378 39.5475 6.73683 40.8691 7.5963C41.1386 7.77169 41.4945 7.73439 41.722 7.50695L43.1529 6.07609C44.2714 6.92335 45.2638 7.91505 46.1125 9.0337L44.6792 10.4672C44.4515 10.6949 44.4143 11.0511 44.5904 11.3209C45.4479 12.6352 46.0467 14.0799 46.3704 15.6148C46.4368 15.9298 46.7147 16.1553 47.0368 16.1553H49.0645C49.1591 16.8476 49.2069 17.5491 49.2069 18.2482C49.207 18.9455 49.1592 19.6463 49.0646 20.3381ZM25.9398 18.9373H32.2732C32.5427 19.593 33.1883 20.0563 33.9411 20.0563C34.6926 20.0563 35.3372 19.593 35.6063 18.9373H41.9421C42.3183 18.9373 42.6232 18.6324 42.6232 18.2563C42.6232 16.6899 42.2061 15.2191 41.4773 13.9489C41.4716 13.9378 41.4666 13.9265 41.4602 13.9155C41.4515 13.9004 41.4417 13.8862 41.4321 13.872C40.6789 12.5899 39.6061 11.5174 38.3239 10.7644C38.3103 10.7551 38.2967 10.7458 38.2823 10.7374C38.2715 10.7313 38.2605 10.7262 38.2497 10.7207C36.9792 9.99152 35.508 9.57413 33.9411 9.57413C32.3742 9.57413 30.9029 9.99152 29.6325 10.7207C29.6215 10.7263 29.6105 10.7313 29.5999 10.7374C29.5855 10.7457 29.572 10.755 29.5584 10.7642C28.2755 11.5175 27.2024 12.5906 26.4491 13.8735C26.4397 13.8873 26.4303 13.9009 26.4219 13.9155C26.4159 13.926 26.411 13.9368 26.4056 13.9475C25.6763 15.218 25.2589 16.6893 25.2589 18.2563C25.2587 18.6324 25.5636 18.9373 25.9398 18.9373ZM27.2902 15.2024L28.7021 16.0163C28.4924 16.5048 28.3502 17.0283 28.2848 17.5753H26.6523C26.7301 16.7352 26.9517 15.9365 27.2902 15.2024ZM34.622 12.6V10.9681C35.4619 11.0459 36.2606 11.2666 36.9947 11.605L36.1793 13.0166C35.6915 12.8073 35.1684 12.6654 34.622 12.6ZM33.26 12.6C32.7136 12.6654 32.1907 12.8073 31.7027 13.0165L30.8874 11.6049C31.6213 11.2666 32.4202 11.0459 33.26 10.968V12.6ZM33.941 13.92C36.1002 13.92 37.8956 15.5067 38.2233 17.5753H35.6066C35.3377 16.9181 34.6929 16.4536 33.941 16.4536C33.1878 16.4536 32.542 16.9181 32.2727 17.5753H29.6585C29.9864 15.5067 31.7817 13.92 33.941 13.92ZM33.941 18.6943C33.698 18.6943 33.5002 18.4978 33.5002 18.2564C33.5002 18.0134 33.6979 17.8156 33.941 17.8156C34.1825 17.8156 34.3789 18.0133 34.3789 18.2564C34.379 18.4978 34.1825 18.6943 33.941 18.6943ZM39.5972 17.5753C39.5317 17.0283 39.3896 16.5047 39.1799 16.0163L40.5917 15.2024C40.9302 15.9365 41.1518 16.7353 41.2297 17.5753H39.5972ZM39.9084 14.0239L38.4968 14.8377C38.1727 14.4068 37.789 14.0233 37.3581 13.6992L38.173 12.2883C38.8441 12.7655 39.4312 13.3528 39.9084 14.0239ZM29.709 12.2882L30.524 13.6991C30.093 14.0232 29.7093 14.4068 29.3852 14.8376L27.9736 14.0238C28.4508 13.3528 29.0378 12.7655 29.709 12.2882ZM25.6482 33.9866C25.5191 33.821 25.3209 33.7241 25.1109 33.7241C24.9009 33.7241 24.7027 33.821 24.5736 33.9866L19.5038 40.4959C19.3439 40.7012 19.3149 40.9796 19.4291 41.2134C19.5435 41.4472 19.7808 41.5954 20.0411 41.5954H22.96V48.2497C22.96 48.6259 23.2649 48.9308 23.6411 48.9308H26.5779C26.9541 48.9308 27.2589 48.6259 27.2589 48.2497V41.5954H30.1806C30.4409 41.5954 30.6783 41.4471 30.7925 41.2134C30.9068 40.9796 30.8778 40.7012 30.7179 40.4959L25.6482 33.9866ZM26.578 40.2333C26.2018 40.2333 25.8969 40.5382 25.8969 40.9144V47.5687H24.3221V40.9144C24.3221 40.5382 24.0172 40.2333 23.6411 40.2333H21.4347L25.1109 35.5134L28.7871 40.2333H26.578ZM43.3083 33.9866C43.1791 33.821 42.9809 33.7241 42.7709 33.7241C42.561 33.7241 42.3627 33.821 42.2336 33.9866L37.1638 40.4959C37.004 40.7012 36.975 40.9796 37.0892 41.2134C37.2036 41.4472 37.4409 41.5954 37.7011 41.5954H40.6201V48.2497C40.6201 48.6259 40.925 48.9308 41.3011 48.9308H44.2409C44.617 48.9308 44.9219 48.6259 44.9219 48.2497V41.5954H47.8409C48.1011 41.5954 48.3385 41.4471 48.4528 41.2134C48.567 40.9796 48.538 40.7012 48.3782 40.4959L43.3083 33.9866ZM44.2409 40.2333C43.8647 40.2333 43.5598 40.5382 43.5598 40.9144V47.5687H41.9822V40.9144C41.9822 40.5382 41.6773 40.2333 41.3011 40.2333H39.0948L42.7709 35.5134L46.4472 40.2333H44.2409Z" fill="url(#paint0_linear_18_258850)"/>
</g>
<defs>
<linearGradient id="paint0_linear_18_258850" x1="25.618" y1="1.62109" x2="25.618" y2="48.9309" gradientUnits="userSpaceOnUse">
<stop stop-color="#0CBBFF"/>
<stop offset="1" stop-color="#A9E4FC"/>
</linearGradient>
<clipPath id="clip0_18_258850">
<rect width="50" height="50" fill="white" transform="translate(0.61792 0.277344)"/>
</clipPath>
</defs>
</svg>
