<svg width="60" height="61" viewBox="0 0 60 61" fill="none" xmlns="http://www.w3.org/2000/svg">
<g clip-path="url(#clip0_18_351327)">
<path d="M31.709 34.996C31.9535 35.2426 32.2878 35.3792 32.6347 35.3746C32.9807 35.373 33.3129 35.2375 33.561 34.996C33.8071 34.7545 33.9467 34.4243 33.9488 34.0794C33.9513 33.7345 33.8163 33.4023 33.5738 33.1572L31.3044 30.8873V26.1657C31.3044 25.4452 30.7205 24.8613 30.0001 24.8613C29.2796 24.8613 28.6957 25.4452 28.6957 26.1657V31.4223C28.6921 31.7693 28.8287 32.103 29.0738 32.3486L31.709 34.996Z" fill="url(#paint0_linear_18_351327)"/>
<path d="M48.8999 9.24762H42.5086C41.9247 6.80248 39.7404 5.07677 37.226 5.07371H36.0393C35.7912 2.33458 33.4698 0.117188 30.6522 0.117188H29.3999C26.5828 0.117188 24.2609 2.33458 24.0133 5.07371H22.8262C20.3122 5.07677 18.128 6.80248 17.5435 9.24762H11.087C8.9481 9.24762 7.17398 11.0605 7.17398 13.2126V56.1909C7.18519 58.3548 8.93638 60.106 11.1003 60.1172H48.8999C51.0638 60.106 52.8149 58.3548 52.8262 56.1909V13.2126C52.8262 11.0605 51.052 9.24762 48.8999 9.24762ZM29.4131 2.72588H30.6655C32.0289 2.74168 33.1865 3.72962 33.4174 5.07371H26.6607C26.8915 3.72962 28.0492 2.74168 29.4131 2.72588ZM20.087 10.4735C20.0789 9.73777 20.3652 9.02904 20.8819 8.50476C21.3985 7.98098 22.1032 7.68495 22.8394 7.68241H37.226C38.7738 7.67731 40.0344 8.92561 40.0435 10.4735V14.7259H20.087V10.4735ZM41.3346 17.3346C42.052 17.3346 42.6522 16.7996 42.6522 16.0822V15.7694H44.2175V51.5085H15.7827V15.7694H17.4783V16.0822C17.4697 16.417 17.5986 16.741 17.8355 16.9774C18.0719 17.2143 18.396 17.3432 18.7307 17.3346H41.3346ZM50.2175 56.1909C50.2103 56.9159 49.6249 57.5014 48.8999 57.5085H11.1003C10.3752 57.5014 9.78981 56.9159 9.78268 56.1909V13.2126C9.78675 12.4805 10.3681 11.8818 11.1003 11.8563H17.4783V13.1607H14.4391C14.0962 13.1663 13.7696 13.3084 13.5322 13.556C13.2947 13.8032 13.1658 14.1354 13.174 14.4783V52.8388C13.1674 53.1777 13.2978 53.5048 13.5362 53.7458C13.7747 53.9868 14.1003 54.1208 14.4391 54.1172H45.5478C45.8866 54.1208 46.2127 53.9868 46.4512 53.7458C46.6891 53.5048 46.82 53.1777 46.8129 52.8388V14.4783C46.8216 14.1354 46.6927 13.8032 46.4547 13.556C46.2173 13.3084 45.8907 13.1663 45.5478 13.1607H42.6522V11.8563H48.8999C49.632 11.8818 50.2134 12.4805 50.2175 13.2126V56.1909Z" fill="url(#paint1_linear_18_351327)"/>
<path d="M39.0393 46.291H20.9608C20.2404 46.291 19.6565 46.8749 19.6565 47.5954C19.6565 48.3158 20.2404 48.8997 20.9608 48.8997H39.0261C39.7465 48.9033 40.3335 48.3224 40.337 47.602C40.3406 46.8815 39.7598 46.2946 39.0393 46.291Z" fill="url(#paint2_linear_18_351327)"/>
<path d="M30.0001 43.0299C36.4112 43.0299 41.6088 37.8324 41.6088 31.4212C41.6088 25.01 36.4112 19.8125 30.0001 19.8125C23.5889 19.8125 18.3914 25.01 18.3914 31.4212C18.3965 37.8303 23.5909 43.0248 30.0001 43.0299ZM30.0001 22.4212C34.9708 22.4212 39.0001 26.4504 39.0001 31.4212C39.0001 36.392 34.9708 40.4212 30.0001 40.4212C25.0293 40.4212 21.0001 36.392 21.0001 31.4212C21.0097 26.455 25.0339 22.4309 30.0001 22.4212Z" fill="url(#paint3_linear_18_351327)"/>
</g>
<defs>
<linearGradient id="paint0_linear_18_351327" x1="31.3222" y1="24.8613" x2="31.3222" y2="35.3747" gradientUnits="userSpaceOnUse">
<stop stop-color="#0CBBFF"/>
<stop offset="1" stop-color="#A9E4FC"/>
</linearGradient>
<linearGradient id="paint1_linear_18_351327" x1="30.0001" y1="0.117187" x2="30.0001" y2="60.1172" gradientUnits="userSpaceOnUse">
<stop stop-color="#0CBBFF"/>
<stop offset="1" stop-color="#A9E4FC"/>
</linearGradient>
<linearGradient id="paint2_linear_18_351327" x1="29.9968" y1="46.291" x2="29.9968" y2="48.8997" gradientUnits="userSpaceOnUse">
<stop stop-color="#0CBBFF"/>
<stop offset="1" stop-color="#A9E4FC"/>
</linearGradient>
<linearGradient id="paint3_linear_18_351327" x1="30.0001" y1="19.8125" x2="30.0001" y2="43.0299" gradientUnits="userSpaceOnUse">
<stop stop-color="#0CBBFF"/>
<stop offset="1" stop-color="#A9E4FC"/>
</linearGradient>
<clipPath id="clip0_18_351327">
<rect width="60" height="60" fill="white" transform="translate(6.10352e-05 0.117188)"/>
</clipPath>
</defs>
</svg>
