<svg width="48" height="50" viewBox="0 0 48 50" fill="none" xmlns="http://www.w3.org/2000/svg">
<path d="M1.78663 46.6666H2.61976C4.92002 46.664 6.78388 44.8001 6.78655 42.4998V36.6664H10.1198C11.0399 36.6676 11.7857 37.4133 11.7865 38.3334V39.5831C11.783 45.254 16.3187 49.8843 21.9881 49.998C27.6579 50.1113 32.3755 45.666 32.5986 40.0001H34.2863C35.3612 40.0035 36.3172 39.3172 36.6579 38.298C36.9985 37.2783 36.6472 36.1556 35.7858 35.5121L38.2089 33.089C38.2486 33.0356 38.2883 32.9818 38.3279 32.9284C38.3562 32.88 38.379 32.8285 38.397 32.7754C38.4054 32.7525 38.4199 32.7342 38.4263 32.7102L43.2638 14.1666H44.6046C45.2367 14.1689 45.8146 13.8115 46.0954 13.2454L46.9289 11.5787C47.1872 11.0622 47.1597 10.4484 46.856 9.9571C46.552 9.46577 46.0157 9.1667 45.4377 9.1667H42.5775C42.1407 3.98978 37.8152 0.00801084 32.6196 0H27.6197C22.4245 0.00801084 18.099 3.98978 17.6622 9.1667H14.8016C14.224 9.1667 13.6873 9.46577 13.3837 9.9571C13.08 10.4484 13.0522 11.0622 13.3108 11.5787L14.1439 13.2454C14.4247 13.8115 15.003 14.1689 15.6351 14.1666H16.976L21.8134 32.7102C21.8195 32.7342 21.8347 32.7525 21.8427 32.7754C21.8603 32.8285 21.8836 32.88 21.9118 32.9284C21.9515 32.9818 21.9908 33.0356 22.0308 33.089L24.4535 35.5121C23.5925 36.1556 23.2412 37.2783 23.5819 38.298C23.9225 39.3172 24.8785 40.0035 25.9531 40.0001H27.5987C27.3756 42.9011 24.8995 45.1072 21.9919 44.995C19.0843 44.8833 16.7856 42.493 16.7864 39.5831V38.3334C16.7822 34.653 13.7999 31.6707 10.1198 31.6665H6.78655V25.8335C6.78388 23.5332 4.92002 21.6693 2.61976 21.6667H1.78663C1.3262 21.6667 0.953125 22.0398 0.953125 22.4998V45.8331C0.953125 46.2935 1.3262 46.6666 1.78663 46.6666ZM31.7865 31.6665H28.4532V26.6666C28.4532 25.7461 29.1994 25 30.1199 25C31.0403 25 31.7865 25.7461 31.7865 26.6666V31.6665ZM27.6197 33.3331H35.6081L33.9414 34.9998H26.2983L24.6317 33.3331H27.6197ZM27.6197 1.66664H32.6196C36.8974 1.67236 40.4779 4.91103 40.9116 9.1667H19.3281C19.7615 4.91103 23.3423 1.67236 27.6197 1.66664ZM14.8016 10.8333H45.4377L44.6046 12.5H15.6351L14.8016 10.8333ZM26.7866 14.1666H41.541L36.9756 31.6665H33.4531V26.6666C33.4531 24.8256 31.9608 23.3333 30.1199 23.3333C28.2789 23.3333 26.7866 24.8256 26.7866 26.6666V31.6665H23.2637L18.6983 14.1666H26.7866ZM25.1199 37.4999C25.1203 37.0399 25.493 36.6672 25.9531 36.6664H34.2863C34.7467 36.6664 35.1198 37.0399 35.1198 37.4999C35.1198 37.96 34.7467 38.3334 34.2863 38.3334H25.9531C25.493 38.3327 25.1203 37.96 25.1199 37.4999ZM10.1198 33.3331C12.8801 33.3362 15.1167 35.5731 15.1197 38.3334V39.5831C15.1182 43.4127 18.1623 46.5495 21.9904 46.6624C25.818 46.775 29.0418 43.8232 29.2654 40.0001H30.932C30.7096 44.7455 26.7385 48.4458 21.9888 48.3325C17.2392 48.2192 13.4493 44.3343 13.4531 39.5831V38.3334C13.4512 36.4932 11.96 35.0021 10.1198 34.9998H6.78655V33.3331H10.1198ZM2.61976 23.3333C3.99992 23.3348 5.11838 24.4533 5.11991 25.8335V42.4998C5.11838 43.88 3.99992 44.9985 2.61976 45V23.3333Z" fill="url(#paint0_linear_18_250600)"/>
<defs>
<linearGradient id="paint0_linear_18_250600" x1="24.029" y1="0" x2="24.029" y2="50.0001" gradientUnits="userSpaceOnUse">
<stop stop-color="#0CBBFF"/>
<stop offset="1" stop-color="#A9E4FC"/>
</linearGradient>
</defs>
</svg>
