<svg width="175" height="121" viewBox="0 0 175 121" fill="none" xmlns="http://www.w3.org/2000/svg">
<path fill-rule="evenodd" clip-rule="evenodd" d="M59.6627 44.9995C66.1954 32.3926 73.1882 20.6276 79.8263 8.66441C81.9957 4.75546 84.9041 1.81318 89.6271 1.36003C95.8421 0.763415 100.387 3.96893 102.265 10.3615C104.874 19.241 107.378 28.1504 109.955 37.0393C112.151 44.6119 117.344 48.9319 125.269 49.623C133.871 50.3736 142.499 49.7955 151.114 49.983C152.457 50.0123 152.855 49.5481 152.934 48.1946C153.376 40.5943 153.415 40.5965 145.874 40.5965C137.465 40.5965 129.056 40.5965 119.909 40.5965C122.052 37.9811 124.095 36.0164 125.498 33.6706C129.068 27.7005 133.943 25.687 140.962 26.1768C150.671 26.8535 160.463 26.3992 170.219 26.3027C172.195 26.2826 172.78 26.8086 172.765 28.8192C172.672 40.836 172.684 52.8544 172.756 64.8724C172.767 66.6858 172.317 67.292 170.408 67.2809C155.726 67.195 141.043 67.2899 126.362 67.1806C119.834 67.1318 113.686 65.3269 107.813 62.477C98.9112 58.1575 94.4175 50.5849 92.0032 41.4364C90.7822 36.8108 89.6067 32.173 88.3963 27.4855C87.2281 27.7855 87.1525 28.7474 86.8126 29.448C81.7753 39.8241 76.1984 49.9188 70.8236 60.1195C68.3194 64.8714 64.8679 67.5435 59.1294 67.4796C53.5069 67.4176 50.1676 64.7024 47.7584 60.0634C42.2258 49.4122 36.6378 38.7912 31.0663 28.1604C30.8998 27.8421 30.6616 27.5608 30.4072 27.1914C27.2107 39.2558 23.9863 51.1573 20.9491 63.1053C20.3133 65.6075 19.4166 66.6952 16.6142 66.5188C11.9917 66.2282 7.33591 66.3969 2.69509 66.4627C1.16044 66.4849 0.475217 66.3423 1.03043 64.4775C6.47586 46.1954 11.8041 27.8791 17.2472 9.59707C18.6413 4.91569 21.892 2.02947 26.7815 1.40531C32.1514 0.719958 36.2086 2.9885 38.8333 7.64617C45.2842 19.0922 51.6612 30.5799 58.0655 42.0513C58.5206 42.8662 58.9553 43.6927 59.6627 44.9995Z" fill="#03B8FE"/>
<path fill-rule="evenodd" clip-rule="evenodd" d="M174.499 2.4833C170.321 7.91738 166.391 12.9736 162.539 18.0873C161.75 19.1344 160.775 18.9876 159.76 18.9881C149.91 18.9919 140.06 19.0115 130.209 18.9838C122.525 18.962 115.81 20.9473 111.177 28.394C109.242 21.6379 107.46 15.3671 105.64 9.1083C105.235 7.71403 106.371 7.49393 107.127 7.11443C112.606 4.3672 118.448 2.61749 124.545 2.54766C141.019 2.35957 157.497 2.4833 174.499 2.4833Z" fill="white"/>
<path d="M7.327 93.056V99.873H15.929V103.392H7.327V110.345H18.241V114H2.737V89.418H18.241V93.056H7.327ZM36.6926 110.226V114H22.2936V89.418H26.8666V110.226H36.6926ZM44.5477 93.056V99.873H53.1497V103.392H44.5477V110.345H55.4617V114H39.9577V89.418H55.4617V93.056H44.5477ZM75.8641 108.203C76.1134 108.203 76.3344 108.299 76.5271 108.492L78.3291 110.447C77.3318 111.682 76.1021 112.629 74.6401 113.286C73.1894 113.943 71.4441 114.272 69.4041 114.272C67.5794 114.272 65.9361 113.96 64.4741 113.337C63.0234 112.714 61.7824 111.847 60.7511 110.736C59.7198 109.625 58.9264 108.299 58.3711 106.758C57.8271 105.217 57.5551 103.534 57.5551 101.709C57.5551 99.8617 57.8498 98.173 58.4391 96.643C59.0284 95.1017 59.8558 93.7757 60.9211 92.665C61.9978 91.5543 63.2784 90.693 64.7631 90.081C66.2478 89.4577 67.8911 89.146 69.6931 89.146C71.4838 89.146 73.0704 89.4407 74.4531 90.03C75.8471 90.6193 77.0314 91.39 78.0061 92.342L76.4761 94.467C76.3854 94.603 76.2664 94.722 76.1191 94.824C75.9831 94.926 75.7904 94.977 75.5411 94.977C75.3711 94.977 75.1954 94.9317 75.0141 94.841C74.8328 94.739 74.6344 94.62 74.4191 94.484C74.2038 94.3367 73.9544 94.178 73.6711 94.008C73.3878 93.838 73.0591 93.685 72.6851 93.549C72.3111 93.4017 71.8748 93.2827 71.3761 93.192C70.8888 93.09 70.3221 93.039 69.6761 93.039C68.5768 93.039 67.5681 93.2373 66.6501 93.634C65.7434 94.0193 64.9614 94.586 64.3041 95.334C63.6468 96.0707 63.1368 96.9773 62.7741 98.054C62.4114 99.1193 62.2301 100.338 62.2301 101.709C62.2301 103.092 62.4228 104.321 62.8081 105.398C63.2048 106.475 63.7374 107.381 64.4061 108.118C65.0748 108.855 65.8624 109.421 66.7691 109.818C67.6758 110.203 68.6504 110.396 69.6931 110.396C70.3164 110.396 70.8774 110.362 71.3761 110.294C71.8861 110.226 72.3508 110.118 72.7701 109.971C73.2008 109.824 73.6031 109.637 73.9771 109.41C74.3624 109.172 74.7421 108.883 75.1161 108.543C75.2294 108.441 75.3484 108.362 75.4731 108.305C75.5978 108.237 75.7281 108.203 75.8641 108.203ZM98.6316 93.175H91.2196V114H86.6466V93.175H79.2346V89.418H98.6316V93.175ZM109.277 101.114C110.139 101.114 110.887 101.006 111.521 100.791C112.167 100.576 112.694 100.281 113.102 99.907C113.522 99.5217 113.833 99.0683 114.037 98.547C114.241 98.0257 114.343 97.4533 114.343 96.83C114.343 95.5833 113.93 94.6257 113.102 93.957C112.286 93.2883 111.034 92.954 109.345 92.954H106.421V101.114H109.277ZM121.041 114H116.91C116.128 114 115.562 113.694 115.21 113.082L110.042 105.211C109.85 104.916 109.634 104.707 109.396 104.582C109.17 104.457 108.83 104.395 108.376 104.395H106.421V114H101.848V89.418H109.345C111.011 89.418 112.439 89.5937 113.629 89.945C114.831 90.285 115.811 90.7667 116.57 91.39C117.341 92.0133 117.908 92.7613 118.27 93.634C118.633 94.4953 118.814 95.4473 118.814 96.49C118.814 97.3173 118.69 98.0993 118.44 98.836C118.202 99.5727 117.851 100.241 117.386 100.842C116.933 101.443 116.366 101.97 115.686 102.423C115.018 102.876 114.253 103.233 113.391 103.494C113.686 103.664 113.958 103.868 114.207 104.106C114.457 104.333 114.683 104.605 114.887 104.922L121.041 114ZM128.286 114H123.696V89.418H128.286V114ZM150.671 108.203C150.92 108.203 151.141 108.299 151.334 108.492L153.136 110.447C152.138 111.682 150.909 112.629 149.447 113.286C147.996 113.943 146.251 114.272 144.211 114.272C142.386 114.272 140.743 113.96 139.281 113.337C137.83 112.714 136.589 111.847 135.558 110.736C134.526 109.625 133.733 108.299 133.178 106.758C132.634 105.217 132.362 103.534 132.362 101.709C132.362 99.8617 132.656 98.173 133.246 96.643C133.835 95.1017 134.662 93.7757 135.728 92.665C136.804 91.5543 138.085 90.693 139.57 90.081C141.054 89.4577 142.698 89.146 144.5 89.146C146.29 89.146 147.877 89.4407 149.26 90.03C150.654 90.6193 151.838 91.39 152.813 92.342L151.283 94.467C151.192 94.603 151.073 94.722 150.926 94.824C150.79 94.926 150.597 94.977 150.348 94.977C150.178 94.977 150.002 94.9317 149.821 94.841C149.639 94.739 149.441 94.62 149.226 94.484C149.01 94.3367 148.761 94.178 148.478 94.008C148.194 93.838 147.866 93.685 147.492 93.549C147.118 93.4017 146.681 93.2827 146.183 93.192C145.695 93.09 145.129 93.039 144.483 93.039C143.383 93.039 142.375 93.2373 141.457 93.634C140.55 94.0193 139.768 94.586 139.111 95.334C138.453 96.0707 137.943 96.9773 137.581 98.054C137.218 99.1193 137.037 100.338 137.037 101.709C137.037 103.092 137.229 104.321 137.615 105.398C138.011 106.475 138.544 107.381 139.213 108.118C139.881 108.855 140.669 109.421 141.576 109.818C142.482 110.203 143.457 110.396 144.5 110.396C145.123 110.396 145.684 110.362 146.183 110.294C146.693 110.226 147.157 110.118 147.577 109.971C148.007 109.824 148.41 109.637 148.784 109.41C149.169 109.172 149.549 108.883 149.923 108.543C150.036 108.441 150.155 108.362 150.28 108.305C150.404 108.237 150.535 108.203 150.671 108.203ZM169.358 93.889C169.222 94.127 169.075 94.3027 168.916 94.416C168.769 94.518 168.582 94.569 168.355 94.569C168.117 94.569 167.857 94.484 167.573 94.314C167.301 94.1327 166.973 93.9343 166.587 93.719C166.202 93.5037 165.749 93.311 165.227 93.141C164.717 92.9597 164.111 92.869 163.408 92.869C162.774 92.869 162.218 92.9483 161.742 93.107C161.266 93.2543 160.864 93.464 160.535 93.736C160.218 94.008 159.98 94.3367 159.821 94.722C159.663 95.096 159.583 95.5097 159.583 95.963C159.583 96.541 159.742 97.0227 160.059 97.408C160.388 97.7933 160.819 98.122 161.351 98.394C161.884 98.666 162.49 98.9097 163.17 99.125C163.85 99.3403 164.547 99.5727 165.261 99.822C165.975 100.06 166.672 100.343 167.352 100.672C168.032 100.989 168.639 101.397 169.171 101.896C169.704 102.383 170.129 102.984 170.446 103.698C170.775 104.412 170.939 105.279 170.939 106.299C170.939 107.41 170.747 108.452 170.361 109.427C169.987 110.39 169.432 111.235 168.695 111.96C167.97 112.674 167.08 113.241 166.026 113.66C164.972 114.068 163.765 114.272 162.405 114.272C161.623 114.272 160.853 114.193 160.093 114.034C159.334 113.887 158.603 113.671 157.9 113.388C157.209 113.105 156.557 112.765 155.945 112.368C155.333 111.971 154.789 111.529 154.313 111.042L155.656 108.849C155.77 108.69 155.917 108.56 156.098 108.458C156.28 108.345 156.472 108.288 156.676 108.288C156.96 108.288 157.266 108.407 157.594 108.645C157.923 108.872 158.314 109.127 158.767 109.41C159.221 109.693 159.748 109.954 160.348 110.192C160.96 110.419 161.691 110.532 162.541 110.532C163.845 110.532 164.853 110.226 165.567 109.614C166.281 108.991 166.638 108.101 166.638 106.945C166.638 106.299 166.474 105.772 166.145 105.364C165.828 104.956 165.403 104.616 164.87 104.344C164.338 104.061 163.731 103.823 163.051 103.63C162.371 103.437 161.68 103.228 160.977 103.001C160.275 102.774 159.583 102.502 158.903 102.185C158.223 101.868 157.617 101.454 157.084 100.944C156.552 100.434 156.121 99.7993 155.792 99.04C155.475 98.2693 155.316 97.323 155.316 96.201C155.316 95.3057 155.492 94.433 155.843 93.583C156.206 92.733 156.727 91.9793 157.407 91.322C158.087 90.6647 158.926 90.1377 159.923 89.741C160.921 89.3443 162.065 89.146 163.357 89.146C164.808 89.146 166.145 89.3727 167.369 89.826C168.593 90.2793 169.636 90.914 170.497 91.73L169.358 93.889Z" fill="white"/>
</svg>
