<svg width="40" height="32" viewBox="0 0 40 32" fill="none" xmlns="http://www.w3.org/2000/svg">
<path d="M32.4914 16.4085C36.9771 16.4085 40 19.497 40 24.0732C40 28.1911 36.5257 31.6219 31.82 31.6219C26.6657 31.6219 22.8571 27.5039 22.8571 21.2138C22.8571 6.9168 33.3886 1.19801 40 0.510742V6.80084C35.5171 7.60125 30.4771 12.0615 30.2514 16.9827C30.4771 16.8695 31.3714 16.4085 32.4914 16.4085ZM9.63714 16.4085C14.1171 16.4085 17.1429 19.497 17.1429 24.0732C17.1429 28.1911 13.6686 31.6219 8.96286 31.6219C3.80857 31.6219 0 27.5039 0 21.2138C0 6.9168 10.5314 1.19801 17.1429 0.510742V6.80084C12.66 7.60125 7.62 12.0615 7.39429 16.9827C7.62 16.8695 8.51429 16.4085 9.63714 16.4085Z" fill="#01B8FF" fill-opacity="0.4"/>
</svg>
